<svg width="253" height="85" viewBox="0 0 253 85" fill="none" xmlns="http://www.w3.org/2000/svg">
<path d="M2.14986 67.6677C3.81387 66.4959 6.22911 65.3713 8.13321 64.617C8.72906 64.3801 8.6649 64.9081 9.08606 64.7605C9.90855 64.4715 10.4953 63.886 11.3245 63.6247C11.6006 63.5397 11.6408 64.2961 11.9228 64.1935C13.4675 63.6256 14.692 62.6953 16.1744 61.9682C23.4649 58.3928 30.3333 54.3483 37.3804 50.0963C39.6976 48.6982 42.7789 47.3844 44.9587 45.5965C45.2085 45.3903 44.7199 45.0084 44.7436 44.9339C45.1462 43.766 45.5395 44.9361 46.1569 44.7103C48.6028 43.8127 50.959 42.2696 52.8326 40.6995C53.6311 40.0282 52.1142 39.6531 53.3368 39.6068C53.4205 39.6028 53.5647 40.2645 53.832 40.1607C54.4569 39.911 55.3775 39.1348 55.8281 38.8809C56.6873 38.4019 56.7833 38.327 57.5537 37.7957C58.5573 37.1105 59.9799 36.4877 60.9741 35.6066C61.1901 35.4136 60.5104 35.1095 60.8161 34.7579C61.1016 34.4213 62.1145 33.7644 62.5482 33.6388C62.9601 33.5294 63.1149 34.0393 63.2393 34.0923C63.3264 34.1317 63.4078 34.1546 63.4833 34.1637C64.3474 34.2249 64.6759 32.6047 64.7982 32.4827C67.2285 30.0893 70.0862 29.1384 72.8049 27.5123C74.8744 26.2733 77.0352 24.7999 79.1556 23.8085C81.6864 22.6322 84.0055 22.0273 86.5984 21.0984C86.874 21.0019 86.3118 20.3919 86.652 20.2722C87.7814 19.8779 88.9393 19.5384 90.1257 19.2742C91.8054 18.8993 94.0284 18.7502 96.2388 19.8703C98.4615 20.995 99.6558 23.0759 100.125 24.6802C100.267 25.1663 99.4156 24.8246 99.5078 25.305C100.043 28.1959 98.7439 31.6026 101.619 33.0324C101.496 34.6383 101.25 36.5078 100.538 37.8053C100.078 38.6383 99.4483 37.7207 99.641 38.8154C99.6828 39.0593 100.346 38.8208 100.36 39.1842C100.417 40.7291 99.9822 42.3353 100.07 43.8585C100.09 44.1691 100.662 44.1769 100.749 44.2784C101.45 45.1312 99.8987 46.0924 99.7555 46.3294C98.6822 48.1547 98.6971 49.6146 98.3234 51.4118C98.2366 51.826 99.0803 51.484 99.0235 51.8874C98.7157 53.9942 98.2093 56.1008 97.4856 58.0364C97.3223 58.4717 96.7667 57.9344 96.6563 58.1356C96.1845 58.9968 97.343 59.4537 96.9322 60.2638C96.8464 60.4428 96.3178 60.243 96.2519 60.2672C95.7695 60.4431 95.7881 60.6792 95.9485 60.8848C96.129 61.1404 96.493 61.3662 96.4977 61.4417C96.6462 63.2206 95.103 64.1484 95.1728 65.8434C95.1842 66.0425 95.9149 65.6515 95.9057 66.2017C95.8762 68.7992 95.8964 71.4167 96.4007 73.5284C96.4802 73.8945 96.5646 74.1473 96.6156 74.3076C96.6763 74.4721 96.6642 74.5523 96.7654 74.6762C96.9037 74.8035 96.6724 75.2869 96.6518 75.3494C96.6861 75.883 96.9224 75.8237 97.0596 75.6075C97.2035 75.3927 97.2725 75.0353 97.3291 75.0067C98.1577 74.6128 99.9014 75.1026 100.012 73.2405C105.537 70.9777 110.221 65.8725 116.274 63.1541C116.351 63.117 116.638 63.7407 116.789 63.6645C118.611 62.7518 117.663 62.1639 117.963 60.3411C118.034 59.8863 119.771 60.5068 119.911 60.5434C120.422 60.6796 120.747 61.6821 120.883 61.6807C121.991 61.6423 119.892 59.0924 120.883 58.3582C120.917 58.3398 121.148 58.924 121.266 58.9113C121.636 58.874 121.752 58.4888 122.127 58.4734C122.989 58.4416 124.132 59.5898 124.473 58.1934C124.515 58.0147 123.246 56.6208 124.192 56.0528C124.569 55.8255 126.139 54.6804 126.659 54.4709C127.177 54.26 127.211 54.9693 127.258 54.9685C128.914 54.797 128.643 55.3851 129.905 55.9534C131.161 56.5235 129.429 54.3102 129.503 53.8834C129.579 53.4555 130.833 53.4137 131.178 53.4622C131.523 53.5101 131.459 54.0094 131.725 53.9905C133.476 53.8611 131.536 52.4538 131.725 51.8018C131.984 50.9124 132.74 50.9515 133.524 51.0712C134.085 51.1679 134.671 51.2983 135.111 51.1246C135.393 51.0131 134.935 50.7409 135.137 50.562C135.921 49.8715 136.813 50.0768 137.484 48.9485C137.591 48.7666 137.745 47.1894 138.751 47.6369C138.896 47.7019 138.965 48.2721 139.398 48.134C140.047 47.9281 141.125 47.3758 141.626 46.8495C142.001 46.4576 141.031 46.0642 141.735 45.9292C142.049 45.869 141.854 46.5865 142.422 46.4378C142.982 46.2943 144.15 45.5192 144.597 45.2106C145.033 44.9095 144.439 44.5214 144.451 44.4616C144.533 44.112 145.226 43.2944 145.304 43.2451C149.101 40.7041 153.233 39.3213 156.763 36.5894C157.041 36.3759 156.473 35.9306 156.511 35.8921C157.357 34.9997 157.558 37.0359 158.591 37.0883C157.732 35.9937 158.285 35.9324 158.906 35.3463C159.205 35.0624 158.727 34.7336 158.727 34.6674C158.786 33.656 159.713 34.3083 159.921 34.4296C160.689 34.8747 160.54 33.8537 161.057 34.149C161.571 34.4409 161.474 35.4345 162.145 34.9845C162.064 34.4452 160.853 33.6875 161.251 33.1761C162.755 31.245 166.929 29.732 168.544 28.8024C170.161 27.872 170.606 27.4722 171.615 27.0268C173.431 26.2282 172.299 25.8181 173.08 24.7825C173.86 23.7474 174.657 26.0537 175.082 26.3841C175.504 26.7163 175.374 26.1756 175.705 26.2934C176.036 26.4117 175.841 26.9522 176.315 26.7678C176.795 26.5797 177.45 25.0729 177.306 24.5314C177.006 23.3816 175.835 22.7322 177.182 22.3511C177.259 22.33 177.391 22.9871 177.671 22.8798C179.87 22.0191 181.918 20.7227 184.092 19.8197C184.393 19.6958 184.529 20.4322 184.708 20.3668C186.559 19.6966 185.357 19.0836 185.543 17.4198C186.284 18.996 187.331 19.5757 188.58 18.7832C189.325 18.3117 188.789 17.7607 188.975 17.0093C189.034 16.7811 189.844 16.8758 189.747 16.517C189.435 15.3408 188.244 14.5629 189.789 14.1872C189.859 14.1715 190.02 14.8217 190.237 14.7283C191.632 14.1353 191.123 13.022 192.4 12.0378C192.843 11.6944 193.601 11.3637 194.355 11.0828C195.3 10.7176 196.272 10.4018 196.975 10.0412C197.968 11.7083 198.894 10.6092 198.645 9.19085C199.472 8.74389 200.292 8.15247 201.147 7.84872C201.438 7.74547 201.561 8.32861 201.624 8.36094C202.644 8.85535 202.306 7.53994 202.448 7.3949C204.077 5.83721 206.09 5.79467 207.45 3.94041C207.498 3.87475 206.973 2.62325 207.929 3.22525C207.997 3.26594 207.672 4.13676 208.573 3.70618C209.488 3.27557 211.408 3.07858 212.572 2.009C212.803 1.76108 213.589 0.366423 214.601 1.15137C214.718 1.25884 214.633 1.65229 214.795 1.85704C215.024 2.15712 215.173 2.04119 215.336 1.93425C215.53 1.8076 215.769 1.69945 215.998 2.34894C216.466 3.55864 216.95 4.47761 218.394 4.21695C218.432 4.20859 219.149 3.33557 219.548 3.55404C220.166 3.88882 220.888 4.59613 221.461 4.99785C221.743 5.19415 221.956 4.52223 222.012 4.54713C224.171 5.67289 224.993 7.31506 226.455 9.31168C226.714 9.66765 228.285 10.0927 228.267 11.2303C228.244 12.4776 225.082 13.7543 226.972 14.9419C227.72 15.4173 231.796 13.9178 230.916 16.4716C233.101 18.7415 233.643 21.7576 235.84 24.0621C235.938 24.1658 237.171 23.9765 237.319 24.2732C237.537 24.714 237.192 25.2156 237.329 25.538C237.89 26.8935 238.934 27.8564 239.524 29.1444C239.748 29.6306 239.16 29.721 239.427 30.3063C239.693 30.892 240.54 30.9187 240.615 31.8646C240.667 32.5748 239.595 33.8241 239.817 34.6775C241.175 34.051 241.404 34.5844 242.223 35.3762C242.38 35.5258 242.755 35.1042 242.854 35.1635C243.265 35.4007 243.028 35.9059 243.456 36.1255C243.559 36.1782 244.022 35.9632 244.132 35.994C245.083 36.2429 244.485 37.6786 244.378 37.9239C243.972 38.8538 244.713 38.8751 244.659 39.4763C244.602 40.0718 243.942 39.5245 244.026 40.1473C244.152 41.053 244.554 42.0434 244.936 42.926C245.117 43.3465 245.319 43.7406 245.506 44.1012C245.755 44.5691 246.177 43.9207 246.227 43.9802C246.89 44.8161 246.857 46.0958 248.318 45.8807C245.958 48.1261 248.395 46.5759 249.002 47.5666C249.062 47.667 249.102 47.7931 249.112 47.9498C249.121 48.0882 247.719 48.9837 247.301 48.7244C247.245 48.6899 247.2 48.6458 247.16 48.5945C246.907 48.2627 246.912 47.5962 246.348 47.3097C246.196 47.2325 244.423 47.3317 244.276 47.2725C243.138 46.8359 245.188 45.4147 245.284 45.311C246.261 44.0895 244.284 43.9304 244.037 43.6549C243.959 43.5777 243.887 43.4983 243.818 43.4167C243.018 42.5543 242.849 41.5096 242.129 40.7793C241.623 40.2622 240.107 40.8556 239.936 40.3658C239.33 38.6725 241.113 37.1413 238.61 36.4762C238.073 36.3305 236.635 37.4314 237.328 35.6695C237.372 35.5592 238.091 34.1294 237.122 34C237 33.9837 236.538 34.2176 236.458 34.1556C235.931 33.7324 236.117 33.1865 235.638 32.6855C235.157 32.1796 234.533 31.6159 234.335 30.8635C234.213 30.408 234.792 29.4439 234.895 29.1373C235.2 28.2677 233.902 28.2161 234.44 27.4862C234.977 26.7459 236.45 26.8105 236.419 25.6494C235.224 26.2688 233.975 26.8636 232.765 27.4694C231.736 25.5254 231.018 23.4364 229.804 21.6078C229.653 21.3823 229.187 22.0009 229.01 21.7709C228.267 20.8064 228.119 19.6352 227.24 18.7103C226.562 18.0037 225.328 17.587 224.59 16.921C225.466 15.5151 224.143 14.6543 223.585 13.7755C223.384 13.4615 223.713 13.215 223.644 12.9281C223.372 11.859 222.656 13.111 222.32 13.0524C220.897 12.8456 223.086 10.6664 222.048 9.75532C221.992 9.70192 220.245 10.3199 220.11 10.3422C219.157 10.3959 220.406 9.83989 220.144 9.45718C219.672 8.77545 219.433 8.09766 218.447 8.03735C218.133 8.00676 217.202 8.64559 217.189 7.77047C217.184 7.65411 217.438 7.17403 217.41 7.12601C216.836 6.30187 216.234 7.93241 215.853 8.42449C215.554 8.84419 215.5 8.11048 215.353 7.65397C215.297 7.56062 215.264 7.47913 215.244 7.42175C215.078 6.86169 215.157 6.86386 215.35 6.91689C215.41 6.94633 215.464 6.99225 215.47 6.96185C215.594 6.35771 215.52 6.1659 215.348 6.09805C215.172 6.05246 215.044 6.06601 214.945 6.04158C214.759 4.36899 214.126 4.59402 214.663 6.00392C214.718 6.15624 214.888 5.96842 214.945 6.04158C214.938 7.70123 215.02 7.86674 213.596 6.78826C212.94 6.29268 212.976 5.3391 211.877 6.19909C211.374 6.60123 212.104 7.52323 211.766 8.04783C210.991 9.25036 209.016 9.1289 207.91 9.96659C207.519 10.2649 208.245 10.5712 207.992 10.7923C207.301 11.3933 206.383 11.3887 205.737 12.058C205.678 12.1203 206.191 12.581 205.951 12.7351C204.162 13.9002 202.363 14.5122 200.45 15.6897C199.852 16.0583 199.066 16.7239 198.279 17.3223C197.862 17.6433 197.445 17.942 197.083 18.1398C195.377 19.0732 192.831 19.5632 191.544 20.667C190.711 21.3791 191.27 21.8041 191.12 22.4348C190.821 23.663 188.653 23.2058 188.333 23.1256C188.324 23.1218 189.031 22.4799 188.425 22.4683C187.796 22.0346 188.34 23.1173 188.333 23.1256C188.118 23.0785 186.481 23.9592 186.226 24.2749C186.092 24.444 186.528 24.906 186.451 24.9843C184.655 26.8152 182.634 28.3197 180.337 29.4682C180.293 29.4821 179.968 28.8599 179.868 28.8997C178.462 29.4453 178.139 30.6772 177.396 31.7686C176.651 32.8607 175.755 33.2429 174.492 32.6352C173.808 33.2625 172.411 33.5415 171.601 33.6867C170.791 33.8318 171.446 35.0287 171.405 35.0877C170.131 36.9485 168.698 36.9549 166.823 38.0356C165.929 38.5478 164.332 39.8266 163.479 40.5607C162.807 41.1425 162.193 41.1627 161.622 41.7781C161.545 41.8609 161.969 42.3076 161.953 42.3455C161.59 43.4473 161.146 41.969 160.845 41.8496C159.753 41.4137 159.125 41.2115 158.398 42.2245C158.23 42.4576 158.743 44.6677 158.402 45.0382C157.955 45.5179 157.739 44.7465 157.283 45.2638C157.244 45.3074 157.51 45.6965 157.156 45.902C155.513 46.862 153.618 47.7638 151.987 48.8745C151.761 49.0259 152.459 49.4649 152.14 49.6939C150.651 50.7612 148.945 51.827 147.247 52.5C146.831 52.6615 146.779 52.0727 146.615 51.993C145.621 51.5131 145.644 53.1207 145.545 53.2146C143.152 55.5162 140.386 55.8316 137.873 58.0576C137.856 58.0723 137.84 58.087 137.824 58.1019C137.691 58.2235 137.366 60.161 136.193 59.4249C136.115 59.3753 134.917 58.6187 134.963 59.6408C134.967 59.7043 135.635 60.0567 135.066 60.3508C134.497 60.645 133.889 61.5846 132.752 61.4812C132.396 61.4473 131.113 60.772 131.009 62.0921C131.001 62.1833 131.281 64.8122 129.981 63.7817C129.768 63.6113 128.849 62.1916 128.537 63.4816C128.479 63.73 128.982 63.831 128.708 64.3184C128.286 65.0699 127.198 65.3035 126.866 66.4838C126.809 66.6911 126.924 68.0314 125.949 67.6738C125.795 67.6186 125.596 67.0643 125.314 67.1959C123.976 67.8171 122.998 69.0291 121.585 69.6144C121.084 69.8237 120.746 68.9365 120.163 69.0733C119.589 69.2044 118.553 69.6998 118.354 70.3756C118.15 71.0549 119.537 71.8227 118.913 72.4449C116.208 75.1341 112.71 76.7593 109.231 78.9412C108.711 79.263 109.441 79.4073 108.664 79.9241C107.233 80.8481 105.333 82.2553 102.47 83.3664C101.004 83.9008 99.2375 84.4317 96.8041 84.271C94.3797 84.1945 91.3774 82.5979 90.2489 80.9627C89.2537 79.6335 89.2789 79.1019 89.3103 78.8364C89.3785 78.5842 89.6357 78.6605 89.8983 78.7573C90.4538 78.9535 90.892 79.2378 90.1388 77.7082C89.8757 77.0994 89.4015 76.6847 88.8901 76.2649C88.2727 75.8728 87.6008 75.5732 87.5274 75.4286C86.2844 72.9267 86.9195 71.1486 86.6212 69.1554C86.5651 68.7386 85.8887 69.1619 85.85 68.8036C85.7148 67.5692 86.0708 66.3442 86.093 65.2554C86.1024 64.7668 85.5749 64.8139 85.6531 64.3694C85.8375 63.3086 86.1631 62.4125 86.7795 61.4933C86.8356 61.411 87.3996 62.0953 87.5229 61.3597C87.6143 60.817 87.8111 60.2343 87.9736 59.6323C88.1702 58.8947 88.3269 58.1308 88.1995 57.3426C88.1252 56.9296 86.9519 56.7011 87.9278 56.0075C88.1325 55.8608 89.492 56.3722 88.4667 55.1781C88.2982 54.967 86.9827 53.0427 88.1914 52.5057C88.5093 52.3649 89.7685 52.0601 89.6749 51.5925C89.6582 51.5268 88.9811 51.6394 88.9936 51.2614C89.0532 49.9088 89.3843 48.5939 89.4375 47.2363C89.4498 46.8759 88.6997 47.271 88.7376 46.7429C88.8428 45.2831 89.3205 43.5508 89.7418 42.2128C89.8985 41.7193 90.3865 42.1539 90.4514 42.1266C91.5066 41.6799 90.2594 41.1312 90.2121 40.9273C89.9352 39.649 90.6655 38.8143 90.6234 37.7055C90.613 37.3971 89.967 37.5457 89.918 37.4795C89.4397 36.8068 90.511 37.3817 90.6738 37.0026C91.1314 35.9511 91.1692 34.719 91.1194 33.6895C91.0998 33.3046 90.3624 33.7141 90.3521 33.3741C90.2925 31.4252 90.1338 29.4995 90.2917 28.8767C90.3343 28.7727 90.8725 28.6149 90.9843 28.5499C91.3699 28.309 91.2527 28.2588 91.0773 28.3723C90.8975 28.4787 90.6776 28.7496 90.6588 28.8187C90.5678 29.136 90.7556 29.3378 90.9823 29.4517C91.2145 29.5697 91.4873 29.6223 91.781 29.791C92.1573 30.008 92.517 30.0917 92.6619 30.1266C92.8266 30.1627 92.8201 30.1688 92.6889 30.2159C90.0911 30.9014 87.096 31.8283 84.6486 32.8125C80.3625 34.5533 76.8322 36.0604 73.0022 38.7602C72.7601 38.9316 73.4218 39.3842 73.2192 39.5396C71.9491 40.4942 70.6368 41.3812 69.3301 42.2929C67.8645 43.3169 66.3571 44.3584 64.9307 45.5004C64.7023 45.6814 65.4531 46.0151 65.0971 46.3269C64.3783 46.9645 63.3643 47.6283 62.4512 47.9906C61.9987 48.1739 62.1769 47.3118 61.7275 47.5071C60.704 47.944 59.698 48.5806 58.8385 49.3112C58.4663 49.6283 59.4812 49.8045 58.9636 50.1716C55.5131 52.6374 52.1055 55.0964 48.0141 56.6976C47.7341 56.8069 46.6975 55.7358 46.3374 56.3121C46.5235 56.6769 46.7901 57.0743 47.0135 57.448C41.9737 61.0708 36.5634 63.9617 31.2467 67.199C31.0239 67.3348 31.8186 67.7538 31.3888 68.0202C28.8867 69.5716 26.5723 71.2509 23.5946 72.152C23.3004 72.2417 22.7244 70.9936 22.0798 71.6241C21.9675 71.7363 20.9249 72.576 20.7852 73.0048C20.7683 73.0671 21.3032 73.4903 20.9467 73.7253C18.8648 75.0837 16.547 76.2794 14.2048 77.1837C13.8261 77.3285 13.8552 76.5272 13.5828 76.6251C11.6564 77.3219 9.99954 78.8582 8.01392 79.2624C6.68282 79.5304 6.52873 78.2713 5.37063 77.5929C5.20717 77.4974 4.49961 77.8594 4.13892 77.2902C3.23043 75.8603 2.66897 74.0553 1.66069 72.5532C1.44418 72.2297 0.730184 73.1001 0.819749 71.9799C0.82739 71.9042 1.33986 71.2656 1.34849 70.8967C1.35524 70.6414 0.819601 70.1565 0.914033 69.7821C1.00825 69.408 1.54065 69.7681 1.76248 69.2654C1.98151 68.7593 1.43503 68.1741 2.14986 67.6677ZM167.954 34.3517C167.009 34.1893 168.231 36.249 168.554 35.3539C168.568 35.3082 168.002 34.3587 167.954 34.3517ZM232.557 22.5335C232.995 21.2121 231.347 21.4992 230.981 22.4612C230.609 23.4165 232.422 22.932 232.557 22.5335ZM237.794 30.3699C238.04 29.042 234.961 30.4767 236.089 31.154C236.153 31.1937 237.78 30.4469 237.794 30.3699ZM7.9686 75.7611C7.94451 75.7383 7.43223 75.9916 7.43576 76.0256C7.54341 76.8373 8.56938 76.3294 7.9686 75.7611ZM242.691 38.437C242.962 37.9309 242.077 37.295 241.736 37.9094C241.456 38.3919 242.352 39.0606 242.691 38.437ZM135.756 52.0989C135.727 52.0749 135.363 52.2647 135.477 52.4311C135.844 52.9675 136.232 52.5086 135.756 52.0989ZM249.88 52.7166C249.127 50.5263 251.035 47.9951 251.825 50.5763C251.959 51.0373 250.598 49.9801 250.605 50.6384C250.612 51.823 252.512 51.8416 252.052 53.2278C251.966 53.4784 249.918 52.8429 249.875 52.7142C249.877 52.715 249.879 52.7158 249.88 52.7166ZM166.043 32.1673C166.014 32.1485 165.525 32.432 165.531 32.4657C165.691 33.2688 166.676 32.6979 166.043 32.1673ZM115.472 64.5887C115.403 64.5558 114.325 65.2997 114.332 65.3729C114.543 66.7742 116.723 65.2749 115.472 64.5887ZM197.021 10.0733C197.118 9.11218 197.736 8.62308 198.642 9.19147C198.111 9.45982 197.548 9.80043 197.021 10.0733Z" fill="#F3B828"/>
</svg>
