<svg width="168" height="113" viewBox="0 0 168 113" fill="none" xmlns="http://www.w3.org/2000/svg">
<path d="M15.227 2.89055C15.5333 4.29003 15.4327 6.05493 15.2257 7.48512C15.162 7.93534 14.7233 7.74027 14.6602 8.05156C14.5372 8.65962 14.7831 9.19649 14.6276 9.79034C14.574 9.98717 13.8872 9.79472 13.8463 9.99994C13.6273 11.128 13.8683 12.1238 13.8034 13.2459C13.4874 18.8397 13.6137 24.2622 13.6992 29.8277C13.7327 31.7304 13.2747 33.8972 13.68 35.8407C13.7274 36.0606 14.3061 35.8864 14.3576 35.9252C15.1466 36.533 13.9437 36.3976 13.8163 36.8368C13.3097 38.5161 13.4005 40.5489 13.7409 42.1115C13.8885 42.7913 15.0056 41.9978 14.402 42.7694C14.3613 42.823 13.7237 42.6851 13.6713 42.8874C13.5538 43.3476 13.7257 44.1758 13.7005 44.5155C13.6489 45.1715 13.6628 45.277 13.6994 45.8798C13.7424 46.6836 13.5101 47.7804 13.7161 48.653C13.7621 48.8416 14.3838 48.5423 14.515 48.8383C14.6464 49.141 14.6486 49.915 14.5194 50.221C14.3892 50.5146 13.8772 50.4312 13.7656 50.4896C12.8226 50.9742 14.2406 51.8213 14.2827 51.9372C15.0111 54.06 14.3843 55.9998 14.5486 58.1203C14.6685 59.646 15.0559 61.3498 15.1395 62.84C15.2374 64.6243 15.0125 66.148 15.2189 67.8814C15.2399 68.0645 15.9737 67.7861 16.001 68.0088C16.2885 70.3576 16.4137 72.6904 16.1387 75.0797C16.111 75.3236 15.421 75.0816 15.3539 75.329C14.95 76.7934 13.9035 79.2425 16.872 79.7463C16.8717 80.6997 16.9088 81.8976 16.4505 82.8139C16.1586 83.4244 15.3672 82.9877 15.7696 83.623C15.8596 83.7646 16.4565 83.4774 16.544 83.6949C16.9143 84.6272 16.8767 85.6956 17.3619 86.5918C17.4618 86.7722 18.0109 86.6233 18.1208 86.6604C19.0127 86.9738 17.8048 87.9714 17.7383 88.1582C17.6693 88.3533 17.6191 88.5391 17.5845 88.7179C17.3561 89.7394 17.744 90.4572 17.9931 91.359C18.061 91.6012 18.7048 91.1008 18.795 91.3191C19.255 92.4495 19.6436 93.58 19.8845 94.7017C19.9384 94.9533 19.2625 95.0751 19.2622 95.2159C19.2846 95.8482 20.3806 95.2881 20.4246 95.8112C20.4374 95.9214 19.9567 96.2034 19.9181 96.254C19.3348 97.0783 20.5721 96.4478 20.63 96.4694C21.0689 96.6715 21.1057 97.0574 21.1771 97.4779C21.2398 97.8894 21.3636 98.3401 21.7101 98.3848C21.775 98.3885 21.9023 97.8414 22.0397 97.7411L20.5137 97.5558C20.541 97.5325 20.5782 97.5147 20.6288 97.504C23.5038 96.9294 26.2976 96.9814 28.98 97.404C29.4068 97.47 29.13 98.0112 29.1597 98.0749C29.6291 99.0693 29.8265 97.6983 29.9623 97.641C31.0139 97.225 32.0352 98.3295 32.694 96.6851C37.202 97.0956 41.6095 96.1268 46.0613 97.5653C46.1164 97.582 46.0197 98.2525 46.1296 98.2829C47.4626 98.6563 47.2114 97.6154 48.1165 96.3413C48.336 96.0213 49.0124 97.5606 49.0731 97.6736C49.2923 98.0895 49.062 99.0862 49.1355 99.1668C49.7433 99.8002 49.6571 96.502 50.4905 96.5042C50.5158 96.5098 50.4072 97.1163 50.4747 97.1769C50.6844 97.3673 50.8955 97.1271 51.103 97.3371C51.5794 97.8231 51.7379 99.4263 52.489 98.4988C52.5795 98.3785 52.4694 96.5068 53.1891 96.6008C53.4741 96.6396 54.7751 96.6195 55.149 96.745C55.519 96.8701 55.2575 97.4701 55.2837 97.4965C56.2413 98.3043 55.87 98.6306 56.3419 99.8164C56.8148 100.998 56.7153 98.1925 56.9196 97.8821C57.1233 97.5725 57.8437 98.2401 58.0189 98.4713C58.1882 98.7025 57.9675 99.0824 58.1191 99.214C59.1281 100.075 58.5887 97.8289 58.9341 97.389C59.749 96.3475 60.3728 98.4378 61.0952 98.6544C61.291 98.7129 61.1387 98.2365 61.3151 98.1954C62.0155 98.0389 62.4258 98.6956 63.2503 98.117C63.3901 98.0228 64.0588 96.7859 64.4538 97.7122C64.5099 97.8457 64.3313 98.3602 64.6268 98.4827C65.0676 98.6664 65.8763 98.7978 66.3714 98.6361C66.7352 98.5165 66.3461 97.6532 66.7872 97.9289C66.9801 98.052 66.6054 98.5427 66.9689 98.7323C67.3294 98.9216 68.2762 98.9231 68.6422 98.9153C69.0063 98.907 68.8239 98.2544 68.8544 98.2115C69.038 97.9661 69.7511 97.6724 69.8139 97.6749C70.9017 97.6755 71.9763 97.8276 73.0565 98.0111C73.0713 98.0106 73.1153 98.0147 73.13 98.0148C74.9988 98.4204 76.8598 98.931 78.7905 98.8542C79.0288 98.846 78.9266 98.1525 78.9636 98.1442C79.7981 97.9249 79.0108 99.6828 79.5287 100.335C79.56 98.9469 79.8755 99.2244 80.4501 99.1195C80.7287 99.0681 80.6249 98.5209 80.6543 98.4682C81.1268 97.6895 81.3233 98.7628 81.378 98.9835C81.5811 99.7957 81.9551 98.8879 82.0953 99.4314C82.2339 99.9707 81.7494 100.711 82.2906 100.748C82.4842 100.266 82.1939 98.9401 82.6219 98.7658C84.2427 98.1057 87.0918 99.3815 88.3168 99.6009C89.5622 99.8212 89.9746 99.768 90.6832 100.014C91.9691 100.461 91.58 99.458 92.4416 99.0973C93.2973 98.7364 92.6773 101.055 92.7459 101.573C92.8126 102.09 92.988 101.581 93.1048 101.873C93.2211 102.165 92.8787 102.48 93.2049 102.616C93.5303 102.753 94.5434 101.941 94.7162 101.424C95.0775 100.326 94.7766 99.1083 95.6244 99.6082C95.6731 99.6378 95.4471 100.241 95.6367 100.323C97.1539 100.952 98.7623 101.14 100.29 101.719C100.497 101.799 100.238 102.469 100.357 102.524C101.604 103.094 101.259 101.886 102.102 100.668C101.768 102.369 102.058 103.459 103.044 103.569C103.631 103.636 103.606 102.875 104.042 102.386C104.173 102.238 104.539 102.796 104.652 102.451C105.021 101.324 104.755 99.9925 105.724 100.611C105.767 100.64 105.559 101.256 105.71 101.311C106.68 101.663 106.917 100.469 108.012 100.434C108.879 100.408 110.285 101.297 111.242 101.518C111.021 103.446 111.975 103.099 112.479 101.807C113.095 101.927 113.776 101.922 114.363 102.17C114.565 102.255 114.369 102.799 114.389 102.862C114.694 103.852 115.095 102.585 115.235 102.549C116.739 102.209 117.833 103.317 119.32 102.506C119.373 102.477 119.595 101.145 119.864 102.163C119.881 102.233 119.355 102.794 120.006 102.911C120.664 103.029 121.807 103.878 122.786 103.355C123.022 103.229 123.7 102.201 124.054 103.099C124.1 103.221 123.994 103.598 124.057 103.821C124.26 104.533 124.556 103.194 124.757 104.38C124.959 105.566 125.543 106.5 126.549 105.805C126.581 105.786 126.915 104.736 127.199 104.783C127.654 104.861 128.281 105.155 128.762 105.199C128.993 105.221 128.918 104.538 128.959 104.53C130.557 104.325 131.573 105.036 133.213 105.475C133.511 105.556 134.477 104.741 134.987 105.523C135.548 106.38 134.527 109.58 136.101 108.962C136.732 108.715 137.934 104.645 138.778 106.913C140.922 106.606 142.736 107.917 144.902 107.381C145 107.358 145.423 106.231 145.643 106.271C145.969 106.332 146.091 106.893 146.322 106.955C147.285 107.224 148.23 106.857 149.171 107.032C149.529 107.097 149.342 107.644 149.769 107.721C150.194 107.799 150.557 107.092 151.099 107.51C151.507 107.829 151.783 109.384 152.347 109.622C152.529 108.138 152.93 108.212 153.68 107.896C153.824 107.835 153.734 107.301 153.805 107.246C154.096 107.007 154.293 107.462 154.573 107.199C154.641 107.135 154.699 106.628 154.757 106.548C155.259 105.845 155.833 107.062 155.931 107.274C156.308 108.079 156.595 107.441 156.914 107.776C157.231 108.111 156.669 108.427 157.058 108.651C157.864 109.115 158.963 109.15 159.826 109.266C160.17 109.309 160.007 108.606 160.058 108.597C160.788 108.501 161.427 109.298 161.966 107.99C162.087 111.534 162.43 107.698 163.375 108.505C163.449 108.57 163.375 110.232 163.041 110.442C162.707 110.651 162.295 110.085 161.828 110.417C161.717 110.495 160.974 111.98 160.885 112.066C160.189 112.732 160.366 110.256 160.348 110.117C160.135 108.615 159.245 110.205 159.047 110.301C158.137 110.737 157.451 110.312 156.701 110.613C156.21 110.806 155.988 112.417 155.627 112.328C154.425 112.033 154.244 109.734 152.891 111.565C152.599 111.955 152.653 113.748 151.92 112.264C151.874 112.17 151.356 110.829 150.891 111.592C150.833 111.688 150.779 112.203 150.712 112.239C150.263 112.474 150.028 112.034 149.552 112.181C149.074 112.328 148.489 112.561 147.986 112.33C147.683 112.192 147.384 111.189 147.259 110.938C146.908 110.216 146.334 111.275 146.161 110.428C145.984 109.576 146.64 108.383 145.999 107.775C145.828 109.11 145.62 110.476 145.433 111.816C143.907 111.603 142.462 111.009 140.92 110.901C140.729 110.889 140.845 111.629 140.639 111.635C139.77 111.656 139.079 111.063 138.163 111.17C137.455 111.256 136.619 111.935 135.882 112.049C135.605 110.471 134.477 110.875 133.718 110.651C133.452 110.573 133.515 110.166 133.336 110.012C132.663 109.441 132.858 110.83 132.635 111.021C131.675 111.836 131.932 108.767 130.913 108.733C130.859 108.73 130.029 110.291 129.928 110.383C129.286 110.984 129.896 109.805 129.551 109.646C128.916 109.354 128.502 108.915 127.682 109.31C127.443 109.428 126.797 110.387 126.45 109.554C126.404 109.445 126.493 108.909 126.451 108.872C125.669 108.255 125.465 109.947 124.926 110.47C124.387 110.992 123.779 109.744 123.666 109.391C123.37 108.477 124.005 109.05 124.036 108.967C124.394 107.975 123.84 108.093 123.441 107.963C123.562 106.295 122.973 106.333 123.023 107.835C123.029 107.999 123.368 107.878 123.441 107.963C122.905 109.554 122.248 109.695 121.716 108.097C121.467 107.348 121.862 106.548 120.843 106.747C120.38 106.837 120.434 108 120.001 108.269C119.013 108.883 117.954 107.691 117.004 107.76C116.657 107.785 116.923 108.447 116.683 108.485C116.047 108.59 115.554 108.062 114.913 108.238C114.855 108.255 114.922 108.925 114.73 108.913C113.271 108.836 112.044 108.282 110.527 108.111C109.786 108.029 108.45 108.255 107.692 108.103C106.38 107.844 104.866 106.724 103.712 106.841C102.964 106.915 103.059 107.587 102.7 108.002C102.01 108.808 101.083 107.146 100.965 106.892C100.961 106.883 101.609 106.792 101.306 106.421C101.18 105.7 100.972 106.889 100.965 106.892C100.882 106.726 99.6509 106.452 99.3791 106.552C99.2353 106.607 99.2499 107.236 99.1761 107.253C97.4314 107.641 95.7237 107.632 94.0523 107.177C94.0231 107.162 94.1361 106.471 94.0667 106.443C93.0988 106.037 92.3859 106.828 91.529 107.257C90.6574 107.683 90.0288 107.454 89.6598 106.215C89.0412 106.308 88.1906 105.697 87.715 105.331C87.2367 104.964 87.0438 106.312 86.9968 106.335C85.5238 107.065 84.7963 106.219 83.354 105.971C82.6671 105.851 81.2989 105.931 80.5355 106.017C79.9362 106.087 79.6194 105.741 79.0574 105.899C78.9812 105.92 79.0064 106.53 78.982 106.551C78.3148 107.224 78.7276 105.772 78.6235 105.498C78.2477 104.503 78.0063 103.969 77.2041 104.36C77.0195 104.449 76.3241 106.533 75.9913 106.632C75.5572 106.757 75.7746 106.007 75.3207 106.158C75.2821 106.171 75.2537 106.641 74.9854 106.6C74.2027 106.484 73.3638 106.293 72.5487 106.158L72.8158 106.172C72.3019 106.111 71.7917 106.068 71.2939 106.072C71.1128 106.072 71.3237 106.826 71.0621 106.837C69.8518 106.892 68.4844 106.829 67.3106 106.45C67.0218 106.354 67.2169 105.835 67.1576 105.678C66.7948 104.728 66.2089 106.082 66.1119 106.106C63.8974 106.712 62.2567 105.441 60.0236 105.992C59.8984 106.025 58.9392 107.475 58.5491 106.212C58.5205 106.128 58.1397 104.837 57.7605 105.711C57.7368 105.765 57.9883 106.431 57.5339 106.357C57.0795 106.283 56.3512 106.716 55.7538 105.982C55.5666 105.75 55.1224 104.463 54.5207 105.479C54.4794 105.55 53.5613 107.853 53.2619 106.256C53.2113 105.993 53.2854 104.306 52.5857 105.166C52.4496 105.332 52.6913 105.711 52.3351 105.943C51.7902 106.302 51.0848 105.846 50.4401 106.595C50.3315 106.727 49.8243 107.871 49.4372 107.001C49.3762 106.864 49.4941 106.301 49.2875 106.238C48.3199 105.933 47.2724 106.309 46.2909 105.922C45.9423 105.786 46.1245 104.875 45.7525 104.632C45.3738 104.389 44.6268 104.158 44.2513 104.576C43.8744 104.995 44.3 106.444 43.7314 106.564C41.2411 107.087 38.7642 106.27 36.2682 106.206C35.8946 106.196 36.2135 106.708 35.6715 106.731C33.6777 106.817 30.2683 107.432 28.528 106.425C27.0945 105.618 28.7932 104.85 27.7227 104.549C27.2149 104.406 26.7543 106.126 26.6525 106.186C25.5115 106.801 24.6468 106.116 23.6486 106.439C23.4382 106.506 23.711 107.168 23.5366 107.217C22.9899 107.385 22.3256 107.178 21.9901 107.26C21.139 107.334 19.0506 107.187 18.2839 106.81C18.2316 106.789 18.1795 106.769 18.1277 106.749C17.4734 106.483 17.3613 107.007 16.8119 106.667C15.5486 105.852 14.8058 104.939 14.3593 103.829C14.3245 103.732 15.2322 103.711 14.6901 103.145C13.8122 102.21 13.3764 100.837 12.3199 100.078C12.0072 99.8541 10.9545 100.437 11.2898 99.3477C11.3643 99.1198 12.715 98.6259 11.2231 98.4339C10.977 98.4253 8.80993 97.7421 9.55541 96.6673C9.74687 96.3827 10.6819 95.5461 10.3822 95.2506C10.3368 95.2103 9.80312 95.6262 9.63619 95.3402C9.05779 94.3184 8.80061 93.1629 8.34765 92.0972C8.22532 91.8094 7.68069 92.4076 7.51916 91.9684C7.3705 91.5621 7.2593 91.111 7.18148 90.6422C7.05717 89.8773 7.03328 89.058 7.0524 88.3536C7.06461 87.9622 7.65126 88.1316 7.70551 88.0939C8.59038 87.4924 7.25115 87.4423 7.15171 87.3094C6.54915 86.4656 7.04997 85.6594 6.76661 84.8431C6.68999 84.6157 6.0939 84.8704 6.03191 84.8318C5.422 84.4207 6.58741 84.6262 6.66641 84.2991C6.89433 83.3993 6.72149 82.4664 6.53477 81.6015C6.46706 81.2979 5.7885 81.7324 5.73596 81.457C5.40741 79.7916 5.28978 78.0414 5.52867 76.4073C5.57431 76.0925 6.15009 76.2303 6.2708 76.1536C7.11416 75.6054 5.84319 75.1267 5.71289 74.984C5.12155 74.3715 5.58713 74.0388 5.44301 73.4846C4.71995 70.6693 4.75292 67.121 4.74076 64.4285C4.72277 60.9342 5.04191 58.1158 4.65916 54.8549C4.63499 54.64 3.90936 54.9129 3.87898 54.728C3.52606 52.4104 3.64652 50.0821 3.25934 47.7203C3.22868 47.5235 2.54603 47.8604 2.47313 47.5457C2.31849 46.8978 2.30189 46.1379 2.47966 45.4732C2.56529 45.1526 3.19922 45.5288 3.27306 45.2066C3.4469 44.4638 3.4367 43.6226 3.27122 42.8967C3.19924 42.5876 2.51368 43.1114 2.47615 42.705C2.20231 39.8891 1.88065 37.1185 2.60665 34.1455C2.65704 33.9487 4.10748 33.677 3.7979 33.2845C3.38986 33.2822 2.91258 33.3176 2.47784 33.3347C1.94818 29.1639 2.17125 25.0831 1.9598 20.9351C1.95052 20.7573 1.19712 21.1185 1.17519 20.7744C1.04514 18.7505 0.706088 16.9845 1.33224 14.8662C1.3934 14.6579 2.76395 14.6682 2.51588 14.082C2.46981 13.9635 2.22858 13.1238 1.91691 12.9186C1.87015 12.8913 1.24487 13.0936 1.20688 12.816C0.997355 11.2032 1.02074 9.44339 1.29211 7.73C1.33803 7.46638 2.03485 7.69526 2.07343 7.507C2.34194 6.17201 1.72575 4.75521 2.25061 3.41328C2.60428 2.51373 3.79798 2.75432 4.91859 2.20915C5.07669 2.13228 5.0646 1.58595 5.73342 1.51076C7.41519 1.321 9.28062 1.45682 11.0711 1.22334C11.4568 1.17398 10.9887 0.470158 11.9547 0.83898C12.0195 0.865198 12.3669 1.37349 12.6934 1.4811C12.9192 1.55634 13.5901 1.34582 13.8839 1.51089C14.1775 1.67586 13.6197 1.91816 13.971 2.19937C14.3263 2.47968 15.0931 2.2932 15.227 2.89055ZM85.5538 103.691C85.1406 102.998 84.8595 105.375 85.4188 104.85C85.4462 104.822 85.5752 103.725 85.5538 103.691ZM142.663 109.215C142.157 108.099 141.567 109.596 141.915 110.453C142.264 111.31 142.817 109.554 142.663 109.215ZM149.142 109.142C148.508 108.236 148.03 111.597 148.878 110.999C148.927 110.965 149.179 109.194 149.142 109.142ZM5.39581 4.32697C5.42707 4.31838 5.43126 3.93249 5.39919 3.92533C4.62687 3.77369 4.61902 4.54544 5.39581 4.32697ZM155.579 108.992C155.402 108.512 154.698 108.969 154.916 109.566C155.092 110.047 155.799 109.59 155.579 108.992ZM61.094 99.8225C61.0872 99.7867 60.8175 99.7499 60.8196 99.9515C60.8263 100.601 61.2057 100.424 61.094 99.8225ZM166.375 110.107C164.791 109.81 164.125 106.921 165.825 107.419C166.133 107.51 165.054 108.236 165.427 108.53C166.11 109.065 166.783 107.367 167.433 108.384C167.551 108.57 166.464 110.13 166.372 110.11C166.373 110.109 166.374 110.108 166.375 110.107ZM85.5375 100.804C85.5308 100.771 85.1554 100.708 85.1438 100.738C84.8722 101.477 85.6275 101.605 85.5375 100.804ZM45.0342 98.2235C45.0105 98.156 44.1288 98.0978 44.1031 98.1602C43.6526 99.4049 45.4291 99.5262 45.0342 98.2235ZM111.252 101.571C111.749 100.855 112.249 100.817 112.478 101.806C112.074 101.712 111.664 101.662 111.252 101.571Z" fill="#F3B828"/>
</svg>
