<svg width="195" height="107" viewBox="0 0 195 107" fill="none" xmlns="http://www.w3.org/2000/svg">
<mask id="mask0_40_790" style="mask-type:luminance" maskUnits="userSpaceOnUse" x="71" y="0" width="96" height="81">
<path d="M83.3111 79.8286L109.936 52.8173L119.673 62.7032L140.192 41.8864L162.223 64.2371L166.286 56.2559L165.23 34.1412L155.843 17.1254L141.496 5.9922L119.448 0L92.1252 8.34357L84.2166 14.9847L76.8313 25.8988L71.6641 39.9143V58.6494L78.4097 75.5557L82.7212 80.4101L83.3111 79.8286Z" fill="white"/>
</mask>
<g mask="url(#mask0_40_790)">
<path d="M118.667 96.6759C144.039 96.6759 164.607 75.8097 164.607 50.0699C164.607 24.3301 144.039 3.46387 118.667 3.46387C93.2946 3.46387 72.7266 24.3301 72.7266 50.0699C72.7266 75.8097 93.2946 96.6759 118.667 96.6759Z" fill="#F8F3C4"/>
<path d="M118.668 82.3393C136.236 82.3393 150.478 67.8914 150.478 50.0691C150.478 32.2467 136.236 17.7988 118.668 17.7988C101.101 17.7988 86.8594 32.2467 86.8594 50.0691C86.8594 67.8914 101.101 82.3393 118.668 82.3393Z" fill="#F1E794"/>
<path d="M118.658 70.8613C129.977 70.8613 139.153 61.5527 139.153 50.0698C139.153 38.587 129.977 29.2783 118.658 29.2783C107.34 29.2783 98.1641 38.587 98.1641 50.0698C98.1641 61.5527 107.34 70.8613 118.658 70.8613Z" fill="#EDD96B"/>
<path d="M118.663 60.8233C124.517 60.8233 129.263 56.0086 129.263 50.0694C129.263 44.1301 124.517 39.3154 118.663 39.3154C112.808 39.3154 108.062 44.1301 108.062 50.0694C108.062 56.0086 112.808 60.8233 118.663 60.8233Z" fill="#EED64C"/>
</g>
<path d="M46.0082 97.7213C42.785 97.7213 40.1847 97.5106 39.9688 97.4937L40.1017 95.8166C40.2014 95.825 50.4693 96.6425 55.5535 95.0243C60.1807 93.5495 59.9813 89.3693 59.9813 89.3271C60.1059 85.661 55.6615 83.4698 51.3582 81.3544C49.2066 80.2925 46.9802 79.1968 45.3021 77.9074C40.218 73.9969 40.3426 69.4795 40.3841 68.9149C40.326 61.7596 45.6261 58.1862 48.7995 56.6861C50.569 55.8433 52.5213 55.4219 54.5898 55.4219H66.5857V57.1074H54.5981C52.7705 57.1074 51.0592 57.4783 49.5057 58.2115C46.0747 59.8381 41.9875 63.0154 42.0539 68.9317V68.9739V69.016C42.0373 69.1761 41.7715 73.0614 46.3156 76.5589C47.8608 77.7472 49.9127 78.7586 52.0893 79.8289C56.866 82.1803 61.8173 84.6159 61.6428 89.3018C61.6428 89.3018 61.892 94.7715 56.0519 96.6256C53.3271 97.4937 49.3312 97.7213 46.0082 97.7213Z" fill="black"/>
<path d="M52.2505 101.834H40.0469V100.148H52.2505C54.1695 100.148 55.939 99.8703 57.5091 99.3309C57.8331 99.2213 58.1487 99.0949 58.4478 98.9685C62.452 97.3082 65.0356 93.3471 65.0356 88.8972V86.116C65.0356 85.0626 64.7614 84.1018 64.2381 83.3264C62.2028 80.3345 57.3263 77.882 53.7624 76.0785C51.9099 75.1514 50.3148 74.3423 49.4176 73.6344C46.2027 71.0892 46.4768 68.0383 46.4934 67.9035C46.6014 65.9145 47.2577 64.1699 48.4208 62.7625C49.6253 61.3129 51.428 60.4785 53.3637 60.4785H66.6057V62.1641H53.3637C51.9182 62.1641 50.5724 62.7793 49.6835 63.8412C48.753 64.9621 48.2297 66.3696 48.1383 68.0299C48.13 68.1563 47.9722 70.3475 50.4311 72.2944C51.1954 72.9012 52.724 73.6681 54.4852 74.5615C58.4229 76.542 63.316 79.0114 65.5922 82.3572C66.3066 83.4107 66.6888 84.7086 66.6888 86.0992V88.8804C66.6888 94.0214 63.6981 98.5893 59.0709 100.511C58.7386 100.646 58.3897 100.781 58.0324 100.907C56.2962 101.522 54.3439 101.834 52.2505 101.834Z" fill="black"/>
<path d="M174.329 97.7213C171.105 97.7213 168.505 97.5106 168.289 97.4937L168.422 95.8166C168.522 95.825 178.79 96.6425 183.874 95.0243C188.501 93.5495 188.302 89.3693 188.302 89.3271C188.426 85.661 183.982 83.4698 179.679 81.3544C177.527 80.2925 175.301 79.1968 173.622 77.9074C168.538 73.9969 168.663 69.4795 168.704 68.9149C168.646 61.7596 173.946 58.1862 177.12 56.6861C178.889 55.8433 180.842 55.4219 182.91 55.4219H194.906V57.1074H182.91C181.082 57.1074 179.371 57.4783 177.818 58.2115C174.387 59.8381 170.299 63.0154 170.366 68.9317V68.9739V69.016C170.349 69.1761 170.083 73.0614 174.628 76.5589C176.173 77.7472 178.225 78.7586 180.401 79.8289C185.178 82.1803 190.129 84.6159 189.955 89.3018C189.955 89.3018 190.204 94.7715 184.364 96.6256C181.639 97.4937 177.652 97.7213 174.329 97.7213Z" fill="black"/>
<path d="M180.555 101.833H168.352V100.148H180.555C182.474 100.148 184.244 99.8697 185.814 99.3303C186.138 99.2207 186.453 99.0943 186.753 98.9763C190.757 97.316 193.34 93.3549 193.34 88.905V86.1239C193.34 85.0704 193.066 84.1096 192.543 83.3342C190.507 80.3423 185.631 77.8898 182.067 76.0863C180.215 75.1592 178.62 74.3501 177.722 73.6422C174.507 71.097 174.782 68.0461 174.798 67.9113C174.906 65.9223 175.554 64.1777 176.725 62.7703C177.93 61.3207 179.733 60.4863 181.668 60.4863H194.91V62.1719H181.668C180.223 62.1719 178.877 62.7871 177.988 63.849C177.058 64.9699 176.534 66.3774 176.443 68.0377C176.435 68.1641 176.277 70.3553 178.736 72.3022C179.5 72.909 181.029 73.6759 182.79 74.5693C186.728 76.5498 191.621 79.0192 193.897 82.365C194.611 83.4185 194.993 84.7164 194.993 86.107V88.8882C194.993 94.0292 192.003 98.5971 187.376 100.519C187.043 100.653 186.703 100.788 186.337 100.915C184.609 101.522 182.657 101.833 180.555 101.833Z" fill="black"/>
<path d="M1.66148 100.747H0V56.5088H17.1714C18.3594 56.5088 19.4809 56.7111 20.511 57.0987C23.4934 58.2281 28.5277 61.2537 28.7686 68.7797C29.0261 76.9463 23.6097 80.368 21.159 81.5058L36.3034 97.9317L35.0905 99.0863L19.2898 81.9356C19.0572 81.6828 18.9658 81.3288 19.0489 80.9917C19.132 80.663 19.3729 80.3933 19.6886 80.2838C20.9762 79.8287 27.3812 77.1317 27.1154 68.8303C26.8994 62.2819 22.5297 59.6608 19.9378 58.6747C19.0904 58.3545 18.1683 58.1944 17.1797 58.1944H1.66148V100.747Z" fill="black"/>
<path d="M29.7841 101.539L11.5825 80.2672L12.7539 79.652C18.5524 76.6095 21.46 75.0841 21.5514 69.5133C21.5846 67.7181 21.0945 66.1927 20.0893 64.9959C18.785 63.4284 16.8826 62.4254 15.2461 62.4254H7.13805V100.755H5.47656V60.7314H15.2544C17.8048 60.7314 20.081 62.3665 21.3603 63.9003C22.6314 65.4173 23.2544 67.3136 23.2129 69.5386C23.1049 75.8426 19.5992 77.9411 14.2243 80.7729L31.0468 100.435L29.7841 101.539Z" fill="black"/>
<path d="M69.9062 106.31L110.413 65.2155L119.801 73.8878L139.315 52.3799L157.034 70.0362C157.043 70.0362 117.591 72.1685 69.9062 106.31Z" fill="#3C6031"/>
<path d="M70.3993 107.001L69.3359 105.719L110.399 64.0522L119.762 72.6992L139.301 51.166L158.981 70.7776L157.095 70.8788C156.705 70.8956 117.311 73.4155 70.3993 107.001ZM110.458 66.3783L76.6963 100.629C115.151 75.2022 147.359 70.2298 155.193 69.3617L139.359 53.5848L119.862 75.0758L110.458 66.3783Z" fill="black"/>
</svg>
