<svg width="60" height="60" viewBox="0 0 60 60" fill="none" xmlns="http://www.w3.org/2000/svg">
<path d="M9.19104 16.875C9.19104 11.2929 11.8147 7.10701 16.1811 4.38446C20.4732 1.70823 26.3932 0.46875 33.0973 0.46875C37.9001 0.468754 43.3933 1.27745 47.7201 4.24255C52.143 7.27354 55.1285 12.4056 55.1285 20.5316C55.1285 28.6252 52.1792 34.9743 49.3149 39.9271C48.6003 41.1629 47.8862 42.318 47.2285 43.3841C46.566 44.4579 45.9656 45.4319 45.4542 46.3376C44.3987 48.2066 43.8785 49.5304 43.8785 50.5316C43.8787 51.934 44.623 53.5199 45.5201 54.8767C45.9519 55.5298 46.3862 56.0809 46.7121 56.4679C46.8742 56.6604 47.0082 56.8103 47.0994 56.9101C47.1449 56.9599 47.1797 56.9974 47.2019 57.0209C47.213 57.0326 47.2211 57.0408 47.2257 57.0456C47.2271 57.047 47.2277 57.0485 47.2285 57.0493C47.6234 57.4541 47.7374 58.0561 47.5178 58.5773C47.2981 59.0985 46.7879 59.4379 46.2223 59.4379H19.9723C19.4769 59.4379 19.0184 59.1767 18.7647 58.7512C18.5112 58.326 18.4994 57.7989 18.7345 57.3633L18.7354 57.3624C18.7359 57.3615 18.737 57.36 18.7382 57.3578C18.7408 57.3529 18.7452 57.345 18.751 57.334C18.7628 57.3118 18.7806 57.2769 18.8041 57.2314C18.8511 57.1406 18.92 57.0059 19.0027 56.8369C19.1689 56.4975 19.3897 56.0246 19.6097 55.491C20.0754 54.3618 20.4409 53.1821 20.441 52.4066C20.441 51.8669 20.4345 51.4223 20.3989 51.0425C20.3629 50.6582 20.3036 50.4248 20.2433 50.2872C20.1949 50.1768 20.1617 50.1601 20.1472 50.1517C20.1137 50.132 19.9702 50.0629 19.5969 50.0629H15.1914C13.9503 50.0629 12.9001 49.7655 12.1427 49.0466C11.3971 48.3389 11.1649 47.4366 11.077 46.7487C11.0324 46.3987 11.0198 46.0564 11.0129 45.769C11.0055 45.4557 11.0046 45.2383 10.9919 45.0201C10.9838 44.8827 10.9709 44.7919 10.9608 44.7336C10.0735 43.9034 10.0154 42.9185 9.99213 42.4356C9.53667 42.2044 9.1773 41.8454 8.96399 41.3672C8.73679 40.8577 8.73285 40.3395 8.74701 40.0067C8.75996 39.7024 8.81323 39.2611 8.83032 39.061C8.85387 38.785 8.85323 38.6012 8.83215 38.4641C8.82911 38.4443 8.82405 38.4261 8.82117 38.4091C8.75331 38.3895 8.66275 38.364 8.54193 38.3331C8.24948 38.2583 7.82198 38.1558 7.30505 38.0081C5.97516 37.6281 4.98354 36.7722 4.8194 35.4868C4.68102 34.4028 5.20193 33.4394 5.78894 32.8226C7.40637 30.8496 8.56687 28.5442 9.19104 26.0715V16.875ZM12.0035 26.25C12.0035 26.3616 11.9905 26.4729 11.9642 26.5814C11.2463 29.5388 9.86736 32.2958 7.93219 34.6445C7.90359 34.6792 7.87335 34.7125 7.84155 34.7443C7.74559 34.8402 7.67742 34.9452 7.64014 35.0327C7.62829 35.0605 7.62246 35.0829 7.61816 35.0995C7.67068 35.1412 7.80245 35.225 8.07776 35.3036C8.54474 35.4371 8.90226 35.5222 9.23956 35.6085C9.53714 35.6846 9.90951 35.7822 10.2375 35.9409C10.6277 36.1297 10.99 36.4186 11.2473 36.8719C11.4694 37.2632 11.558 37.6874 11.6117 38.0365C11.6843 38.5086 11.661 38.958 11.6318 39.2999C11.5997 39.6765 11.5749 39.8454 11.5623 40.0552C12.0141 40.2799 12.3722 40.6308 12.5812 41.1108C12.7817 41.5715 12.7897 42.0627 12.7982 42.2342C12.8211 42.6924 12.8464 42.6536 12.9035 42.7011C13.3225 43.0503 13.532 43.4909 13.6414 43.8547C13.7479 44.209 13.783 44.5687 13.7998 44.8563C13.8163 45.139 13.8188 45.4627 13.8245 45.7022C13.8309 45.9678 13.8419 46.1917 13.8676 46.3925C13.9204 46.8059 14.0161 46.9471 14.079 47.0068C14.1306 47.0557 14.371 47.2504 15.1914 47.2504H19.5969C20.3017 47.2504 20.9793 47.3799 21.5699 47.7264C22.1794 48.0841 22.5745 48.6008 22.8187 49.1574C23.2531 50.148 23.2535 51.4086 23.2535 52.4066C23.2534 53.7871 22.6815 55.4193 22.2098 56.5631C22.2013 56.5839 22.1919 56.6047 22.1833 56.6254H43.31C43.2656 56.56 43.219 56.495 43.1745 56.4276C42.1968 54.9488 41.0662 52.7852 41.066 50.5316C41.066 48.7204 41.9513 46.8204 43.0051 44.9542C43.5484 43.9922 44.1794 42.9704 44.8353 41.9073C45.4958 40.8368 46.1882 39.7146 46.8796 38.519C49.6403 33.7454 52.316 27.9064 52.316 20.5316C52.316 13.1891 49.6765 8.99248 46.1307 6.5625C42.4888 4.06672 37.6694 3.28125 33.0973 3.28125C26.6766 3.28125 21.3464 4.47884 17.6697 6.77124C14.0673 9.01744 12.0035 12.3321 12.0035 16.875V26.25Z" fill="#262626"/>
<path d="M31.365 14.2135C31.7995 13.5698 32.6741 13.4 33.3178 13.8345C33.9613 14.269 34.131 15.1427 33.6968 15.7864L30.1144 21.0937H36.8435C37.3635 21.0937 37.8408 21.3808 38.0849 21.8399C38.329 22.2992 38.3001 22.8563 38.009 23.2873L33.3215 30.2252C32.8866 30.8686 32.0121 31.0372 31.3686 30.6024C30.7254 30.1676 30.556 29.2939 30.9905 28.6505L34.1958 23.9062H27.4685C26.9485 23.9062 26.4711 23.6192 26.227 23.1601C25.983 22.7009 26.0122 22.1446 26.303 21.7135L31.365 14.2135Z" fill="#262626"/>
<path d="M32.3723 7.97627C34.1326 7.98657 35.8682 8.39345 37.4498 9.16646C38.8851 9.86801 40.159 10.856 41.197 12.0659C43.1345 12.6227 44.8311 13.8218 46.0026 15.4744C47.2702 17.2626 47.8346 19.4554 47.5865 21.6332C47.3383 23.8107 46.2957 25.8203 44.6586 27.2774C43.0401 28.718 40.9524 29.5174 38.7874 29.5296C36.8715 30.8198 34.6113 31.5117 32.2944 31.5117C29.9787 31.5117 27.7195 30.8203 25.8043 29.5314H25.5909V29.5296C23.3453 29.5645 21.1688 28.751 19.4981 27.249C17.8212 25.7413 16.779 23.6534 16.5812 21.4071C16.3835 19.1606 17.0446 16.9224 18.4324 15.1449C19.7084 13.5106 21.5114 12.3797 23.5246 11.9332C24.5718 10.7487 25.8493 9.78711 27.281 9.10786C28.8715 8.35329 30.6118 7.96604 32.3723 7.97627ZM32.3558 10.7888C31.0178 10.781 29.6947 11.0749 28.4858 11.6485C27.2771 12.222 26.2133 13.0609 25.373 14.1021C25.1543 14.373 24.8426 14.5529 24.4987 14.6074C22.9747 14.849 21.5994 15.6599 20.6498 16.8761C19.7003 18.0924 19.2474 19.6237 19.3827 21.1608C19.5182 22.6978 20.2312 24.1264 21.3786 25.158C22.5261 26.1896 24.0225 26.7474 25.5653 26.7189H26.2474L26.3591 26.7226C26.6187 26.7433 26.8684 26.8359 27.0796 26.9909C28.5917 28.1008 30.4187 28.6992 32.2944 28.6992C34.1701 28.6992 35.9972 28.1008 37.5093 26.9909L37.6017 26.9286C37.8233 26.7917 38.0796 26.7189 38.3415 26.7189H38.7196C40.2191 26.7232 41.668 26.174 42.7882 25.1772C43.9084 24.1802 44.6216 22.8046 44.7914 21.3146C44.9611 19.8245 44.5756 18.3239 43.7083 17.1004C42.841 15.8771 41.5531 15.0166 40.0911 14.6834C39.7776 14.612 39.4981 14.4352 39.2991 14.1826C38.471 13.1317 37.4168 12.2808 36.2147 11.6933C35.0127 11.1058 33.6936 10.7966 32.3558 10.7888Z" fill="#262626"/>
</svg>
