<svg width="1485" height="215" viewBox="0 0 1485 215" fill="none" xmlns="http://www.w3.org/2000/svg">
<g clip-path="url(#clip0_29_7626)">
<path d="M102.752 74.528C89.0391 81.2857 75.2687 87.6379 62.1785 95.7407C60.9786 94.2862 59.2717 94.2926 57.5969 94.0352C52.2261 93.205 46.8809 92.1495 41.5037 91.39C37.1531 90.7722 32.7704 90.4311 28.3942 89.9999C20.662 89.2404 12.9234 88.5261 5.19117 87.7409C3.58056 87.58 2.04053 87.1037 0 86.074C1.16144 85.6556 1.73894 85.4819 2.28437 85.2437C8.14288 82.6951 14.0656 80.301 19.8278 77.5528C30.5823 72.4299 41.2727 67.1653 51.9052 61.7978C53.5929 60.9482 55.088 60.9096 56.8077 61.0769C60.0738 61.3923 63.3464 61.6497 66.6253 61.8042C78.0151 62.3319 89.4113 62.776 100.801 63.2973C106.153 63.5419 111.498 63.883 116.843 64.2176C117.761 64.2756 118.672 64.5266 120 64.7583C117.632 67.2876 114.918 68.5361 112.332 69.9327C109.765 71.3229 107.096 72.5264 104.504 73.8007C106.082 81.8327 107.738 89.6781 109.136 97.5685C110.542 105.485 111.684 113.446 112.967 121.51C114.693 121.928 115.297 122.958 115.54 124.754C115.759 126.369 117.068 127.824 117.78 129.394C118.396 130.746 119.147 132.104 118.601 133.803C117.363 131.415 116.131 129.034 114.892 126.646C114.687 126.723 114.482 126.8 114.276 126.878C114.706 129.188 115.136 131.505 115.56 133.815C113.628 131.653 113.23 128.976 112.807 126.382C111.472 126.183 111.215 127.077 111.171 127.766C111.081 129.046 111.203 130.353 111.312 131.64C111.408 132.747 111.607 133.848 111.549 134.987C109.971 132.419 109.053 129.735 110.093 126.678C110.272 126.144 110.664 125.391 110.452 125.063C109.303 123.254 110.612 122.585 111.941 121.735C108.398 106.251 107.859 90.1415 102.752 74.528ZM4.4019 86.0933C5.21042 86.3636 5.82001 86.6789 6.46169 86.7497C9.72141 87.123 12.9811 87.4706 16.2473 87.7602C24.9356 88.5389 33.656 89.0731 42.3058 90.1286C48.7161 90.9138 55.0559 92.2975 61.3957 93.5782C62.602 93.8228 63.3592 93.456 64.2575 92.9282C75.8077 86.1062 87.8841 80.3138 99.9412 74.4893C104.998 72.0501 109.996 69.4822 115.008 66.9465C115.566 66.6633 116.028 66.1999 116.856 65.5756C115.123 65.3568 113.853 65.0994 112.569 65.0479C101.86 64.5909 91.1438 64.2176 80.4406 63.7156C72.4132 63.3424 64.3987 62.7889 56.3713 62.377C55.1072 62.3126 53.7276 62.3126 52.5854 62.7503C50.5834 63.5226 48.7354 64.681 46.7975 65.6464C38.1349 69.9585 29.4915 74.3156 20.7903 78.544C15.4516 81.1312 10.0102 83.5189 4.4019 86.0933ZM114.244 123.228C112.711 123.177 112.711 123.177 111.607 124.142C112.832 125.307 113.429 124.503 114.244 123.228Z" fill="#4D8555"/>
<path d="M30.2826 116.709C30.3788 115.827 30.6227 114.991 30.5264 114.199C30.0067 110.08 29.3842 105.974 28.8131 101.868C28.4795 99.4736 28.1651 97.073 27.8442 94.6724C27.671 93.3852 27.9854 92.9283 29.3457 92.8768C30.5521 92.8253 31.7777 92.8639 32.9648 93.0505C37.5656 93.7778 42.1408 94.6466 46.748 95.3224C50.4184 95.863 54.1145 96.2041 57.7977 96.6289C58.2276 96.6804 58.7089 96.5774 59.081 96.7383C61.9878 97.9611 64.4198 97.0151 67.0763 95.6185C76.1817 90.843 85.4283 86.3443 94.6235 81.7362C94.7005 81.6976 94.784 81.6719 94.861 81.6333C98.1207 80.0822 98.5249 80.1916 99.5195 83.6734C100.822 88.2429 101.984 92.851 103.139 97.4591C103.395 98.4889 103.37 99.5894 103.472 100.664C103.267 100.703 103.068 100.741 102.863 100.774C101.181 94.5758 99.5003 88.3781 97.71 81.8006C95.5732 82.8239 93.7316 83.667 91.9221 84.568C84.2604 88.3716 76.5218 92.0337 68.995 96.0818C65.6839 97.8582 62.4242 98.4824 58.818 98.0062C53.1712 97.2661 47.5244 96.5517 41.8841 95.7601C38.7271 95.316 35.6021 94.6853 32.445 94.2219C31.444 94.0738 30.4109 94.1961 29.1853 94.1961C29.827 99.1196 30.4751 103.824 31.0269 108.535C31.2387 110.337 31.3542 112.172 31.2836 113.98C31.2259 115.428 31.6109 116.271 33.0931 116.606C35.6149 117.179 38.0918 117.977 40.6328 118.44C47.7426 119.727 54.8781 119.47 62.0648 118.859C68.995 118.266 75.7518 116.999 82.329 114.849C88.8484 112.719 95.1305 110.073 100.168 105.15C100.841 104.487 101.663 103.972 102.426 103.412C102.612 103.271 102.856 103.206 103.575 102.872C103.081 103.657 102.888 104.062 102.612 104.391C99.712 107.814 96.1507 110.421 92.1338 112.32C83.9524 116.181 75.3668 118.582 66.3512 119.682C60.4093 120.403 54.4802 120.77 48.519 120.616C42.4359 120.455 36.5454 119.206 30.8344 117.102C30.6291 117.018 30.443 116.818 30.2826 116.709Z" fill="#4D8555"/>
</g>
<g clip-path="url(#clip1_29_7626)">
<path d="M978.74 55.1801C968.47 52.5501 958.33 50.8301 949 46.8501C949.32 43.8701 950.94 42.8701 952.54 41.8501C956.62 39.2501 960.71 36.6501 964.78 34.0401C965.35 33.6801 965.82 33.1701 966.41 32.8401C971.64 29.9501 972.43 25.3301 971.46 20.0201C970.66 15.6701 969.82 11.3201 969 6.97012C968.95 6.71012 968.87 6.45012 968.82 6.18012C968.45 4.09012 968.54 1.83012 970.29 0.630119C972.27 -0.729881 974.43 0.300119 976.26 1.64012C980.38 4.66012 984.53 7.63012 988.61 10.7101C993.01 14.0301 997.35 14.1501 1002.07 11.2101C1006.86 8.22012 1011.87 5.60012 1016.78 2.83012C1017.25 2.56012 1017.72 2.30012 1018.21 2.08012C1021.17 0.690119 1022.84 1.53012 1022.5 4.71012C1022.12 8.28012 1021.15 11.8101 1020.25 15.3101C1019.45 18.4301 1018.56 21.5501 1017.41 24.5501C1016.05 28.1101 1017.1 30.9301 1019.69 33.2801C1024.78 37.8801 1029.96 42.3801 1035.12 46.9101C1035.52 47.2601 1036.01 47.5201 1036.4 47.8901C1039.09 50.4101 1038.68 53.5301 1035.23 54.9101C1033.28 55.6901 1031.05 56.1801 1028.96 56.1301C1024.54 56.0301 1020.12 55.5001 1015.71 55.1301C1015.31 55.1001 1014.93 54.9101 1014.53 54.8501C1007.92 53.8801 1007.33 54.2101 1004.12 60.2301C1000.77 66.5201 997.38 72.7801 993.97 79.0401C993.46 79.9801 992.86 80.9201 992.1 81.6601C990.76 82.9701 989.33 82.8401 988.44 81.2001C987.55 79.5601 986.95 77.7601 986.32 75.9901C984.08 69.6601 981.89 63.3101 979.65 56.9801C979.44 56.3601 979.06 55.7901 978.74 55.1801ZM1020.84 4.06012C1020.49 3.91012 1020.15 3.77012 1019.8 3.62012C1019 4.05012 1018.2 4.48012 1017.4 4.93012C1011.76 8.05012 1006.12 11.1901 1000.47 14.3001C997.13 16.1501 993.72 16.1401 990.47 14.2001C987.71 12.5501 985.09 10.6701 982.44 8.84012C979.57 6.85012 976.85 4.64012 973.87 2.83012C971.87 1.62012 970.72 2.41012 970.88 4.73012C971.04 6.99012 971.65 9.22012 971.95 11.4801C972.55 16.0001 973.2 20.5101 973.57 25.0501C973.84 28.3501 972.53 31.0701 969.66 32.9601C965.29 35.8501 960.97 38.8001 956.62 41.7301C954.98 42.8301 953.34 43.9401 951.11 45.4501C953.29 46.2501 954.74 46.9001 956.25 47.3101C962.46 48.9901 968.64 50.7701 974.91 52.1701C979.25 53.1301 981.62 55.7601 982.97 59.7301C984.87 65.3201 986.81 70.9001 988.72 76.4801C989.13 77.6901 989.26 79.0701 990.9 79.8101C991.56 78.8301 992.23 78.0101 992.74 77.0901C994.56 73.8001 996.35 70.4901 998.12 67.1701C999.89 63.8501 1001.63 60.5201 1003.36 57.1801C1004.97 54.0801 1007.14 52.1101 1011 52.6401C1014.59 53.1301 1018.22 53.3901 1021.84 53.6201C1025.05 53.8201 1028.3 54.0501 1031.49 53.8301C1032.92 53.7301 1034.89 52.8801 1035.52 51.7501C1036.53 49.9601 1034.35 49.0201 1033.23 48.0201C1028.91 44.1801 1024.56 40.3601 1020.09 36.6901C1015.28 32.7401 1013.52 28.1501 1015.86 22.0901C1017.36 18.2201 1018.43 14.1801 1019.57 10.1801C1020.14 8.17012 1020.43 6.09012 1020.84 4.06012Z" fill="#4D8555"/>
</g>
<g opacity="0.2">
<g clip-path="url(#clip2_29_7626)">
<path d="M1397.2 150.242C1409.66 148.505 1422.68 156.45 1427.07 168.17C1432.23 162.373 1439.77 158.242 1447.62 158.926C1451.87 159.296 1455.95 161.374 1458.89 164.404C1461.59 167.189 1463.37 170.83 1463.37 174.76C1467.3 174.597 1471.67 174.911 1475.44 176.168C1479.54 177.537 1483.05 180.077 1484.32 184.451C1485.64 189.018 1483.66 193.975 1480.39 197.172L1480.39 197.173C1477.34 200.179 1473.31 201.879 1469.3 202.96L1468.5 203.168C1458.02 205.787 1446.72 204.959 1436.73 200.856C1429.31 209.712 1417.25 213.19 1406 214.32C1401.68 214.755 1396.68 214.017 1392.06 212.454C1387.64 210.96 1383.48 208.684 1380.54 205.866C1374.74 207.456 1369.4 208.228 1360.98 206.492H1360.98C1355.17 205.293 1349.55 201.649 1347.16 196.046C1344.16 189.029 1347.23 180.274 1353.53 176.118C1359.38 172.26 1367.31 172.376 1373.37 175.748C1374.35 163.241 1384.71 151.982 1397.2 150.242ZM1425.83 170.3C1422.33 158.596 1409.56 150.399 1397.46 152.086C1385.35 153.774 1375.32 165.159 1375.16 177.374C1375.16 177.716 1374.96 178.028 1374.66 178.187C1374.36 178.345 1373.99 178.325 1373.71 178.134C1368.08 174.336 1360.17 173.971 1354.55 177.674C1348.93 181.379 1346.26 189.2 1348.87 195.315L1349.07 195.769C1351.28 200.423 1356.15 203.592 1361.35 204.668H1361.35C1369.67 206.382 1374.76 205.557 1380.56 203.929L1380.69 203.904C1380.98 203.864 1381.27 203.961 1381.48 204.172C1384.17 206.903 1388.22 209.19 1392.66 210.689C1397.09 212.188 1401.81 212.87 1405.81 212.467C1417.14 211.33 1428.82 207.81 1435.72 199.151L1435.83 199.038C1436.09 198.8 1436.48 198.731 1436.82 198.875C1446.59 203.051 1457.74 203.938 1468.05 201.361C1472.18 200.325 1476.17 198.711 1479.08 195.846L1479.09 195.844C1481.91 193.077 1483.51 188.973 1482.62 185.32L1482.53 184.969C1481.5 181.398 1478.62 179.194 1474.85 177.935C1471.07 176.673 1466.52 176.414 1462.46 176.67C1462.19 176.687 1461.92 176.587 1461.73 176.394C1461.54 176.201 1461.45 175.935 1461.47 175.665C1461.77 171.978 1460.2 168.433 1457.55 165.7C1454.9 162.966 1451.23 161.109 1447.46 160.781C1439.85 160.118 1432.34 164.479 1427.45 170.613C1427.23 170.884 1426.88 171.013 1426.54 170.947C1426.2 170.881 1425.93 170.631 1425.83 170.3Z" fill="white"/>
<path d="M1352.63 180.433C1352.96 180.039 1353.55 179.987 1353.94 180.318C1354.33 180.649 1354.38 181.236 1354.05 181.63C1351.32 184.88 1350.29 189.495 1351.37 193.609L1351.45 193.875C1351.83 195.186 1352.46 196.262 1353.4 196.7C1353.87 196.917 1354.07 197.471 1353.85 197.937C1353.63 198.403 1353.08 198.604 1352.61 198.387C1350.93 197.602 1350.09 195.867 1349.65 194.377L1349.57 194.082C1348.34 189.386 1349.51 184.148 1352.63 180.433Z" fill="white"/>
<path d="M1425.2 202.115C1425.6 201.8 1426.19 201.875 1426.5 202.282C1426.82 202.689 1426.74 203.274 1426.34 203.588C1419.17 209.127 1409.98 211.98 1400.94 211.464C1400.43 211.435 1400.03 210.996 1400.06 210.482C1400.09 210.001 1400.48 209.626 1400.95 209.604L1401.05 209.605L1401.85 209.642C1410.19 209.923 1418.6 207.215 1425.2 202.115Z" fill="white"/>
<path d="M1478.89 182.534C1479.36 182.393 1479.84 182.627 1480.03 183.063L1480.06 183.153L1480.12 183.385C1480.42 184.552 1480.26 185.733 1480.02 186.738C1478.78 191.998 1474.71 196.234 1469.92 198.479C1465.14 200.725 1459.72 201.153 1454.58 200.63C1454.07 200.578 1453.7 200.121 1453.75 199.61C1453.8 199.098 1454.26 198.725 1454.77 198.777C1459.7 199.279 1464.75 198.85 1469.13 196.793C1473.51 194.735 1477.13 190.905 1478.2 186.313L1478.21 186.309C1478.42 185.411 1478.5 184.577 1478.32 183.842L1478.28 183.696L1478.25 183.605C1478.16 183.141 1478.43 182.675 1478.89 182.534Z" fill="white"/>
<path d="M1471.48 193.099C1471.13 193.482 1470.55 193.514 1470.16 193.171C1469.78 192.827 1469.75 192.238 1470.09 191.856L1471.48 193.099ZM1468.6 179.009C1471.67 179.418 1474.87 181.71 1475.24 185.082C1475.42 186.724 1474.92 188.227 1474.17 189.547C1473.43 190.86 1472.41 192.056 1471.48 193.099L1470.78 192.477L1470.09 191.856C1471.02 190.821 1471.92 189.754 1472.55 188.631C1473.18 187.516 1473.51 186.411 1473.39 185.287V185.286C1473.14 183.034 1470.87 181.191 1468.35 180.855C1467.84 180.787 1467.48 180.319 1467.55 179.81C1467.62 179.3 1468.09 178.941 1468.6 179.009Z" fill="white"/>
<path d="M1435.17 164.999C1436.66 164.02 1438.65 162.92 1440.78 163.284C1441.29 163.371 1441.63 163.852 1441.54 164.359C1441.46 164.835 1441.03 165.164 1440.56 165.132L1440.47 165.12L1440.21 165.087C1438.94 164.976 1437.59 165.636 1436.2 166.551C1434.13 167.929 1432.2 169.542 1430.49 171.352C1430.13 171.725 1429.54 171.742 1429.17 171.389C1428.8 171.036 1428.78 170.446 1429.13 170.072C1430.94 168.156 1432.98 166.453 1435.17 165L1435.17 164.999Z" fill="white"/>
<path d="M1415.93 162.879C1416.19 162.477 1416.72 162.348 1417.14 162.566L1417.22 162.615L1417.51 162.813C1420.41 164.826 1422.58 167.868 1423.52 171.269L1423.62 171.611L1423.63 171.705C1423.7 172.172 1423.41 172.623 1422.94 172.742C1422.47 172.86 1422 172.602 1421.84 172.159L1421.81 172.068L1421.73 171.769C1420.9 168.787 1418.99 166.11 1416.45 164.344L1416.19 164.17L1416.12 164.113C1415.75 163.815 1415.66 163.282 1415.93 162.879Z" fill="white"/>
</g>
</g>
<defs>
<clipPath id="clip0_29_7626">
<rect width="120" height="74" fill="white" transform="translate(0 61)"/>
</clipPath>
<clipPath id="clip1_29_7626">
<rect width="89.16" height="82.55" fill="white" transform="translate(949)"/>
</clipPath>
<clipPath id="clip2_29_7626">
<rect width="138.718" height="64.4556" fill="white" transform="translate(1346 150)"/>
</clipPath>
</defs>
</svg>
