<svg width="1920" height="1022" viewBox="0 0 1920 1022" fill="none" xmlns="http://www.w3.org/2000/svg">
<path opacity="0.2" d="M166 76.5559C80.4 47.3559 19.3333 79.7227 0 100.056V426.056H1920V88.5559C1900 62.5559 1831 12.2559 1715 19.0559C1599 25.8559 1547.67 92.2226 1536.5 124.556C1439.3 71.3559 1354 106.389 1323.5 130.556C1206.7 31.3559 1081.83 81.8892 1034 119.556C992.4 96.3559 930 95.5559 904 98.0559C847.2 30.0559 760.17 32.7734 714.5 38.5559C668.83 44.3385 621.333 77.7226 607 95.5559C563 68.7559 505 71.7226 481.5 76.5559C474 51.8892 432.9 2.0559 328.5 0.0558986C224.1 -1.9441 176.667 50.2226 166 76.5559Z" fill="#17431E"/>
<path d="M159.542 96.0024C82.3215 70.0024 21.0055 98.1691 0 115.502V1022H1920V121.502C1906 98.0024 1854.98 36.5024 1711.95 40.0024C1597.52 42.8024 1544.9 111.169 1532.9 145.002C1449.68 91.8024 1354.85 125.502 1317.84 149.002C1201.01 54.6024 1076.78 103.336 1029.27 139.502C989.658 116.702 926.074 115.002 899.234 117.002C893.899 103.002 861.424 71.2024 774.202 56.0024C686.979 40.8024 623.162 90.3358 602.157 117.002C565.347 87.4024 502.798 90.6691 476.124 96.0024C461.12 73.5024 422.61 21.5024 311.081 21.0024C221.858 20.6024 172.878 70.8357 159.542 96.0024Z" fill="url(#paint0_linear_54_697)"/>
<defs>
<linearGradient id="paint0_linear_54_697" x1="960" y1="21" x2="960" y2="462.723" gradientUnits="userSpaceOnUse">
<stop stop-color="#17421E"/>
<stop offset="1" stop-color="#17421E"/>
</linearGradient>
</defs>
</svg>
