<svg width="1920" height="1431" viewBox="0 0 1920 1431" fill="none" xmlns="http://www.w3.org/2000/svg">
<path opacity="0.2" d="M166 76.5559C80.4 47.3559 19.3333 79.7227 0 100.056V426.056H1920V88.5559C1900 62.5559 1831 12.2559 1715 19.0559C1599 25.8559 1547.67 92.2226 1536.5 124.556C1439.3 71.3559 1354 106.389 1323.5 130.556C1206.7 31.3559 1081.83 81.8892 1034 119.556C992.4 96.3559 930 95.5559 904 98.0559C847.2 30.0559 760.17 32.7734 714.5 38.5559C668.83 44.3385 621.333 77.7226 607 95.5559C563 68.7559 505 71.7226 481.5 76.5559C474 51.8892 432.9 2.0559 328.5 0.0558986C224.1 -1.9441 176.667 50.2226 166 76.5559Z" fill="#EBFFEE"/>
<path d="M159.501 95.0024C82.3013 69.0024 21.0013 97.1691 0.00132751 114.502L0 1431H1919.5L1919.5 120.502C1905.5 97.0024 1854.5 35.5024 1711.5 39.0024C1597.1 41.8024 1544.5 110.169 1532.5 144.002C1449.3 90.8024 1354.5 124.502 1317.5 148.002C1200.7 53.6024 1076.5 102.336 1029 138.502C989.401 115.702 925.834 114.002 899.001 116.002C893.668 102.002 861.201 70.2024 774.001 55.0024C686.801 39.8024 623.001 89.3358 602.001 116.002C565.201 86.4024 502.668 89.6691 476.001 95.0024C461.001 72.5024 422.501 20.5024 311.001 20.0024C221.801 19.6024 172.835 69.8357 159.501 95.0024Z" fill="url(#paint0_linear_56_707)"/>
<g opacity="0.2">
<g clip-path="url(#clip0_56_707)">
<path d="M1625.85 375.495C1651.36 371.939 1678.03 388.209 1687.02 412.21C1697.58 400.339 1713.03 391.878 1729.11 393.279C1737.82 394.037 1746.17 398.293 1752.19 404.499C1757.71 410.201 1761.35 417.659 1761.35 425.706C1769.41 425.372 1778.37 426.016 1786.07 428.589C1794.48 431.393 1801.67 436.596 1804.27 445.553C1806.97 454.907 1802.9 465.057 1796.22 471.604L1796.22 471.606C1789.97 477.763 1781.71 481.243 1773.51 483.457L1771.86 483.884C1750.41 489.247 1727.26 487.551 1706.81 479.149C1691.6 497.286 1666.92 504.408 1643.87 506.722C1635.02 507.614 1624.79 506.102 1615.32 502.9C1606.27 499.84 1597.75 495.18 1591.74 489.408C1579.85 492.666 1568.91 494.246 1551.67 490.691H1551.66C1539.78 488.236 1528.27 480.774 1523.37 469.298C1517.23 454.929 1523.51 436.998 1536.41 428.488C1548.39 420.587 1564.64 420.825 1577.05 427.73C1579.06 402.116 1600.27 379.06 1625.85 375.495ZM1684.47 416.572C1677.31 392.604 1651.17 375.817 1626.37 379.273C1601.58 382.728 1581.05 406.044 1580.72 431.06C1580.71 431.761 1580.31 432.399 1579.69 432.724C1579.07 433.049 1578.32 433.007 1577.74 432.616C1566.21 424.838 1550.01 424.091 1538.51 431.673C1527 439.261 1521.53 455.279 1526.87 467.801L1527.29 468.732C1531.81 478.262 1541.78 484.752 1552.44 486.955H1552.44C1569.46 490.465 1579.9 488.777 1591.78 485.443L1592.03 485.391C1592.62 485.308 1593.23 485.508 1593.65 485.94C1599.16 491.532 1607.46 496.216 1616.54 499.287C1625.62 502.356 1635.3 503.753 1643.48 502.928C1666.69 500.598 1690.6 493.39 1704.74 475.657L1704.96 475.426C1705.5 474.937 1706.29 474.798 1706.98 475.093C1726.99 483.645 1749.83 485.46 1770.94 480.183C1779.41 478.061 1787.58 474.756 1793.54 468.889L1793.55 468.885C1799.34 463.218 1802.61 454.814 1800.79 447.333L1800.6 446.613C1798.48 439.301 1792.59 434.787 1784.87 432.208C1777.12 429.623 1767.81 429.093 1759.49 429.619C1758.94 429.654 1758.4 429.447 1758.01 429.053C1757.62 428.658 1757.42 428.113 1757.47 427.561C1758.08 420.008 1754.87 412.749 1749.45 407.153C1744.02 401.553 1736.5 397.751 1728.78 397.078C1713.19 395.72 1697.81 404.651 1687.79 417.214C1687.35 417.769 1686.64 418.033 1685.94 417.898C1685.24 417.763 1684.68 417.251 1684.47 416.572Z" fill="#216B2D"/>
<path d="M1534.57 437.324C1535.25 436.517 1536.45 436.412 1537.26 437.089C1538.06 437.766 1538.17 438.968 1537.49 439.775C1531.9 446.432 1529.79 455.883 1532 464.308L1532.15 464.852C1532.94 467.538 1534.23 469.74 1536.15 470.637C1537.1 471.083 1537.52 472.218 1537.07 473.172C1536.62 474.126 1535.49 474.537 1534.54 474.092C1531.09 472.485 1529.37 468.932 1528.48 465.88L1528.31 465.277C1525.79 455.66 1528.18 444.933 1534.57 437.324Z" fill="#216B2D"/>
<path d="M1683.19 481.727C1684.02 481.083 1685.22 481.237 1685.86 482.07C1686.51 482.903 1686.35 484.1 1685.52 484.745C1670.85 496.088 1652.03 501.93 1633.51 500.874C1632.46 500.814 1631.66 499.914 1631.72 498.863C1631.77 497.877 1632.57 497.109 1633.53 497.065L1633.73 497.067L1635.38 497.142C1652.45 497.718 1669.68 492.172 1683.19 481.727Z" fill="#216B2D"/>
<path d="M1793.16 441.627C1794.1 441.338 1795.1 441.818 1795.47 442.709L1795.54 442.893L1795.67 443.37C1796.27 445.759 1795.95 448.179 1795.46 450.235C1792.93 461.009 1784.58 469.683 1774.79 474.281C1764.99 478.88 1753.9 479.757 1743.36 478.686C1742.32 478.579 1741.55 477.644 1741.66 476.596C1741.76 475.548 1742.7 474.785 1743.75 474.892C1753.85 475.919 1764.2 475.04 1773.17 470.828C1782.14 466.614 1789.54 458.77 1791.75 449.366L1791.75 449.358C1792.19 447.518 1792.35 445.809 1791.97 444.305L1791.89 444.007L1791.84 443.819C1791.66 442.871 1792.21 441.915 1793.16 441.627Z" fill="#216B2D"/>
<path d="M1777.97 463.263C1777.27 464.047 1776.06 464.113 1775.28 463.41C1774.49 462.707 1774.43 461.501 1775.13 460.717L1777.97 463.263ZM1772.07 434.408C1778.36 435.246 1784.92 439.94 1785.67 446.845C1786.05 450.209 1785.02 453.286 1783.49 455.99C1781.97 458.678 1779.89 461.128 1777.97 463.263L1776.55 461.989L1775.13 460.717C1777.03 458.599 1778.87 456.413 1780.17 454.114C1781.46 451.83 1782.14 449.566 1781.88 447.266V447.264C1781.38 442.651 1776.73 438.877 1771.57 438.189C1770.53 438.05 1769.79 437.091 1769.93 436.047C1770.07 435.004 1771.03 434.27 1772.07 434.408Z" fill="#216B2D"/>
<path d="M1703.62 405.717C1706.65 403.712 1710.73 401.459 1715.1 402.206C1716.14 402.384 1716.83 403.369 1716.66 404.408C1716.49 405.381 1715.61 406.055 1714.65 405.989L1714.45 405.965L1713.93 405.898C1711.32 405.67 1708.56 407.023 1705.72 408.896C1701.47 411.718 1697.52 415.021 1694.02 418.727C1693.3 419.492 1692.09 419.526 1691.32 418.803C1690.56 418.08 1690.52 416.872 1691.25 416.106C1694.95 412.183 1699.13 408.695 1703.61 405.719L1703.62 405.717Z" fill="#216B2D"/>
<path d="M1664.21 401.375C1664.75 400.551 1665.82 400.287 1666.68 400.735L1666.85 400.833L1667.45 401.239C1673.39 405.363 1677.82 411.591 1679.76 418.557L1679.95 419.257L1679.99 419.449C1680.13 420.405 1679.52 421.33 1678.57 421.573C1677.61 421.815 1676.64 421.287 1676.31 420.379L1676.25 420.192L1676.09 419.58C1674.39 413.474 1670.48 407.992 1665.27 404.374L1664.75 404.018L1664.59 403.903C1663.84 403.292 1663.66 402.2 1664.21 401.375Z" fill="#216B2D"/>
</g>
</g>
<g opacity="0.2">
<g clip-path="url(#clip1_56_707)">
<path d="M146.8 812.315C163.058 810.05 180.046 820.416 185.779 835.708C192.507 828.144 202.347 822.753 212.595 823.646C218.14 824.129 223.464 826.841 227.295 830.795C230.815 834.428 233.135 839.179 233.136 844.306C238.272 844.094 243.976 844.504 248.887 846.143C254.241 847.93 258.825 851.245 260.478 856.952C262.201 862.911 259.61 869.378 255.35 873.55L255.351 873.551C251.368 877.474 246.107 879.691 240.879 881.102L239.834 881.374C226.165 884.791 211.414 883.71 198.384 878.357C188.695 889.913 172.968 894.45 158.281 895.925C152.645 896.493 146.126 895.53 140.094 893.49C134.327 891.54 128.901 888.571 125.068 884.894C117.494 886.969 110.525 887.976 99.5373 885.711H99.5361C91.9649 884.147 84.6309 879.392 81.5067 872.081C77.5978 862.925 81.5947 851.501 89.8171 846.079C97.452 841.045 107.804 841.196 115.713 845.596C116.988 829.276 130.504 814.586 146.8 812.315ZM184.154 838.487C179.587 823.216 162.934 812.521 147.135 814.722C131.338 816.924 118.257 831.779 118.046 847.718C118.04 848.164 117.79 848.571 117.395 848.778C116.999 848.985 116.522 848.958 116.152 848.709C108.8 843.754 98.4812 843.277 91.1545 848.109C83.823 852.943 80.335 863.149 83.7412 871.127L84.0082 871.72C86.8832 877.792 93.2367 881.927 100.029 883.331H100.027C110.875 885.567 117.527 884.492 125.094 882.367L125.255 882.334C125.632 882.282 126.016 882.408 126.288 882.684C129.798 886.247 135.085 889.231 140.872 891.188C146.655 893.143 152.822 894.033 158.038 893.508C172.824 892.023 188.059 887.431 197.067 876.132L197.206 875.985C197.553 875.674 198.055 875.585 198.494 875.773C211.24 881.222 225.794 882.378 239.244 879.016C244.64 877.664 249.849 875.558 253.645 871.82L253.648 871.817C257.337 868.207 259.421 862.852 258.264 858.086L258.142 857.627C256.793 852.969 253.041 850.092 248.118 848.449C243.184 846.802 237.248 846.465 231.948 846.8C231.596 846.822 231.252 846.69 231.005 846.439C230.758 846.187 230.631 845.84 230.66 845.488C231.051 840.676 229.004 836.051 225.55 832.486C222.093 828.918 217.3 826.495 212.383 826.067C202.448 825.202 192.65 830.891 186.268 838.896C185.986 839.25 185.531 839.418 185.087 839.332C184.643 839.246 184.284 838.92 184.154 838.487Z" fill="#216B2D"/>
<path d="M88.6432 851.708C89.0747 851.194 89.8416 851.127 90.3556 851.559C90.8691 851.99 90.9352 852.756 90.5039 853.27C86.9431 857.511 85.5997 863.533 87.0067 868.901L87.1028 869.248C87.6046 870.959 88.4265 872.362 89.6507 872.934C90.2584 873.218 90.5206 873.941 90.2369 874.549C89.9529 875.156 89.2298 875.419 88.6218 875.135C86.4287 874.111 85.3277 871.847 84.7615 869.903L84.6559 869.518C83.0496 863.391 84.573 856.556 88.6432 851.708Z" fill="#216B2D"/>
<path d="M183.338 880C183.869 879.589 184.632 879.687 185.042 880.218C185.453 880.749 185.356 881.512 184.825 881.922C175.48 889.149 163.489 892.872 151.689 892.199C151.019 892.161 150.507 891.587 150.545 890.917C150.581 890.289 151.087 889.8 151.702 889.772L151.827 889.773L152.879 889.821C163.753 890.188 174.733 886.654 183.338 880Z" fill="#216B2D"/>
<path d="M253.402 854.451C254.003 854.267 254.638 854.573 254.877 855.14L254.919 855.258L255.004 855.562C255.387 857.083 255.178 858.625 254.866 859.936C253.257 866.8 247.935 872.327 241.696 875.256C235.455 878.186 228.386 878.745 221.674 878.062C221.007 877.994 220.521 877.398 220.588 876.731C220.656 876.063 221.253 875.577 221.921 875.645C228.358 876.299 234.948 875.74 240.664 873.056C246.381 870.371 251.096 865.374 252.501 859.382L252.502 859.377C252.782 858.205 252.887 857.116 252.647 856.157L252.595 855.967L252.564 855.848C252.444 855.243 252.8 854.635 253.402 854.451Z" fill="#216B2D"/>
<path d="M243.727 868.235C243.279 868.734 242.511 868.776 242.011 868.329C241.512 867.881 241.47 867.112 241.918 866.613L243.727 868.235ZM239.969 849.851C243.973 850.384 248.153 853.375 248.636 857.774C248.874 859.917 248.218 861.878 247.245 863.601C246.277 865.314 244.948 866.874 243.727 868.235L242.823 867.423L241.918 866.613C243.128 865.263 244.301 863.87 245.129 862.406C245.951 860.951 246.384 859.508 246.221 858.042V858.041C245.9 855.102 242.936 852.698 239.649 852.26C238.984 852.171 238.516 851.56 238.604 850.895C238.693 850.23 239.304 849.762 239.969 849.851Z" fill="#216B2D"/>
<path d="M196.349 831.571C198.284 830.293 200.882 828.858 203.664 829.334C204.326 829.447 204.771 830.075 204.658 830.736C204.551 831.356 203.993 831.786 203.378 831.744L203.255 831.728L202.923 831.686C201.259 831.541 199.499 832.402 197.69 833.596C194.982 835.394 192.466 837.499 190.234 839.86C189.774 840.347 189.005 840.369 188.517 839.908C188.03 839.447 188.008 838.678 188.469 838.19C190.831 835.69 193.49 833.468 196.347 831.572L196.349 831.571Z" fill="#216B2D"/>
<path d="M171.24 828.805C171.586 828.28 172.27 828.111 172.816 828.396L172.924 828.459L173.305 828.718C177.089 831.345 179.916 835.313 181.152 839.752L181.271 840.198L181.295 840.32C181.384 840.929 181 841.519 180.39 841.673C179.781 841.827 179.162 841.491 178.951 840.912L178.914 840.794L178.811 840.403C177.727 836.513 175.24 833.02 171.92 830.715L171.585 830.489L171.485 830.415C171.008 830.026 170.893 829.33 171.24 828.805Z" fill="#216B2D"/>
</g>
</g>
<defs>
<linearGradient id="paint0_linear_56_707" x1="960" y1="123" x2="960" y2="425" gradientUnits="userSpaceOnUse">
<stop stop-color="#E7FEEB"/>
<stop offset="1" stop-color="#E8FFEB"/>
</linearGradient>
<clipPath id="clip0_56_707">
<rect width="284.083" height="132" fill="white" transform="translate(1521 375)"/>
</clipPath>
<clipPath id="clip1_56_707">
<rect width="181" height="84.1021" fill="white" transform="translate(80 812)"/>
</clipPath>
</defs>
</svg>
