<svg width="1920" height="1461" viewBox="0 0 1920 1461" fill="none" xmlns="http://www.w3.org/2000/svg">
<g opacity="0.08">
<line x1="275" y1="472.5" x2="1645" y2="472.5" stroke="white"/>
<line x1="118" y1="792.5" x2="1800" y2="792.5" stroke="white"/>
<line x1="118" y1="728.5" x2="1800" y2="728.5" stroke="white"/>
<line x1="118" y1="1048.5" x2="1791" y2="1048.5" stroke="white"/>
<line x1="275" y1="408.5" x2="1645" y2="408.5" stroke="white"/>
<line x1="275" y1="664.5" x2="1645" y2="664.5" stroke="white"/>
<line x1="118" y1="984.5" x2="1800" y2="984.5" stroke="white"/>
<line x1="122" y1="344.5" x2="1798" y2="344.5" stroke="white"/>
<line x1="275" y1="600.5" x2="1645" y2="600.5" stroke="white"/>
<line x1="118" y1="920.5" x2="1800" y2="920.5" stroke="white"/>
<line x1="275" y1="536.5" x2="1645" y2="536.5" stroke="white"/>
<line x1="118" y1="856.5" x2="1800" y2="856.5" stroke="white"/>
<line x1="16" y1="248.5" x2="1905" y2="248.5" stroke="white"/>
<line x1="37" y1="80.5" x2="1883" y2="80.5002" stroke="white"/>
<line x1="37" y1="0.5" x2="1883" y2="0.5" stroke="white"/>
</g>
<g opacity="0.08">
<line x1="151.5" y1="1011" x2="151.5" y2="80" stroke="white"/>
<line x1="847.5" y1="793" x2="847.5" y2="536" stroke="white"/>
<line x1="1195.5" y1="793" x2="1195.5" y2="536" stroke="white"/>
<line x1="673.5" y1="793" x2="673.5" y2="536" stroke="white"/>
<line x1="499.5" y1="921" x2="499.5" y2="410" stroke="white"/>
<line x1="325.5" y1="1011" x2="325.5" y2="248" stroke="white"/>
<line x1="1021.5" y1="793" x2="1021.5" y2="536" stroke="white"/>
<line x1="1369.5" y1="921" x2="1369.5" y2="410" stroke="white"/>
<line x1="1543.5" y1="1011" x2="1543.5" y2="248" stroke="white"/>
<line x1="1717.5" y1="1091" x2="1717.5" y2="160" stroke="white"/>
</g>
<g opacity="0.2">
<g clip-path="url(#clip0_51_33)">
<mask id="path-26-inside-1_51_33" fill="white">
<path d="M1801 344H1920V729H1801V344Z"/>
</mask>
<line x1="1740.65" y1="389.124" x2="1936.13" y2="297.97" stroke="#24E21A"/>
<line x1="1740.65" y1="620.513" x2="1936.13" y2="529.359" stroke="#24E21A"/>
<line x1="1740.65" y1="504.818" x2="1936.13" y2="413.665" stroke="#24E21A"/>
<line x1="1740.65" y1="736.207" x2="1936.13" y2="645.054" stroke="#24E21A"/>
<line x1="1740.65" y1="405.651" x2="1936.13" y2="314.498" stroke="#24E21A"/>
<line x1="1740.65" y1="637.04" x2="1936.13" y2="545.887" stroke="#24E21A"/>
<line x1="1740.65" y1="521.346" x2="1936.13" y2="430.192" stroke="#24E21A"/>
<line x1="1740.65" y1="752.734" x2="1936.13" y2="661.581" stroke="#24E21A"/>
<line x1="1740.65" y1="422.179" x2="1936.13" y2="331.026" stroke="#24E21A"/>
<line x1="1740.65" y1="653.568" x2="1936.13" y2="562.414" stroke="#24E21A"/>
<line x1="1740.65" y1="537.874" x2="1936.13" y2="446.72" stroke="#24E21A"/>
<line x1="1740.65" y1="769.263" x2="1936.13" y2="678.109" stroke="#24E21A"/>
<line x1="1740.65" y1="438.707" x2="1936.13" y2="347.554" stroke="#24E21A"/>
<line x1="1740.65" y1="670.096" x2="1936.13" y2="578.942" stroke="#24E21A"/>
<line x1="1740.65" y1="554.401" x2="1936.13" y2="463.248" stroke="#24E21A"/>
<line x1="1740.65" y1="785.79" x2="1936.13" y2="694.637" stroke="#24E21A"/>
<line x1="1740.65" y1="455.235" x2="1936.13" y2="364.081" stroke="#24E21A"/>
<line x1="1740.65" y1="686.624" x2="1936.13" y2="595.47" stroke="#24E21A"/>
<line x1="1740.65" y1="570.929" x2="1936.13" y2="479.776" stroke="#24E21A"/>
<line x1="1740.65" y1="802.318" x2="1936.13" y2="711.164" stroke="#24E21A"/>
<line x1="1740.65" y1="471.763" x2="1936.13" y2="380.609" stroke="#24E21A"/>
<line x1="1740.65" y1="703.151" x2="1936.13" y2="611.998" stroke="#24E21A"/>
<line x1="1740.65" y1="587.457" x2="1936.13" y2="496.304" stroke="#24E21A"/>
<line x1="1740.65" y1="818.846" x2="1936.13" y2="727.692" stroke="#24E21A"/>
<line x1="1740.65" y1="488.29" x2="1936.13" y2="397.137" stroke="#24E21A"/>
<line x1="1740.65" y1="719.679" x2="1936.13" y2="628.526" stroke="#24E21A"/>
<line x1="1740.65" y1="603.984" x2="1936.13" y2="512.831" stroke="#24E21A"/>
</g>
<path d="M1801 344V345H1920V344V343H1801V344ZM1920 729V728H1801V729V730H1920V729Z" fill="white" mask="url(#path-26-inside-1_51_33)"/>
</g>
<g opacity="0.2">
<g clip-path="url(#clip1_51_33)">
<mask id="path-55-inside-2_51_33" fill="white">
<path d="M0 344H119V729H0V344Z"/>
</mask>
<line x1="-60.3519" y1="389.124" x2="135.127" y2="297.97" stroke="#24E21A"/>
<line x1="-60.3519" y1="620.513" x2="135.127" y2="529.359" stroke="#24E21A"/>
<line x1="-60.3519" y1="504.818" x2="135.127" y2="413.665" stroke="#24E21A"/>
<line x1="-60.3519" y1="736.207" x2="135.127" y2="645.054" stroke="#24E21A"/>
<line x1="-60.3519" y1="405.651" x2="135.127" y2="314.498" stroke="#24E21A"/>
<line x1="-60.3519" y1="637.04" x2="135.127" y2="545.887" stroke="#24E21A"/>
<line x1="-60.3519" y1="521.346" x2="135.127" y2="430.192" stroke="#24E21A"/>
<line x1="-60.3519" y1="752.734" x2="135.127" y2="661.581" stroke="#24E21A"/>
<line x1="-60.3519" y1="422.179" x2="135.127" y2="331.026" stroke="#24E21A"/>
<line x1="-60.3519" y1="653.568" x2="135.127" y2="562.414" stroke="#24E21A"/>
<line x1="-60.3519" y1="537.874" x2="135.127" y2="446.72" stroke="#24E21A"/>
<line x1="-60.3519" y1="769.263" x2="135.127" y2="678.109" stroke="#24E21A"/>
<line x1="-60.3519" y1="438.707" x2="135.127" y2="347.554" stroke="#24E21A"/>
<line x1="-60.3519" y1="670.096" x2="135.127" y2="578.942" stroke="#24E21A"/>
<line x1="-60.3519" y1="554.401" x2="135.127" y2="463.248" stroke="#24E21A"/>
<line x1="-60.3519" y1="785.79" x2="135.127" y2="694.637" stroke="#24E21A"/>
<line x1="-60.3519" y1="455.235" x2="135.127" y2="364.081" stroke="#24E21A"/>
<line x1="-60.3519" y1="686.624" x2="135.127" y2="595.47" stroke="#24E21A"/>
<line x1="-60.3519" y1="570.929" x2="135.127" y2="479.776" stroke="#24E21A"/>
<line x1="-60.3519" y1="802.318" x2="135.127" y2="711.164" stroke="#24E21A"/>
<line x1="-60.3519" y1="471.763" x2="135.127" y2="380.609" stroke="#24E21A"/>
<line x1="-60.3519" y1="703.151" x2="135.127" y2="611.998" stroke="#24E21A"/>
<line x1="-60.3519" y1="587.457" x2="135.127" y2="496.304" stroke="#24E21A"/>
<line x1="-60.3519" y1="818.846" x2="135.127" y2="727.692" stroke="#24E21A"/>
<line x1="-60.3519" y1="488.29" x2="135.127" y2="397.137" stroke="#24E21A"/>
<line x1="-60.3519" y1="719.679" x2="135.127" y2="628.526" stroke="#24E21A"/>
<line x1="-60.3519" y1="603.984" x2="135.127" y2="512.831" stroke="#24E21A"/>
</g>
<path d="M0 344V345H119V344V343H0V344ZM119 729V728H0V729V730H119V729Z" fill="white" mask="url(#path-55-inside-2_51_33)"/>
</g>
<defs>
<clipPath id="clip0_51_33">
<path d="M1801 344H1920V729H1801V344Z" fill="white"/>
</clipPath>
<clipPath id="clip1_51_33">
<path d="M0 344H119V729H0V344Z" fill="white"/>
</clipPath>
</defs>
</svg>
