<svg width="79" height="43" viewBox="0 0 79 43" fill="none" xmlns="http://www.w3.org/2000/svg">
<mask id="mask0_26_4372" style="mask-type:luminance" maskUnits="userSpaceOnUse" x="29" y="0" width="39" height="33">
<path d="M33.7498 32.0807L44.5364 21.2257L48.4809 25.1985L56.7938 16.8329L65.7193 25.8149L67.3651 22.6075L66.9377 13.7203L63.1346 6.88217L57.3222 2.40808L48.39 0L37.3206 3.35302L34.1166 6.0219L31.1246 10.4079L29.0312 16.0403V23.5694L31.7641 30.3635L33.5108 32.3144L33.7498 32.0807Z" fill="white"/>
</mask>
<g mask="url(#mask0_26_4372)">
<path d="M48.0725 38.8511C58.3514 38.8511 66.6841 30.4656 66.6841 20.1216C66.6841 9.77758 58.3514 1.39209 48.0725 1.39209C37.7936 1.39209 29.4609 9.77758 29.4609 20.1216C29.4609 30.4656 37.7936 38.8511 48.0725 38.8511Z" fill="#F8F3C4"/>
<path d="M48.0704 33.0901C55.1875 33.0901 60.9571 27.284 60.9571 20.1217C60.9571 12.9595 55.1875 7.15332 48.0704 7.15332C40.9532 7.15332 35.1836 12.9595 35.1836 20.1217C35.1836 27.284 40.9532 33.0901 48.0704 33.0901Z" fill="#F1E794"/>
<path d="M48.0685 28.477C52.654 28.477 56.3713 24.7362 56.3713 20.1216C56.3713 15.507 52.654 11.7661 48.0685 11.7661C43.4829 11.7661 39.7656 15.507 39.7656 20.1216C39.7656 24.7362 43.4829 28.477 48.0685 28.477Z" fill="#EDD96B"/>
<path d="M48.0718 24.4432C50.4436 24.4432 52.3663 22.5083 52.3663 20.1215C52.3663 17.7347 50.4436 15.7998 48.0718 15.7998C45.7 15.7998 43.7773 17.7347 43.7773 20.1215C43.7773 22.5083 45.7 24.4432 48.0718 24.4432Z" fill="#EED64C"/>
</g>
<path d="M18.6421 39.2713C17.3362 39.2713 16.2828 39.1866 16.1953 39.1798L16.2492 38.5058C16.2895 38.5092 20.4494 38.8378 22.5091 38.1875C24.3837 37.5948 24.303 35.9149 24.303 35.8979C24.3535 34.4246 22.5529 33.544 20.8095 32.6939C19.9378 32.2672 19.0359 31.8269 18.356 31.3087C16.2963 29.7372 16.3468 27.9218 16.3636 27.6949C16.34 24.8194 18.4873 23.3834 19.7729 22.7805C20.4898 22.4418 21.2807 22.2725 22.1187 22.2725H26.9786V22.9498H22.1221C21.3817 22.9498 20.6883 23.0989 20.059 23.3935C18.669 24.0472 17.0131 25.3241 17.0401 27.7017V27.7186V27.7355C17.0333 27.7999 16.9256 29.3612 18.7666 30.7668C19.3926 31.2443 20.2239 31.6508 21.1057 32.0809C23.0409 33.0258 25.0468 34.0047 24.9761 35.8878C24.9761 35.8878 25.0771 38.0859 22.7111 38.831C21.6071 39.1798 19.9883 39.2713 18.6421 39.2713Z" fill="white"/>
<path d="M21.1667 40.9237H16.2227V40.2463H21.1667C21.9441 40.2463 22.661 40.1345 23.2971 39.9178C23.4283 39.8737 23.5562 39.8229 23.6774 39.7721C25.2996 39.1049 26.3463 37.5131 26.3463 35.7248V34.6071C26.3463 34.1838 26.2352 33.7977 26.0232 33.4861C25.1986 32.2837 23.223 31.2981 21.7792 30.5733C21.0287 30.2008 20.3825 29.8756 20.019 29.5911C18.7165 28.5683 18.8276 27.3422 18.8343 27.2881C18.8781 26.4887 19.144 25.7877 19.6152 25.222C20.1032 24.6395 20.8335 24.3042 21.6177 24.3042H26.9824V24.9816H21.6177C21.0321 24.9816 20.4868 25.2288 20.1267 25.6556C19.7498 26.106 19.5377 26.6716 19.5007 27.3389C19.4974 27.3897 19.4334 28.2702 20.4296 29.0526C20.7393 29.2965 21.3585 29.6047 22.072 29.9637C23.6673 30.7596 25.6496 31.752 26.5718 33.0966C26.8612 33.5199 27.016 34.0415 27.016 34.6004V35.718C27.016 37.784 25.8044 39.6197 23.9298 40.3919C23.7952 40.4461 23.6538 40.5003 23.5091 40.5511C22.8057 40.7984 22.0148 40.9237 21.1667 40.9237Z" fill="white"/>
<path d="M70.6265 39.2713C69.3206 39.2713 68.2672 39.1866 68.1797 39.1798L68.2335 38.5058C68.2739 38.5092 72.4338 38.8378 74.4935 38.1875C76.3681 37.5948 76.2873 35.9149 76.2873 35.8979C76.3378 34.4246 74.5372 33.544 72.7939 32.6939C71.9222 32.2672 71.0202 31.8269 70.3404 31.3087C68.2807 29.7372 68.3311 27.9218 68.348 27.6949C68.3244 24.8194 70.4716 23.3834 71.7573 22.7805C72.4742 22.4418 73.2651 22.2725 74.1031 22.2725H78.963V22.9498H74.1031C73.3627 22.9498 72.6694 23.0989 72.04 23.3935C70.65 24.0472 68.9942 25.3241 69.0211 27.7017V27.7186V27.7355C69.0143 27.7999 68.9066 29.3612 70.7476 30.7668C71.3736 31.2443 72.2049 31.6508 73.0867 32.0809C75.0219 33.0258 77.0278 34.0047 76.9571 35.8878C76.9571 35.8878 77.0581 38.0859 74.6921 38.831C73.5882 39.1798 71.9727 39.2713 70.6265 39.2713Z" fill="white"/>
<path d="M73.1471 40.9237H68.2031V40.2463H73.1471C73.9246 40.2463 74.6415 40.1346 75.2776 39.9178C75.4088 39.8738 75.5367 39.823 75.6579 39.7756C77.2801 39.1083 78.3268 37.5165 78.3268 35.7282V34.6105C78.3268 34.1872 78.2157 33.8011 78.0037 33.4895C77.1791 32.2871 75.2035 31.3016 73.7597 30.5768C73.0092 30.2042 72.363 29.8791 71.9995 29.5946C70.697 28.5717 70.8081 27.3457 70.8148 27.2915C70.8586 26.4922 71.1211 25.7911 71.5956 25.2255C72.0836 24.6429 72.814 24.3076 73.5981 24.3076H78.9628V24.985H73.5981C73.0125 24.985 72.4673 25.2322 72.1072 25.659C71.7302 26.1094 71.5182 26.6751 71.4812 27.3423C71.4778 27.3931 71.4139 28.2737 72.4101 29.056C72.7197 29.2999 73.339 29.6081 74.0525 29.9671C75.6478 30.763 77.6301 31.7554 78.5523 33.1C78.8417 33.5234 78.9965 34.0449 78.9965 34.6038V35.7215C78.9965 37.7875 77.7849 39.6231 75.9103 40.3954C75.7757 40.4496 75.6377 40.5037 75.4896 40.5545C74.7895 40.7984 73.9986 40.9237 73.1471 40.9237Z" fill="white"/>
<path d="M0.673114 40.4868H0V22.709H6.95663C7.43791 22.709 7.89226 22.7903 8.30959 22.9461C9.51783 23.3999 11.5574 24.6158 11.655 27.6403C11.7593 30.9222 9.56495 32.2973 8.5721 32.7545L14.7075 39.3556L14.2162 39.8196L7.81485 32.9272C7.72062 32.8256 7.68359 32.6834 7.71725 32.5479C7.75091 32.4158 7.84851 32.3074 7.9764 32.2634C8.49806 32.0805 11.0929 30.9967 10.9852 27.6606C10.8977 25.029 9.12742 23.9757 8.07737 23.5794C7.73408 23.4507 7.3605 23.3864 6.96 23.3864H0.673114V40.4868Z" fill="white"/>
<path d="M12.0664 40.8056L4.69244 32.2571L5.16699 32.0098C7.51616 30.7872 8.69411 30.1741 8.73113 27.9354C8.74459 27.214 8.54602 26.601 8.13879 26.12C7.61039 25.4901 6.83968 25.087 6.17666 25.087H2.89186V40.4906H2.21875V24.4062H6.18003C7.21325 24.4062 8.13542 25.0633 8.65372 25.6797C9.16865 26.2894 9.42107 27.0514 9.40424 27.9456C9.36049 30.479 7.94022 31.3223 5.76269 32.4603L12.578 40.3619L12.0664 40.8056Z" fill="white"/>
<path d="M28.3242 42.7225L44.7347 26.208L48.5378 29.6932L56.4435 21.0498L63.6223 28.1453C63.6257 28.1453 47.6426 29.0022 28.3242 42.7225Z" fill="#3C6031"/>
<path d="M28.5206 43.0002L28.0898 42.4854L44.7258 25.7406L48.5188 29.2155L56.4347 20.562L64.4077 28.4433L63.6437 28.484C63.4855 28.4907 47.526 29.5034 28.5206 43.0002ZM44.7494 26.6754L31.0717 40.4397C46.651 30.2214 59.6993 28.2232 62.873 27.8743L56.4582 21.5341L48.5592 30.1706L44.7494 26.6754Z" fill="white"/>
</svg>
