<svg width="29" height="28" viewBox="0 0 29 28" fill="none" xmlns="http://www.w3.org/2000/svg">
<path d="M21.3617 15.3765H21.3675C21.3675 15.3765 19.1683 18.6023 17.3192 20.9998C15.7208 23.0707 15.2542 24.844 15.12 25.7015C15.0675 26.0165 14.8108 26.2498 14.5017 26.2498C14.1925 26.2498 13.9358 26.0165 13.8833 25.7015C13.7492 24.844 13.2825 23.0707 11.6842 20.9998C11.4392 20.679 11.1883 20.3465 10.9375 20.0082L16.975 12.8332L21.8342 7.06982C22.3708 8.19566 22.6683 9.45566 22.6683 10.7915C22.6683 12.4832 22.1842 14.0523 21.3617 15.3765Z" fill="#48B564"/>
<path d="M16.9719 12.8333L10.9344 20.0083C9.28937 17.8033 7.63271 15.3767 7.63271 15.3767H7.63854C7.46354 15.0967 7.30604 14.8108 7.17188 14.5133L12.0252 8.75C11.5644 9.30417 11.2902 10.0158 11.2902 10.7917C11.2902 12.565 12.7252 14 14.4985 14C15.496 14 16.3885 13.545 16.9719 12.8333Z" fill="#FCC60E"/>
<path d="M17.068 2.76516L12.0689 8.7035L8.24219 5.36683C9.73552 3.51183 11.9872 2.3335 14.5014 2.3335C15.3997 2.3335 16.263 2.48516 17.068 2.76516Z" fill="#2C85EB"/>
<path d="M12.0662 8.70337L12.0254 8.75003L7.17203 14.5134C6.63536 13.3875 6.33203 12.1275 6.33203 10.7917C6.33203 8.7267 7.04953 6.83087 8.23953 5.3667L12.0662 8.70337Z" fill="#ED5748"/>
<path d="M16.974 12.8335C17.4348 12.2793 17.709 11.5676 17.709 10.7918C17.709 9.01847 16.274 7.58347 14.5007 7.58347C13.5032 7.58347 12.6107 8.03847 12.0273 8.75014L17.0673 2.76514C19.1615 3.4768 20.8765 5.04597 21.8332 7.07014L16.974 12.8335Z" fill="#5695F6"/>
</svg>
