<svg width="32" height="32" viewBox="0 0 32 32" fill="none" xmlns="http://www.w3.org/2000/svg">
<path d="M9.48224 1.33309C10.4482 1.32673 11.3837 1.67053 12.1164 2.30054C12.7602 2.85423 13.2097 3.59586 13.4028 4.41643L13.4692 4.7732L13.4705 4.78492C13.6261 5.96439 13.9142 7.12336 14.3299 8.23804L14.421 8.50888C14.6102 9.14747 14.6374 9.8246 14.4979 10.4789C14.3384 11.2268 13.9678 11.913 13.4302 12.4568L13.425 12.4633L12.4705 13.4164C14.0383 15.8763 16.1254 17.9617 18.5851 19.5297L19.5447 18.5714C20.0884 18.0338 20.7749 17.6632 21.5226 17.5037C22.2692 17.3444 23.0461 17.4025 23.7609 17.6703C24.8763 18.0866 26.0363 18.3753 27.2166 18.531L27.2283 18.5323C28.1997 18.6694 29.0876 19.1589 29.7218 19.9073C30.3489 20.6474 30.6831 21.5905 30.6671 22.5597L30.6684 26.5544C30.6707 27.1114 30.5569 27.6626 30.3338 28.1729C30.1107 28.6833 29.7833 29.1414 29.3729 29.518C28.9625 29.8945 28.4785 30.182 27.951 30.3604C27.4234 30.5389 26.8638 30.6046 26.3091 30.5544C26.3011 30.5537 26.2923 30.5527 26.2843 30.5518C21.9745 30.0834 17.8344 28.6111 14.1971 26.2524C10.8151 24.1011 7.94716 21.2318 5.79735 17.8487C3.43412 14.1972 1.96249 10.0399 1.50308 5.71461C1.50236 5.70784 1.50109 5.70055 1.50047 5.69377C1.4505 5.14084 1.51733 4.58321 1.69448 4.05705C1.87172 3.53083 2.15608 3.04659 2.53042 2.63648C2.90481 2.22634 3.36099 1.89862 3.86896 1.67424C4.37682 1.44996 4.92576 1.33364 5.48094 1.33309H9.48224ZM5.48354 3.99976C5.29845 3.99994 5.11509 4.03826 4.94578 4.11304C4.77649 4.18783 4.62525 4.29797 4.50047 4.43466C4.37579 4.57125 4.28092 4.73207 4.22183 4.90731C4.165 5.07603 4.14223 5.25466 4.15542 5.43205L4.24396 6.16382C4.70734 9.57017 5.8668 12.8447 7.65021 15.7836L8.04084 16.4086L8.04735 16.4177C9.98942 19.474 12.581 22.0655 15.6372 24.0076L15.6476 24.0141C18.9295 26.1424 22.6644 27.4725 26.5526 27.8982C26.7363 27.9143 26.922 27.8935 27.0968 27.8344C27.2726 27.7749 27.4341 27.6786 27.5708 27.5531C27.7074 27.4277 27.8168 27.2752 27.8911 27.1052C27.9655 26.9351 28.0025 26.7505 28.0018 26.5649V22.5597C28.0018 22.5488 28.0028 22.538 28.0031 22.5271C28.0112 22.2002 27.8981 21.8808 27.6867 21.6313C27.4778 21.385 27.1868 21.2221 26.8677 21.1742C25.4881 20.9923 24.1336 20.6555 22.8299 20.169L22.826 20.1677C22.5877 20.0783 22.3288 20.0588 22.0799 20.1117C21.8306 20.1649 21.601 20.2893 21.4197 20.4685L19.7322 22.156C19.3078 22.5804 18.6511 22.6688 18.1294 22.3722C14.5829 20.3555 11.646 17.4187 9.62938 13.8722C9.33292 13.3504 9.4225 12.6949 9.84683 12.2706L11.5356 10.5805C11.714 10.3995 11.8368 10.1715 11.8898 9.92294C11.943 9.67363 11.9235 9.41416 11.8338 9.17554L11.8325 9.17294C11.3474 7.87301 11.011 6.52232 10.8286 5.1469L10.8065 5.02711C10.7421 4.7539 10.5924 4.50711 10.3781 4.32268C10.1328 4.11171 9.8188 3.99658 9.49526 3.99976H5.48354ZM18.8585 6.67164L18.994 6.69117L19.2869 6.75497C20.7464 7.10007 22.0819 7.84906 23.1385 8.91903C24.1951 9.98906 24.9264 11.3342 25.2531 12.7979L25.313 13.0922L25.3312 13.2263C25.3862 13.9001 24.923 14.5192 24.244 14.6443C23.5198 14.7777 22.8239 14.2982 22.6906 13.574C22.4968 12.5227 21.9925 11.5534 21.2414 10.7927C20.5838 10.1269 19.7639 9.64748 18.8664 9.3995L18.4783 9.30836L18.3455 9.2745C17.6991 9.0775 17.2941 8.41927 17.4276 7.74195C17.5611 7.06464 18.1857 6.60856 18.8585 6.67164ZM18.8755 1.34091C21.8949 1.65909 24.7153 2.99782 26.8703 5.13648C28.8907 7.14172 30.2132 9.73749 30.6515 12.5401L30.727 13.1039L30.7361 13.2393C30.7439 13.915 30.2384 14.5001 29.5526 14.5779C28.8666 14.6554 28.2428 14.1979 28.0994 13.5375L28.0773 13.4034L28.0174 12.9529C27.6669 10.7106 26.609 8.63404 24.9927 7.02971C23.2686 5.31856 21.0112 4.24649 18.5955 3.99195C17.8636 3.91457 17.3324 3.2591 17.4093 2.52711C17.4865 1.79478 18.1431 1.26374 18.8755 1.34091Z" fill="#71B15E"/>
</svg>
