<svg width="24" height="25" viewBox="0 0 24 25" fill="none" xmlns="http://www.w3.org/2000/svg">
<path d="M21 13.1182L19 12.1182V21.5H20C20.2652 21.5 20.5195 21.3946 20.707 21.207C20.8945 21.0195 21 20.7652 21 20.5V13.1182ZM13 18.5C12.9999 18.2349 12.8945 17.9805 12.707 17.793C12.5429 17.6289 12.3276 17.5276 12.0986 17.5049L12 17.5C11.7348 17.5 11.4805 17.6055 11.293 17.793C11.1055 17.9805 11.0001 18.2349 11 18.5V21.5H13V18.5ZM13 9.5C12.9999 8.94783 12.5522 8.5 12 8.5C11.4478 8.5 11.0001 8.94783 11 9.5C11 10.0523 11.4477 10.5 12 10.5C12.5523 10.5 13 10.0523 13 9.5ZM3 20.5C3 20.7652 3.10551 21.0195 3.29297 21.207C3.4805 21.3946 3.73478 21.5 4 21.5H5V12.1182L3 13.1182V20.5ZM23 20.5C23 21.2956 22.6836 22.0585 22.1211 22.6211C21.5585 23.1837 20.7956 23.5 20 23.5H4C3.20435 23.5 2.44151 23.1837 1.87891 22.6211C1.31637 22.0585 1 21.2956 1 20.5V13.1182L1.00488 12.9785C1.02756 12.6559 1.12797 12.3426 1.29883 12.0664C1.49405 11.7508 1.77358 11.4961 2.10547 11.3301L5 9.88184V7.11817L4.44726 7.39453C3.95329 7.64152 3.35246 7.44125 3.10547 6.94727C2.85864 6.45333 3.05882 5.85242 3.55273 5.60547L10.6592 2.05273L10.8174 1.97949C11.1905 1.81943 11.5928 1.73633 12 1.73633L12.1738 1.74121C12.5793 1.76474 12.9764 1.87066 13.3408 2.05273L20.4473 5.60547L20.5361 5.65625C20.9643 5.9275 21.1259 6.48416 20.8945 6.94727C20.6629 7.41042 20.1204 7.61535 19.6465 7.43555L19.5527 7.39453L19 7.11817V9.88184L21.8945 11.3301H21.8935C22.2257 11.4961 22.5058 11.7506 22.7012 12.0664C22.8965 12.3822 22.9998 12.7468 23 13.1182V20.5ZM15 21.5H17V6.11817L12.4473 3.8418C12.3433 3.78984 12.2311 3.7566 12.1162 3.74316L12 3.73633C11.8835 3.73633 11.7681 3.75641 11.6592 3.7959L11.5527 3.8418L7 6.11817V21.5H9V18.5C9.00006 17.7044 9.31635 16.9415 9.8789 16.3789C10.4415 15.8164 11.2044 15.5 12 15.5L12.2969 15.5147C12.9835 15.5829 13.6289 15.8868 14.1211 16.3789C14.6836 16.9415 14.9999 17.7044 15 18.5V21.5ZM15 9.5C15 11.1569 13.6568 12.5 12 12.5C10.3431 12.5 9 11.1569 9 9.5C9.00013 7.84326 10.3432 6.5 12 6.5C13.6568 6.5 14.9999 7.84326 15 9.5Z" fill="white"/>
</svg>
