<svg width="146" height="146" viewBox="0 0 146 146" fill="none" xmlns="http://www.w3.org/2000/svg">
<rect x="30.9219" y="30.9263" width="84" height="84" rx="42" fill="#FCE2A2"/>
<path d="M74.2552 66.2596C74.2552 65.5524 74.5364 64.8743 75.0365 64.3742C75.5366 63.8741 76.2146 63.593 76.9219 63.593H79.5885V60.9263H76.9219C75.5074 60.9263 74.1512 61.4886 73.151 62.4888C72.1508 63.489 71.5885 64.8452 71.5885 66.2596V70.2596C71.5885 70.996 70.9916 71.593 70.2552 71.593H67.5885V74.2596H70.2552C70.9916 74.2596 71.5885 74.8566 71.5885 75.593V84.9263H74.2552V75.593C74.2552 74.8566 74.8522 74.2596 75.5885 74.2596H78.5482L79.2148 71.593H75.5885C74.8522 71.593 74.2552 70.996 74.2552 70.2596V66.2596ZM76.9219 68.9263H80.9219C81.3325 68.9263 81.72 69.1157 81.9727 69.4393C82.2252 69.7629 82.3143 70.1844 82.2148 70.5826L80.8815 75.9159C80.7331 76.5095 80.2004 76.9263 79.5885 76.9263H76.9219V86.2596C76.9219 86.996 76.3249 87.593 75.5885 87.593H70.2552C69.5188 87.593 68.9219 86.996 68.9219 86.2596V76.9263H66.2552C65.5188 76.9263 64.9219 76.3294 64.9219 75.593V70.2596C64.9219 69.5233 65.5188 68.9263 66.2552 68.9263H68.9219V66.2596C68.9219 64.1379 69.7653 62.1037 71.2656 60.6034C72.7659 59.1031 74.8001 58.2596 76.9219 58.2596H80.9219C81.6583 58.2596 82.2552 58.8566 82.2552 59.593V64.9263C82.2552 65.6627 81.6583 66.2596 80.9219 66.2596H76.9219V68.9263Z" fill="black"/>
<path d="M19.793 70.8029L7.0728 69.3403C6.30784 69.2523 5.80744 68.5969 5.89539 67.8319C5.98335 67.067 6.61695 66.5641 7.38191 66.652L19.0093 67.989L19.806 61.0606C19.8839 60.3831 20.4931 59.8995 21.1706 59.9774C21.8482 60.0553 22.3317 60.6646 22.2538 61.3421L21.3039 69.6037C21.2159 70.3686 20.5579 70.8909 19.793 70.8029ZM17.2578 55.4902L19.247 49.8699C17.5914 49.4706 15.9679 49.9695 15.3807 51.6286C14.8301 53.184 15.6171 54.6528 17.2578 55.4902ZM24.8005 50.2019C25.34 51.513 25.4668 52.9348 24.8576 54.6562C23.7418 57.8085 20.5662 59.4617 17.1857 58.2652L17.1442 58.2505C13.9919 57.1348 12.2264 54.0128 13.3348 50.8811C14.568 47.397 18.0393 46.6886 20.5695 47.5841C21.2954 47.8411 21.5815 48.5491 21.354 49.192L18.9242 56.0567C20.824 56.4257 22.2392 55.5264 22.8191 53.888C23.1934 52.8303 23.1064 51.8893 22.7826 50.9579C22.7035 50.7199 22.6719 50.5453 22.782 50.2342C22.9802 49.6743 23.5699 49.3929 24.1506 49.5984C24.4617 49.7086 24.6799 49.9492 24.8005 50.2019ZM29.1635 45.4195C28.1747 47.1095 26.7342 47.8725 24.5315 46.5837L19.2527 43.4951L19.0305 43.8749C18.7083 44.4256 18.0161 44.6068 17.4654 44.2846C16.9147 43.9624 16.7335 43.2701 17.0557 42.7195L17.2779 42.3397L15.5689 41.3398C14.9423 40.9732 14.7185 40.1795 15.1073 39.5149C15.4739 38.8883 16.2866 38.6756 16.9132 39.0422L18.6222 40.0421L19.6777 38.2382C19.9998 37.6875 20.7032 37.4873 21.2539 37.8095C21.8046 38.1317 21.9747 38.8429 21.6525 39.3936L20.597 41.1975L25.5151 44.075C26.4075 44.5972 27.035 44.3526 27.4905 43.574C27.6571 43.2892 27.7224 43.047 27.7668 42.971C28.0668 42.4583 28.7512 42.247 29.2828 42.5581C29.7196 42.8136 29.8757 43.2873 29.8198 43.6879C29.6907 44.3006 29.519 44.8119 29.1635 45.4195ZM22.675 36.9796C22.4106 36.7822 22.4012 36.5006 22.5018 36.2188C22.856 35.1928 22.6299 34.3925 21.8103 33.8354C21.3052 34.2545 20.5136 34.4322 19.879 33.9584L19.738 33.8531C19.0505 33.3397 18.9123 32.4952 19.4519 31.7725C20.0311 30.9968 20.9813 30.9376 21.9509 31.6615L22.1272 31.7932C23.3259 32.6882 23.9175 33.6242 24.0559 34.5787C24.1765 35.41 23.9452 36.3081 23.5766 36.8017C23.3002 37.1719 22.9571 37.1902 22.675 36.9796ZM36.5251 36.4052C35.484 37.4794 34.0656 38.3106 32.4523 38.6159C32.1427 38.7141 31.7526 38.6424 31.4367 38.3362C31.0101 37.9228 30.9841 37.2542 31.4128 36.8119C31.5506 36.6697 31.72 36.5581 31.9215 36.5083C33.2553 36.2385 34.3195 35.6462 35.0545 34.8879C35.8506 34.0664 35.9624 33.2556 35.4095 32.7197L35.3779 32.6891C34.746 32.0767 33.6516 32.7317 32.4022 33.4202C30.8915 34.3151 29.0228 35.2001 27.4272 33.6537L27.3956 33.623C25.8158 32.0919 26.123 29.8467 27.7306 28.188C28.588 27.3033 29.7442 26.6162 30.9516 26.2239C31.354 26.0931 31.7905 26.1486 32.1223 26.4701C32.5646 26.8988 32.5595 27.5679 32.1308 28.0102C31.9624 28.184 31.8543 28.2324 31.6686 28.2975C30.6468 28.6246 29.7678 29.1207 29.2013 29.7052C28.4817 30.4477 28.4 31.1958 28.8897 31.6704L28.9213 31.7011C29.5217 32.2829 30.6787 31.658 31.9282 30.9695C33.471 30.1363 35.3713 29.282 36.8721 30.7365L36.9037 30.7671C38.6572 32.4667 38.2093 34.6674 36.5251 36.4052ZM51.4294 26.4958C47.1186 28.6477 42.7513 26.992 40.7468 22.9766L40.7271 22.9372C38.8012 19.0792 40.103 14.3476 44.2759 12.2645C46.3427 11.2327 47.9564 11.0173 49.678 11.3136C50.0026 11.3728 50.4255 11.5797 50.6614 12.0521C50.9856 12.7017 50.749 13.5083 50.0601 13.8522C49.7451 14.0094 49.4598 13.9797 49.1745 13.95C47.9645 13.7427 46.7838 13.7911 45.2878 14.5379C42.7683 15.7956 41.9398 19.0123 43.2467 21.6303L43.2663 21.6696C44.6813 24.5041 47.5928 25.6571 50.4076 24.252C51.7264 23.5936 52.6814 22.6005 53.2133 21.5481L51.9261 18.9695L49.2098 20.3255C48.5996 20.6301 47.911 20.4329 47.6064 19.8227C47.3018 19.2125 47.5482 18.524 48.1584 18.2194L51.9967 16.3033C52.6856 15.9594 53.4824 16.2255 53.8263 16.9145L55.6638 20.5953C55.9979 21.2646 55.9778 21.9139 55.5838 22.5532C54.7958 23.9301 53.4961 25.4641 51.4294 26.4958ZM59.3154 16.2039L65.1623 15.0382C64.6585 13.4114 63.3993 12.2715 61.6733 12.6156C60.0552 12.9382 59.1957 14.3658 59.3154 16.2039ZM67.7178 19.98C66.8671 21.1142 65.7103 21.9505 63.9196 22.3075C60.6401 22.9613 57.5952 21.0783 56.8941 17.5615L56.8855 17.5184C56.2317 14.2389 58.0112 11.1249 61.2691 10.4754C64.8937 9.75275 67.2781 12.3731 67.8028 15.0053C67.9534 15.7605 67.4913 16.3686 66.8225 16.5019L59.681 17.9256C60.3357 19.7468 61.8324 20.5028 63.5369 20.1629C64.6372 19.9436 65.4013 19.3875 66.036 18.6328C66.2 18.4431 66.3338 18.3267 66.6575 18.2621C67.24 18.146 67.7834 18.5088 67.9039 19.1129C67.9684 19.4365 67.8733 19.7471 67.7178 19.98ZM74.0596 21.2479C72.1018 21.2749 70.7041 20.4362 70.6688 17.8844L70.5842 11.769L70.1442 11.7751C69.5063 11.7839 68.9933 11.285 68.9845 10.647C68.9757 10.0091 69.4746 9.49615 70.1126 9.48732L70.5525 9.48124L70.5251 7.50143C70.5151 6.7755 71.0788 6.17364 71.8487 6.16299C72.5747 6.15295 73.1768 6.73867 73.1869 7.4646L73.2143 9.44442L75.3041 9.41551C75.942 9.40668 76.477 9.90533 76.4858 10.5433C76.4946 11.1812 75.9737 11.6945 75.3357 11.7033L73.2459 11.7322L73.3247 17.4297C73.339 18.4636 73.8728 18.8742 74.7747 18.8617C75.1047 18.8572 75.3457 18.7878 75.4337 18.7866C76.0276 18.7784 76.5623 19.255 76.5708 19.871C76.5778 20.3769 76.253 20.7555 75.8812 20.9146C75.29 21.1208 74.7636 21.2381 74.0596 21.2479ZM88.0448 23.7771C85.9916 23.1952 84.3241 22.0595 83.0059 20.3368C82.7544 20.014 82.6599 19.6213 82.7798 19.198C82.9718 18.5207 83.6721 18.1475 84.3494 18.3394C84.7092 18.4414 84.9181 18.5921 85.0454 18.7882C86.0123 20.137 87.1535 21.032 88.7621 21.4879C90.3708 21.9438 91.6027 21.4698 91.9146 20.3691L91.9266 20.3268C92.2206 19.2897 91.8019 18.5079 89.2242 17.1142C86.2804 15.4796 84.7783 14.002 85.5462 11.2927L85.5582 11.2504C86.278 8.71043 88.8925 7.5535 91.8347 8.38732C93.6973 8.91521 95.047 9.80078 96.1437 11.0949C96.4132 11.3542 96.5652 11.786 96.4212 12.294C96.2293 12.9713 95.529 13.3445 94.8517 13.1525C94.6188 13.0865 94.404 12.9571 94.2283 12.7701C93.2741 11.6993 92.3238 11.0184 91.1385 10.6825C89.6145 10.2506 88.5096 10.7606 88.2276 11.7554L88.2156 11.7977C87.8917 12.9407 88.425 13.6407 91.0905 15.1278C93.9741 16.814 95.3039 18.3342 94.6021 20.8107L94.5901 20.853C93.7982 23.6469 91.1562 24.6589 88.0448 23.7771ZM99.1451 28.783C96.0755 27.0157 95.1568 23.3644 96.8034 20.5045L96.8253 20.4663C98.4828 17.5874 102.143 16.5214 105.231 18.2996C108.339 20.0888 109.239 23.7292 107.581 26.6081L107.559 26.6463C105.924 29.4871 102.253 30.5722 99.1451 28.783ZM100.347 26.7839C102.234 27.8706 104.232 27.0912 105.23 25.3562L105.252 25.3181C106.273 23.545 105.841 21.3414 104.03 20.2986C102.18 19.2339 100.164 20.0023 99.1542 21.7564L99.1323 21.7945C98.1224 23.5486 98.5737 25.7631 100.347 26.7839ZM109.167 36.3999C106.646 34.0385 106.634 30.3189 108.89 27.9106L108.92 27.8785C111.176 25.4702 114.934 25.192 117.486 27.5835C118.835 28.847 119.328 30.1228 119.464 31.4258C119.487 31.6585 119.438 32.0647 119.137 32.3859C118.671 32.8836 117.909 32.8929 117.411 32.4266C117.17 32.201 117.037 31.9252 117.014 31.6925C116.922 30.7927 116.647 29.9923 115.876 29.2704C114.463 27.9468 112.277 28.1893 110.893 29.6664L110.863 29.6985C109.449 31.2077 109.364 33.3895 110.858 34.7883C111.628 35.5103 112.508 35.7617 113.459 35.8085C113.677 35.8014 113.943 35.8705 114.184 36.0962C114.65 36.5323 114.658 37.2636 114.222 37.7292C113.981 37.9861 113.689 38.1046 113.378 38.0836C111.946 38.0992 110.58 37.7235 109.167 36.3999ZM124.718 31.1482L124.822 31.0664C125.444 30.5758 126.25 30.7804 126.781 31.454C127.313 32.1275 127.325 32.9591 126.703 33.4497L126.599 33.5315C125.977 34.0221 125.154 33.8311 124.623 33.1575C124.091 32.484 124.097 31.6388 124.718 31.1482ZM114.323 39.6033L121.542 33.9066C122.147 33.4296 122.937 33.5071 123.414 34.1115C123.891 34.716 123.796 35.5194 123.191 35.9963L115.972 41.693C115.368 42.17 114.582 42.0617 114.105 41.4572C113.655 40.8873 113.719 40.0803 114.323 39.6033ZM117.442 47.1368C116.371 45.2403 116.492 42.9487 118.542 41.7913L118.58 41.7696C120.783 40.5257 122.799 41.6357 124.195 44.1069C124.844 45.2563 125.115 46.1391 125.309 47.0652L125.558 46.9246C127.014 46.1025 127.264 44.7994 126.344 43.171C125.836 42.2707 125.283 41.6484 124.677 41.1568C124.562 41.0444 124.468 40.9211 124.414 40.8253C124.111 40.2889 124.283 39.6103 124.82 39.3074C125.26 39.0586 125.757 39.1321 126.096 39.4204C127.012 40.1919 127.783 41.0199 128.529 42.3417C129.384 43.8551 129.628 45.1826 129.292 46.3324C128.966 47.5014 128.108 48.4412 126.786 49.1876L121.805 52C121.173 52.357 120.413 52.1293 120.056 51.4972C119.677 50.8267 119.877 50.1073 120.394 49.8152L120.778 49.5989C119.564 49.3744 118.318 48.6885 117.442 47.1368ZM119.495 46.8362C120.361 48.3688 121.883 49.0506 123.185 48.315L123.875 47.9256C123.77 47.2019 123.499 46.3192 122.979 45.3996C122.125 43.8862 121.025 43.3703 119.952 43.9761L119.914 43.9977C118.937 44.5494 118.857 45.706 119.495 46.8362ZM122.537 53.8217L135.321 49.0671C136.002 48.814 136.75 49.1225 137.019 49.8442C137.287 50.5659 136.93 51.309 136.249 51.5621L123.465 56.3168C122.743 56.5852 122.028 56.2408 121.76 55.5191C121.507 54.8386 121.815 54.0902 122.537 53.8217ZM128.417 58.0899L136.486 55.2686C137.297 54.9742 137.98 55.2562 138.189 56.0883L138.361 56.7711C138.57 57.6032 138.101 58.1747 137.248 58.2984L128.808 59.6475C128.301 59.7068 127.954 59.4991 127.841 59.0511C127.734 58.6243 127.942 58.2772 128.417 58.0899ZM124.218 58.3509L124.431 58.2973C125.263 58.0883 126.069 58.5889 126.284 59.4424C126.504 60.3172 126.024 61.1181 125.192 61.3272L124.979 61.3808C124.147 61.5899 123.346 61.1106 123.126 60.2357C122.912 59.3823 123.385 58.56 124.218 58.3509Z" fill="black"/>
</svg>
