<svg width="21" height="20" viewBox="0 0 21 20" fill="none" xmlns="http://www.w3.org/2000/svg">
<path d="M3.56424 3.33927C3.53712 3.38717 3.37133 3.51721 3.31744 3.58859C3.27049 3.41377 3.65947 3.16543 3.56424 3.33927ZM11.3425 11.0335C11.3079 11.0179 11.2733 11.0021 11.2388 10.9861C11.2108 11.0126 11.2316 11.0595 11.1936 11.0866C11.1872 11.0911 11.0839 11.0651 11.0778 11.077C11.0716 11.0891 11.2153 11.103 11.2287 11.1226C11.2431 11.1432 11.1339 11.2317 11.1339 11.27C11.1337 11.4084 11.2111 11.5628 11.1519 11.7376C11.0453 11.5602 10.936 11.7368 10.9832 11.7924C10.9944 11.8057 11.261 11.793 11.1991 11.9947C11.1611 12.1299 10.772 12.0136 10.9748 12.2476C11.2346 12.0504 11.223 12.225 11.2409 12.3876C11.2436 12.4116 11.2176 12.6563 11.2375 12.8007C11.2443 12.8487 11.3885 12.9145 11.3959 12.9941C11.4007 13.0477 11.3258 13.0893 11.3329 13.1861C11.3394 13.2752 11.3453 13.3901 11.3475 13.5199C11.3644 12.4952 10.9784 11.6324 10.6625 11.1977C10.5752 11.7339 10.3655 11.0217 10.3409 11.0412C10.1817 10.9835 10.5281 11.5239 10.33 11.345C10.1329 11.0359 9.97246 10.8647 9.85482 10.7427C9.99292 10.8061 9.91051 10.3864 9.80987 10.465C9.8947 10.3681 9.80021 10.3214 9.69254 10.328C9.35004 10.2215 9.05086 10.3209 9.03816 10.2486C9.03708 10.2258 9.15981 10.0951 8.94306 10.1063C8.92335 10.1094 8.90589 10.2044 8.89986 10.1935C8.89847 10.1875 8.93583 9.88152 8.87654 10.042C8.86483 10.1028 8.83442 10.3008 8.80435 10.2135C8.83639 10.0608 8.82048 10.016 8.83316 10.0241C8.84315 10.0322 8.90119 10.0914 8.92353 10.1311C8.91644 10.089 8.91014 10.0468 8.90481 10.0046C8.93829 10.1193 8.95497 10.0136 8.96455 10.0197C9.00625 10.0443 9.08142 10.1518 9.14118 10.1414C9.21139 10.1294 9.20652 9.93579 9.29802 10.0086C9.27517 9.96656 9.25292 9.92439 9.23179 9.88211C9.29095 9.89107 9.35512 9.89924 9.424 9.90659C9.2783 10.1691 9.45771 9.91762 9.47183 9.91116C9.49232 9.90085 9.46702 10.0072 9.50177 9.99241C9.50544 9.99006 9.49486 9.89167 9.5498 9.87771C9.66667 9.84848 9.65659 9.97333 9.70858 9.96883C9.71357 9.96785 9.69031 9.88018 9.78167 9.85319C10.0818 9.76559 9.78303 9.92172 9.77401 9.93443C9.76129 9.95134 9.88202 10.3174 9.62825 10.2002C9.71154 10.2376 9.73136 10.4012 9.7409 10.4048C9.74872 10.4078 9.8978 10.3748 9.90673 10.3684C9.97912 10.3073 9.90417 10.1996 9.91765 10.1785C9.9272 10.1616 10.1301 10.294 10.1527 9.95266C10.2729 10.2567 10.1161 10.2402 9.96795 10.2988C9.94952 10.3644 10.1239 10.4143 10.134 10.4133C10.176 10.41 10.2058 10.3987 10.2261 10.3814C10.2086 10.3141 10.2025 10.1191 10.1832 9.98681C10.1692 9.90176 10.1648 10.0785 10.1618 9.84721C10.1054 9.82908 10.1549 9.95787 10.1533 9.97787C10.1527 10.0071 10.1274 9.94403 10.1263 9.95312C10.1255 9.96641 10.1468 10.0438 10.1404 10.0732C10.1404 10.0773 10.0975 9.94523 10.1138 9.87624C10.0818 9.90106 10.0615 9.78631 10.0961 10.0197C9.98247 9.58763 10.1364 10.2808 10.1383 10.3059C10.1419 10.3728 10.0603 10.0322 10.0555 10.0158C10.0188 9.91165 10.0004 10.0427 9.97771 9.99786C10.0641 10.2347 10.0108 9.98966 10.0361 10.0335C10.1013 10.1842 10.0432 10.1629 10.1512 10.4615C10.1229 10.3791 10.0923 10.2975 10.0595 10.2168C10.1216 10.411 10.157 10.4927 10.1262 10.4247C10.0599 10.2617 10.1403 10.449 10.0905 10.3198C10.0611 10.2439 10.0464 10.2309 10.0302 10.1912C10.0103 10.1436 10.0416 10.197 10.0118 10.1234C9.94014 9.96724 9.97957 10.1282 10.0336 10.2065C10.0263 10.2065 10.1694 10.5158 10.1282 10.4178C10.0955 10.3571 9.90206 9.92782 9.92557 10.0125C10.0008 10.1547 9.94947 10.0537 9.95679 10.0637C9.96432 10.0799 10.1239 10.406 10.1328 10.4216C10.1599 10.4743 10.0978 10.2871 10.2134 10.4289C10.0916 10.2583 10.2463 10.3613 10.2206 10.3C10.2119 10.2844 10.1275 10.187 10.1215 10.1745C10.0828 10.1026 10.2626 10.2532 10.2903 10.2373C10.3189 10.2217 10.2431 10.1403 10.2445 10.1394C10.259 10.1349 10.3003 10.1989 10.3068 10.1929C10.3155 10.1855 10.4013 10.1263 10.3951 10.1097C10.3927 10.1052 10.292 10.0263 10.2914 9.99325C10.2913 9.98722 10.3945 10.0977 10.4002 9.99872C10.4054 9.88041 10.2239 9.91221 10.137 9.77535C10.3338 9.89457 10.1736 9.74017 10.1957 9.74224C10.2033 9.74333 10.3691 9.84267 10.3922 9.79842C10.3927 9.84415 10.3931 9.8893 10.3934 9.93382C10.4393 9.9335 10.4526 9.85753 10.4997 9.86012C10.5228 9.86131 10.6321 9.97218 10.6502 9.9447C10.6537 9.9378 10.3824 9.67404 10.4592 9.84423C10.3536 9.7599 10.444 9.79008 10.4266 9.75162C10.424 9.74549 10.2584 9.59224 10.3797 9.66563C10.4097 9.68294 10.8753 10.1543 10.6123 9.72247C10.6036 9.70878 10.5277 9.6719 10.5176 9.65717C10.5106 9.64739 10.5628 9.63511 10.5565 9.62403C10.5495 9.61263 10.4662 9.57319 10.4557 9.55783C10.4007 9.48021 10.7078 9.66597 10.6481 9.69881C10.6956 9.70956 10.7435 9.71955 10.7918 9.7288C10.5639 9.58441 10.7516 9.65682 10.7633 9.62678C10.8357 9.4365 10.6158 9.44217 10.5617 9.36253C10.4728 9.23635 10.8267 9.53361 10.7594 9.38749C10.7528 9.37362 10.5367 9.34628 10.7348 9.24786C10.7254 9.27605 10.7159 9.30405 10.7063 9.33181C10.9312 9.46376 10.7493 9.23501 10.7492 9.22825C10.7608 9.14404 10.8125 9.23819 10.7599 9.06914C10.7551 9.05408 10.8218 9.06807 10.806 9.03227C10.7404 8.88576 10.6746 9.09459 10.5826 9.04142C10.5379 9.01741 10.664 8.83454 10.6889 8.83834C10.7998 8.86388 10.6778 8.95189 10.8069 8.9981C10.8545 9.01564 10.9338 8.67367 11.0094 8.63539C11.0992 8.5937 11.4324 8.71417 11.0767 8.53993C11.4361 8.69007 11.2066 8.55522 11.2132 8.54757C11.2172 8.54315 11.2209 8.53893 11.2245 8.53491C11.0534 9.00506 11.0495 9.04066 10.9237 9.47661C10.8981 9.57836 11.0061 9.67427 10.9828 9.70459C10.9689 9.72293 10.8464 9.67229 10.7988 9.76685C10.7652 9.83261 10.7723 10.07 10.8186 10.2437C10.8632 10.4223 10.9345 10.5374 10.9712 10.5479C11.0445 10.5756 10.9733 10.3379 11.0936 10.3679C11.1245 10.5507 11.1261 10.6831 11.1628 10.7725C11.1782 10.8078 11.2502 10.7668 11.2558 10.7809C11.2594 10.7919 11.22 10.8979 11.1902 10.9011C11.1572 10.9102 11.1302 10.8565 11.0888 10.7539C11.048 10.6564 11.0021 10.5201 10.9492 10.6244C10.9291 10.6678 11.132 10.7243 10.9094 10.7599C11.0904 11.2147 11.1248 11.0186 10.9961 10.7271C11.2394 10.8049 11.1686 11.0023 11.1716 10.9737C11.1736 10.9738 11.1421 10.9538 11.2491 10.915C11.3011 10.9636 11.2186 10.9163 11.2195 10.7695C11.2196 10.7647 11.316 10.7275 11.3226 10.7062C11.3359 10.6679 11.1377 10.6554 11.1626 10.6144C11.1696 10.6066 11.3198 10.596 11.3832 10.5349C11.5449 10.3767 11.1192 10.6131 11.0986 10.5677C11.0881 10.5402 11.1243 10.151 10.9422 10.1395C10.7577 10.1425 11.0029 10.4123 10.8755 10.4529C10.738 10.3817 10.6738 10.239 10.6014 10.0728L12.0982 11.6151C12.0375 11.557 11.9805 11.4997 11.9109 11.4625C11.9077 11.4609 11.8787 11.563 11.8332 11.5506C11.7543 11.5294 11.815 11.3973 11.7954 11.3575C11.7733 11.3143 11.641 11.255 11.6522 11.2002C11.6537 11.193 11.755 11.0879 11.7608 11.0868C11.8454 11.0705 11.7654 11.2394 11.7689 11.2444C11.7833 11.2619 11.8394 11.2134 11.8539 11.2276C11.878 11.2513 11.8572 11.316 11.8901 11.3439C11.9127 11.3634 11.9567 11.2417 11.9776 11.262C11.9851 11.2698 11.9247 11.5735 12.0925 11.3319C12.1466 11.2534 11.4259 10.6591 11.3073 10.6775C11.357 10.749 11.4049 10.8198 11.4541 10.8917C11.3619 10.7336 11.0764 10.8357 11.2446 10.5312C10.7487 10.1994 10.2503 9.8838 9.74412 9.58317C9.66594 9.50836 9.8201 9.33683 9.63613 9.31398C9.64376 9.39822 9.64932 9.48149 9.65601 9.56545C9.60195 9.47976 9.29617 9.21261 9.21748 9.22522C9.20732 9.22689 9.10638 9.40227 9.01057 9.37371C8.92621 9.3487 8.98011 9.20641 8.95146 9.15983C8.92624 9.12063 8.86888 9.13665 8.86216 9.12404C8.85704 9.11406 8.89496 9.02947 8.88216 9.00521C8.84183 8.92987 8.7777 9.18883 8.84773 8.88974C8.86762 8.88674 8.8876 8.88379 8.90767 8.8809C8.85266 8.80572 8.80657 8.63234 8.94845 8.62663C8.97292 8.62566 8.91716 8.69819 8.93149 8.705C9.49312 8.96313 9.13005 8.58864 8.87028 8.61779C8.87548 8.51154 8.70217 8.44842 8.60912 8.41086L9.21763 8.63813C9.22891 8.64346 9.23435 8.64535 9.23676 8.63886C9.24843 8.60271 9.26634 8.4978 9.29906 8.4115C9.33051 8.39778 9.24359 8.45818 9.29951 8.28858C9.3191 8.25456 9.33877 8.29764 9.32858 8.29016C9.40498 8.01798 9.25221 8.40041 9.24384 8.39C9.20226 8.34054 9.36522 8.15965 9.26042 8.11338C9.16021 8.07749 9.23807 8.27458 9.19084 8.35038C9.17221 8.39293 9.03858 8.17605 9.02396 8.44425C8.96778 8.46988 9.00691 8.32985 9.00073 8.31928C8.99556 8.3098 8.87386 8.38493 8.83137 8.32744C8.82639 8.32026 8.84676 8.18144 8.84175 8.16989C8.83311 8.1499 8.69846 8.17475 8.69151 8.18661C8.68792 8.19474 8.71853 8.31731 8.70453 8.34666C8.68967 8.38035 8.55295 8.34993 8.54376 8.38485C8.53376 8.43733 8.70271 8.40473 8.67195 8.54084C8.59845 8.50519 8.46506 8.59528 8.40834 8.70496C8.42244 8.67359 8.50274 8.66951 8.52917 8.68083C8.51645 8.88041 8.34318 8.87694 8.40316 8.71904C8.36449 8.80384 8.39057 8.84899 8.36868 8.92908C8.36309 8.94936 8.30754 8.95343 8.29648 8.98802C8.29523 8.9949 8.35253 9.0704 8.3409 9.11097C8.32167 9.1842 8.14691 9.16762 8.13056 9.1484C8.08916 9.09388 8.23582 9.02791 8.24676 8.94365C8.24912 8.9307 8.12562 8.76551 8.12306 8.75093C8.11637 8.59441 8.25402 8.70723 8.23802 8.56631C8.20454 8.53653 8.17047 8.50676 8.13585 8.47699C8.27204 8.33414 8.49725 8.4082 8.55181 8.2466C8.38064 8.29335 8.17495 8.28802 8.17521 7.92241C8.17553 7.76845 8.25944 7.67824 8.25605 7.63911C8.24435 7.49902 8.12683 7.65116 8.12207 7.64377C8.11845 7.63523 8.11679 7.62692 8.11679 7.61883C8.11679 7.61883 8.11679 7.61883 8.11679 7.61882C8.11757 7.53681 8.28435 7.4778 8.29189 7.4404C8.3059 7.37391 8.23284 7.10007 8.23281 7.03952C8.23564 7.02733 8.35289 6.96271 8.31356 6.85698C8.27406 6.75016 8.16952 6.74778 8.16572 6.73669C8.14608 6.67282 8.32824 6.61468 8.33304 6.57703C8.33612 6.55796 8.23908 6.44071 8.23608 6.40705C8.23369 6.37325 8.30801 6.29958 8.33717 6.19299C8.35906 6.11379 8.2959 6.05293 8.30703 6.04053C8.31538 6.03224 8.48544 6.03415 8.49346 6.02037C8.50596 5.99984 8.46692 5.90491 8.47279 5.88127C8.48126 5.84724 8.53559 5.88179 8.52872 5.84671C8.52461 5.82039 8.31108 5.49314 8.31189 5.40605C8.31466 5.25726 8.54384 5.60017 8.33107 5.01264C8.32959 5.00877 8.27712 5.05041 8.27566 5.0468C8.24329 4.93878 8.4121 4.77282 8.2059 4.80169C8.59008 4.61467 8.25399 4.5781 8.31109 4.32776C8.33308 4.23147 8.4842 4.19231 8.48513 4.17794C8.47101 4.05573 8.4223 4.15023 8.40613 4.09031C8.397 4.05677 8.53387 3.92833 8.50379 3.84435C8.4878 3.80097 8.34311 3.81585 8.33736 3.80746C8.28067 3.72787 8.35051 3.64237 8.33817 3.5859C8.32985 3.54801 8.24312 3.54492 8.241 3.53811C8.23715 3.52391 8.35518 3.37109 8.38054 3.31743C8.39957 3.27611 8.32877 3.21113 8.34199 3.19313C8.42125 3.08537 8.59285 3.36139 8.42876 2.97517C8.41862 2.95148 8.35652 2.96085 8.35475 2.95615C8.31663 2.8468 8.43089 2.83763 8.45242 2.74832C8.48877 2.59434 8.32142 2.67963 8.4608 2.57178C8.35672 2.47055 8.299 2.47471 8.18196 2.50277C8.50891 2.42463 8.63694 2.02646 8.26137 2.0355C8.37836 2.04185 8.36681 1.81672 8.40246 1.81285C8.42411 1.81062 8.60212 2.03558 8.52286 1.53275C8.51236 1.4699 8.40377 1.54916 8.43818 1.42087C8.70128 1.45509 8.44335 1.33908 8.44382 1.3222C8.43606 1.02469 9.12361 1.27554 9.27668 1.25244C9.43381 1.2201 9.60238 0.998029 9.64131 1.00066C9.76768 1.01009 9.65366 1.12018 9.67856 1.16572C9.69719 1.20867 10.0977 1.01986 10.1235 1.03741C10.1959 1.09669 10.0992 1.22614 10.1067 1.23422C10.1798 1.32484 10.7774 1.30913 10.9714 1.39576C10.9851 1.30345 10.6214 1.21912 10.8799 1.12437C11.1947 1.01996 11.1209 1.42006 11.121 1.43734C11.1512 1.44518 11.1816 1.4533 11.2122 1.46171C11.3187 1.5344 11.7149 1.59408 11.8073 1.68399C12.3671 1.94553 12.9477 2.23026 13.5141 2.52726C13.6079 2.33477 13.1508 2.27702 13.1554 2.24842C13.1807 2.07269 13.8253 2.41496 13.8669 2.52523C13.8302 2.45293 13.7907 2.37933 13.7531 2.30698C13.972 2.14556 14.0464 2.54842 14.2453 2.53473C14.3094 2.53005 14.2648 2.39721 14.2694 2.39238C14.3688 2.33828 14.419 2.45015 14.2929 2.52655C14.4833 2.49195 14.3978 2.59929 14.4925 2.66399C14.4975 2.66731 14.5028 2.55666 14.6024 2.56557C14.6483 2.56924 14.8458 2.68104 14.9146 2.62084C14.9436 2.59537 15.0346 2.2051 14.8581 2.48497C14.722 2.22261 14.7151 2.577 14.6357 2.52345C14.6239 2.51492 14.7432 2.36976 14.4899 2.32798C14.6924 2.05961 14.8145 2.4136 14.8756 2.40228C15.003 2.37909 14.7315 2.02814 14.5397 2.21892C14.6967 2.00919 14.5309 2.17389 14.4572 2.12105C14.3757 2.06287 14.4507 2.01595 14.4035 1.98958C14.2755 1.91734 14.2411 2.10733 14.2131 1.90412C14.0731 2.40989 13.9992 1.86509 13.9765 1.70172C14.1261 1.75185 14.2751 1.80276 14.4243 1.85472C14.4294 1.82691 14.4345 1.7991 14.4396 1.77129C14.4735 1.79415 14.5077 1.81719 14.542 1.84043C14.5238 1.85979 14.5056 1.87916 14.4875 1.89855C14.7532 1.85375 14.7079 2.04434 14.7212 2.05409C14.9041 2.18113 15.1262 2.30572 15.3182 2.41797C15.3472 2.43504 15.4115 2.27824 15.5559 2.51494C15.6014 2.59021 15.4724 2.66525 15.5575 2.69282C15.8321 2.44422 15.6871 2.68643 15.7147 2.70337C15.7943 2.75075 15.8888 2.70534 15.8967 2.70901C16.003 2.75682 16.1403 2.85728 16.2548 2.91224C16.2575 2.91236 16.2579 2.78506 16.3116 2.85571C16.3319 2.88162 16.3059 3.41047 16.5763 3.40215C16.5431 3.34424 16.5101 3.28656 16.4772 3.22913C16.5123 3.30185 16.983 3.46192 16.9499 3.29388C16.9286 3.19018 16.6203 3.34919 16.7568 3.09532C16.8109 3.19041 17.131 3.36245 17.3786 3.50699C17.668 3.87538 18.7623 4.58069 18.8643 5.03788C18.9395 5.14304 19.0212 5.26612 19.0117 5.30133C19.0082 5.31375 18.9006 5.31723 18.8968 5.33378C18.8926 5.3442 19.014 5.49846 18.9995 5.54348C18.9898 5.56836 18.8933 5.52085 18.8688 5.54511C18.8499 5.55973 18.9558 5.80928 19.0661 5.76624C18.9886 5.7285 18.9278 5.55091 19.0623 5.58172C19.0792 5.5858 19.0493 5.68165 19.0709 5.68736C19.2688 5.73653 19.014 5.38528 18.99 5.34527C19.2376 5.46231 19.3211 5.9303 19.6072 6.25248C19.6014 6.44467 19.3591 6.1111 19.378 6.3122C19.4172 6.73504 19.5464 6.33977 19.5625 6.34329C19.6974 6.38273 19.3913 6.94271 19.7511 6.76942C19.769 6.94589 19.6994 6.91362 19.8495 7.11837C19.8613 7.07654 19.8731 7.03535 19.8848 6.99404C20.2166 7.14179 19.9105 8.00959 19.8452 7.97258C19.6882 7.87326 19.7432 7.49941 19.7276 7.47639C19.7045 7.44066 19.2918 7.48862 19.4558 6.98681C19.1429 6.95467 19.5497 7.63902 19.2314 7.38254C19.3663 7.54986 19.5715 8.76557 19.7057 9.01319C19.7243 9.03832 19.9761 8.85954 19.8981 9.27655C19.8586 9.47401 19.7919 9.02265 19.7424 9.11948C19.6415 9.22803 19.9479 10.8026 19.2125 12.3391C19.0714 12.6658 18.9383 12.9608 18.8833 13.0703C18.874 13.0882 18.8033 13.0416 18.7947 13.0591C18.7691 13.1119 18.771 13.3673 18.6827 13.4417C18.931 13.3231 18.7217 13.7122 18.6468 13.7993C18.5349 13.9327 18.4139 13.845 18.3485 13.8904C18.099 14.0624 18.1378 14.6319 17.7355 14.6233C18.0076 14.8064 17.3754 14.8429 17.26 14.9808C17.1703 15.0907 17.2001 15.3939 17.429 15.3226C17.2561 15.5117 17.1229 15.7589 16.9675 15.9565C16.9419 15.9891 16.9095 15.8819 16.8682 15.9393C16.8649 15.945 16.9284 16.016 16.8937 16.0672C16.6014 16.4907 16.6274 16.171 16.5199 16.1969C16.4591 16.2108 16.4198 16.2263 16.3955 16.2425C16.5944 16.0233 16.7901 15.7559 16.8461 15.6893C16.6457 15.6037 16.442 16.1785 16.2746 16.2559C16.269 16.2584 16.2036 16.1613 16.1988 16.1649C16.1987 16.1649 16.1986 16.165 16.1986 16.1651C16.15 16.2025 15.8812 16.5056 16.0337 16.5521C16.075 16.5643 16.217 16.4374 16.3661 16.2749C16.3412 16.3349 16.463 16.3968 16.4592 16.4081C16.4111 16.5451 16.0876 16.6707 15.9893 16.7321C15.967 16.7465 16.0226 16.8078 16.0195 16.8108C15.9269 16.8658 15.8076 16.657 15.8818 16.9133C15.5476 16.8107 16.1248 16.6482 15.967 16.5289C15.8645 16.4459 14.9691 17.2514 15.0795 17.4356C15.0618 17.4177 15.0298 17.4024 14.9803 17.3937C14.872 17.3755 14.5852 17.5881 14.5512 17.6565C14.5464 17.6692 14.6664 17.8597 14.6559 17.8685C14.6295 17.8931 14.1473 17.9655 14.0496 18.1601C14.1486 18.1454 14.2472 18.1292 14.3454 18.1116C13.8386 18.3814 13.9373 18.396 14.1457 18.3703C14.1548 18.3664 14.1671 18.3698 14.1759 18.3663C14.3342 18.3423 14.527 18.2904 14.5381 18.3043C14.5933 18.366 13.6843 18.8508 13.775 18.5713C13.79 18.5364 14.2498 18.4175 13.9775 18.3838C13.9314 18.3785 13.6772 18.5414 13.6549 18.5319C13.521 18.4755 14.0393 18.0745 13.8952 17.9679C13.8266 18.1675 13.6143 18.1807 13.4669 18.2846C13.3994 18.3319 13.4234 18.4437 13.4148 18.4496C13.2849 18.5341 13.32 18.392 13.2743 18.4135C13.2528 18.4257 13.054 18.7674 12.9905 18.4205C12.1214 18.966 12.8198 18.7698 13.3848 18.5227C13.2537 18.7141 12.8652 18.7856 12.7056 18.8625C12.6481 18.8909 12.7176 18.9914 12.62 19.0439C12.4218 19.169 11.3281 19.2474 11.0501 19.2224C11.2168 19.1646 11.1523 19.0445 11.0244 19.0657C10.8954 19.086 11.0191 19.2442 10.9954 19.2645C10.9897 19.269 10.9556 19.2715 10.9045 19.2723C10.8076 19.2684 10.5848 19.2394 10.5395 19.2596C10.7954 19.1802 10.7279 19.059 10.5062 19.0613C10.5359 19.0229 10.5653 18.9845 10.5945 18.9461C10.4707 19.0063 10.1771 18.8325 10.0999 18.8937C10.0879 18.9035 10.1387 19.0067 10.132 19.0122C10.0656 19.0614 9.81596 18.9653 9.80498 19.0016C9.7965 19.0321 9.90627 19.1161 9.86901 19.1615C9.86115 19.171 9.75309 19.0327 9.6511 19.0714C9.61306 19.0856 9.63956 19.1849 9.63003 19.191C9.54954 19.2417 9.59406 19.072 9.44322 19.1029C9.33252 19.1253 9.24962 19.2917 9.08474 19.2373C9.61586 19.4425 9.178 19.3618 8.94145 19.4225C8.90305 19.4319 8.93657 19.6155 8.70449 19.5214C9.19875 19.2025 8.57593 19.3475 8.43257 19.3333C8.4251 19.3318 8.42881 19.2121 8.36239 19.2065C8.35668 19.2062 8.36042 19.2877 8.29715 19.29C7.67557 19.3009 8.07707 19.2396 7.96729 19.1507C7.9228 19.1136 7.59155 19.1906 7.49773 19.1781C7.47673 19.1753 7.49876 19.0938 7.41765 19.0846C7.27497 19.0684 7.12375 19.1314 7.01948 19.1174C7.00672 19.1147 7.03591 18.9873 6.8302 18.9848C6.7718 18.9836 6.69649 19.0137 6.76837 19.0702C7.01622 19.2612 7.52077 19.1256 7.75309 19.2759C7.97997 19.4199 7.22014 19.3333 7.16272 19.3152C7.14733 19.3129 7.31822 19.2765 7.15861 19.2346C7.02556 19.1997 6.70893 19.3682 6.48293 19.2549C6.46534 19.247 6.33087 19.0063 6.34304 18.9975C6.3559 18.9942 6.64699 19.0303 6.61995 18.9641C6.6171 18.9573 6.4405 18.9102 6.4284 18.8624C6.41249 18.8048 6.48283 18.3032 6.45242 18.2804C6.3699 18.2215 6.39528 18.3495 6.33667 18.322C6.2115 18.2691 5.79986 17.9417 5.71071 18.0863C5.78655 18.1322 5.86298 18.1762 5.93812 18.2177C5.4864 18.0446 5.64206 18.1871 5.5648 18.1895C5.47849 18.1868 5.56489 18.0611 5.41716 17.9691C5.39925 17.9581 5.18505 17.8556 4.99166 17.7549C4.87156 17.6974 4.76075 17.6475 4.74878 17.6737C5.08797 17.7781 4.88062 17.8636 4.8921 17.8763C4.89667 17.8807 4.90208 17.8841 4.90818 17.8868C4.97522 17.9186 5.09365 17.8918 5.16992 17.9377C5.76853 18.2794 5.07774 18.0995 5.20043 18.2136C5.24516 18.2544 5.38724 18.2257 5.40564 18.2398C5.4674 18.287 5.41741 18.3939 5.46814 18.4074C5.5855 18.4379 5.53057 18.2277 5.54349 18.224C5.681 18.1769 5.98919 18.4451 5.69234 18.5184C5.80741 18.6378 5.90321 18.4373 5.97755 18.5603C6.12887 18.8025 5.82622 18.6444 5.72463 18.6316C5.3586 18.5869 5.29285 18.4755 4.79562 18.2143C4.77269 18.2017 4.74842 18.19 4.72329 18.1789C4.58918 18.1272 4.41382 18.1068 4.35504 18.0713C4.30825 18.0476 4.17016 17.47 3.78277 17.9032C3.6585 17.7281 3.67899 17.2233 3.51085 17.0685C3.35576 16.9256 3.24661 17.1102 3.22722 17.1013C3.19633 17.0879 3.02633 16.8636 2.94053 16.7976C2.83988 16.7225 2.81383 16.822 2.66887 16.6759C2.30498 16.2858 2.49751 16.1589 2.48064 16.1097C2.29904 15.4267 2.17341 15.8153 2.07952 15.6787C2.02343 15.6118 1.62651 14.522 1.66452 13.5045C1.66915 13.5315 1.66436 13.5023 1.63916 13.492C1.68198 13.5059 1.72445 13.5141 1.76674 13.5141C1.89853 13.5104 1.68251 13.4783 1.91848 13.4689C1.53751 13.4822 1.788 13.3807 1.77597 13.3426C1.77118 13.3291 1.70636 13.3338 1.70258 13.316C1.68765 13.2512 1.72842 13.0629 1.69267 13.0137C1.5395 12.8202 1.33371 13.3506 1.31965 13.3594C1.3217 13.3164 1.20926 12.8511 1.03856 13.0767C1.01226 13.1124 1.18587 13.1585 1.1935 13.1747C1.24408 13.2882 1.08613 13.206 1.07213 13.2158C1.04966 13.2338 1.20139 13.2973 1.18471 13.3146C1.17934 13.3201 1.03922 13.293 1.04134 13.3854C0.905906 13.3621 0.996487 13.0383 0.96225 12.9875C0.950165 12.9697 0.669166 13.0975 0.93108 12.7659C0.904666 12.7709 0.878253 12.776 0.85184 12.7811C0.831881 12.6007 0.813039 12.4107 0.7968 12.2103C0.858682 12.23 0.984972 12.3369 0.955009 12.1989C0.937869 12.1189 0.802724 12.1817 0.798576 12.1745C0.748001 12.1227 0.807679 10.7303 0.834173 10.422C0.836182 10.3237 0.753918 10.0352 0.754949 10.012C0.755547 9.88248 0.888243 9.4293 0.889934 9.33243C0.889433 9.27216 0.767668 9.31016 0.781462 9.25809C0.794557 9.20962 0.895233 9.27841 0.902172 9.26454C0.951239 9.15883 1.00179 8.19508 1.17555 7.99058C1.10122 8.12467 1.16508 8.84852 1.24923 8.84501C1.26005 8.84415 1.3752 8.70224 1.34267 8.66045C1.44745 8.62695 1.20654 8.37409 1.28875 8.28181C1.29817 8.27177 1.4443 8.35658 1.52036 8.18049C1.54621 8.12126 1.46858 7.91918 1.65608 7.79112C1.64058 7.52366 2.34375 6.32327 2.24911 6.1648C2.24189 6.15764 2.10198 6.31327 2.09456 6.15982C2.08636 5.95546 2.30629 6.24021 2.42277 6.06651C2.43673 6.03905 2.68321 5.51193 2.68025 5.48497C2.61336 5.23681 2.29079 5.65657 2.27822 5.6416C2.23736 5.60104 2.42695 5.1999 2.44852 5.19238C2.46747 5.18567 2.49501 5.61067 2.63306 5.19924C2.58323 5.22625 2.53357 5.25364 2.48408 5.2814C2.53886 5.07898 2.69222 5.14901 2.726 5.11316C2.83258 5.00273 2.71204 4.72346 3.10797 4.69901C3.21218 4.69401 3.22693 4.83308 3.24187 4.83342C3.29297 4.83387 3.29721 4.79841 3.29693 4.7557C3.3016 4.67882 3.29653 4.58005 3.45633 4.59561C3.47672 4.59814 3.39391 4.92277 3.72396 4.493C3.68379 4.50949 3.64408 4.5258 3.60424 4.54269C3.60653 4.45337 3.95696 3.9926 4.02644 3.94187C4.21083 3.79336 4.18071 4.04603 4.33018 3.86568C4.06565 3.82841 4.58633 3.28957 4.67956 3.4577C4.60312 3.21556 5.22999 2.93353 5.49828 2.77441C5.66218 2.66659 5.96942 2.37745 6.0341 2.35872C6.11 2.33464 6.16083 2.48138 6.29904 2.44989C6.33506 2.44141 6.66619 2.15375 7.05663 2.18258C7.1332 2.1868 7.34866 2.38897 7.25648 2.49071C7.10304 2.6605 6.66041 2.62442 6.72822 2.76535C6.80124 2.90914 7.23931 2.61984 7.37994 2.60042C8.01185 2.50341 7.71005 2.78587 7.74415 2.82905C7.82027 2.93916 8.12461 2.85487 8.14009 2.86504C8.20382 2.90253 8.01441 3.05436 8.03246 3.1322C8.05813 3.23017 8.37555 3.34487 8.32006 3.39397C8.24511 3.45971 7.95637 3.37772 7.94075 3.39125C7.76299 3.54896 8.11416 3.69015 8.21249 3.78672C8.24338 3.81559 8.17171 3.89588 8.19269 3.90118C8.50551 3.98519 8.16772 3.56135 8.36633 3.54802C8.54208 3.53958 8.35821 3.73947 8.36784 3.74675C8.37846 3.7531 8.57734 3.71928 8.6175 3.76889C8.6317 3.78903 8.20862 4.2001 8.27325 4.32893C8.41366 4.25835 8.55633 4.19457 8.70094 4.13715C8.74531 4.30844 8.50835 4.22346 8.48876 4.24803C8.45306 4.29391 8.59596 4.35332 8.60181 4.40981C8.60546 4.44525 8.49797 4.60035 8.63188 4.62385C8.67603 4.63287 8.74307 4.49028 8.9158 4.59129C8.42409 4.84793 8.81018 4.87661 8.83098 4.93593C8.85467 4.99533 8.65984 5.18376 8.92694 5.10608C8.99797 5.44439 8.94002 5.21412 8.87644 5.2882C8.80098 5.38086 9.02988 5.44443 8.6883 5.43487C8.74729 5.58446 8.99292 5.52102 9.00883 5.53344C9.02198 5.54297 8.98111 5.63101 9.00543 5.65404C9.27919 5.92546 9.10277 5.80994 9.19474 5.9975C9.20403 6.01325 9.40255 6.06433 9.26182 6.11038C9.01461 6.1965 8.8479 6.00957 8.93136 6.49266C9.14366 6.65492 9.29223 6.31713 9.35537 6.3056C9.43909 6.2894 9.36151 6.39755 9.37523 6.42435C9.37953 6.43281 9.44925 6.41811 9.45096 6.42611C9.53049 6.79159 9.14828 6.46331 9.04439 6.5591C9.08557 6.60717 9.12524 6.65607 9.16336 6.70573C9.12632 6.71512 9.09003 6.7252 9.05379 6.73611C9.2533 6.80737 9.06304 6.77646 9.10151 7.07975C9.11056 7.14751 9.17642 7.01094 9.11532 7.22114C9.20372 7.24373 9.19022 7.31049 9.24345 7.21206C9.26115 7.33101 9.1486 7.49783 9.12277 7.57353C9.33236 7.65526 9.12731 7.24808 9.34918 7.44378C9.35838 7.28984 9.27497 7.33402 9.27764 7.30867C9.28965 7.21573 9.36604 7.34496 9.41226 7.02547C9.42155 6.97294 9.3396 6.82294 9.43524 6.82049C9.44646 6.8203 9.51726 6.94979 9.51643 6.95979C9.51647 7.06551 9.45788 7.03087 9.45992 7.0751C9.46173 7.11669 9.52019 7.08643 9.52134 7.09811C9.53303 7.22979 9.47573 7.15261 9.4867 7.19329C9.51682 7.28092 9.71844 7.55057 9.47119 7.48773C9.6631 7.32096 9.48047 7.33751 9.40825 7.40624C9.39016 7.42331 9.39647 7.50219 9.37473 7.53346C9.34693 7.5739 9.30227 7.54417 9.28838 7.56205C9.27628 7.58137 9.40621 7.74292 9.2625 7.71912C9.36678 7.88294 9.45083 7.66831 9.54172 7.79168C9.69811 8.04346 9.48032 8.118 9.47605 8.14824C9.47251 8.15581 9.50517 8.25867 9.50289 8.26566C9.49893 8.2755 9.40148 8.24494 9.41786 8.33291C9.43237 8.42017 9.44396 8.32231 9.46663 8.41171C9.47543 8.47258 9.44319 8.59521 9.48649 8.62726C9.50669 8.65089 9.5218 8.39499 9.57255 8.65848C9.53385 8.6865 9.51013 8.71562 9.49772 8.7429C9.5396 8.8364 9.5741 8.93279 9.60267 9.03075C9.60094 9.06388 9.55806 8.95819 9.6179 9.09102C9.70624 9.4067 9.73211 9.3263 9.757 9.35726C9.77128 9.377 9.84885 9.63292 9.85627 9.68194C9.92744 9.76763 10.1052 9.72137 10.1768 10.0578C10.1585 9.98388 10.2982 10.1116 10.3065 10.1224C10.38 10.2489 10.2116 10.2369 10.2927 10.3403C10.3899 10.4602 10.3258 10.2606 10.3666 10.2544C10.571 10.2199 11.0163 10.8309 11.1132 10.5779C11.1291 10.6 11.1448 10.6223 11.1603 10.6447C11.2353 10.541 11.2745 10.4556 11.2883 10.3992C11.2611 10.4006 11.2325 10.4053 11.2014 10.4175C11.3933 10.5465 11.5071 10.6343 11.4719 10.6562C11.4655 10.6586 11.339 10.6547 11.3173 10.6532C11.2767 10.6466 11.2728 10.6092 11.1957 10.5997C11.1801 10.5949 11.105 10.6685 11.2312 10.6976C11.2482 10.6916 11.1949 10.6436 11.2254 10.6479C11.4425 10.6633 11.2029 10.9121 11.2869 10.9741C11.3296 10.9717 11.3723 10.9697 11.415 10.9683C11.3907 10.9885 11.3666 11.0103 11.3425 11.0335ZM3.3634 4.12351C3.32585 3.96254 3.56889 3.82456 3.64951 3.68343C3.75175 3.4911 3.68838 2.85659 3.91756 3.33149C3.70779 3.59504 3.52404 3.86088 3.3634 4.12351ZM1.45611 7.23355C1.57341 7.10829 1.79559 7.31526 1.64639 7.39558C1.62975 7.40431 1.29933 7.4045 1.45611 7.23355ZM2.24342 5.7374C2.2434 5.7449 2.17179 5.86791 2.16593 5.87032C2.00757 5.93353 2.2252 5.56148 2.24342 5.7374ZM1.05565 12.5819C1.03865 12.4627 0.789015 12.561 0.896441 12.6295C0.903254 12.6338 1.05656 12.5896 1.05565 12.5819ZM1.05884 12.4963C1.28179 12.3968 0.816213 12.2171 0.867435 12.3702C0.872555 12.3858 1.04788 12.5005 1.05884 12.4963ZM1.75647 6.74386C1.8302 6.79297 1.73206 6.92814 1.68859 6.98581C1.61473 6.95587 1.73952 6.81113 1.75647 6.74386ZM0.94194 10.4562C1.00785 10.4679 1.04803 9.99389 0.964663 9.94762C0.991954 10.0306 0.879696 10.4466 0.94194 10.4562ZM0.991548 11.6223C1.00324 11.6121 0.986736 11.4594 0.926503 11.4635C0.846211 11.5375 0.937844 11.6719 0.991548 11.6223ZM1.05381 13.459C1.06879 13.4568 1.4513 13.4108 1.20237 13.5082C1.16581 13.5203 1.0641 13.4849 1.05042 13.4884C1.02399 13.4991 1.01173 13.5064 1.00966 13.5111C0.976887 13.4829 0.958242 13.4115 0.98118 13.4048C1.08946 13.369 1.04763 13.4603 1.05381 13.459ZM2.155 16.4368C2.25085 16.4863 2.50072 16.9179 2.54526 17.0104C2.55269 17.0274 2.37217 17.0651 2.51204 17.2237C2.62326 17.3447 2.60168 17.0546 2.77814 17.3079C2.95668 17.5541 2.59971 17.3276 2.60909 17.3492C2.62613 17.3936 2.99191 17.6827 2.91078 17.7349C2.85265 17.7848 2.5501 17.3788 2.45275 17.2722C2.3278 17.1438 2.36586 17.3946 2.20102 17.1315C2.09761 16.9603 2.33621 16.9272 2.32074 16.8871C2.30751 16.8714 1.8153 16.2981 2.15501 16.4381C2.15501 16.4377 2.155 16.4372 2.155 16.4368ZM1.01931 13.5182C1.01206 13.5166 1.00817 13.5145 1.00966 13.5111C1.01264 13.5138 1.01608 13.5162 1.01931 13.5182ZM3.09504 4.63555C3.05726 4.64754 3.04365 4.62069 3.04819 4.58004C3.06193 4.50087 3.13846 4.37266 3.22734 4.34597C3.27468 4.38138 3.15225 4.56634 3.10825 4.62246C3.10198 4.6301 3.09729 4.63481 3.09504 4.63555ZM1.19277 13.5239C1.13908 13.4892 1.06662 13.5473 1.01931 13.5182C1.0596 13.5252 1.21054 13.5227 1.19277 13.5239ZM1.34267 8.66045C1.3252 8.66615 1.29978 8.66669 1.2599 8.65884C1.30853 8.64425 1.33232 8.64728 1.34267 8.66045ZM1.17377 9.14447C1.26623 9.33395 1.32138 8.99197 1.23517 8.97653C1.20183 8.97148 1.16979 9.1371 1.17377 9.14447ZM1.0504 12.7315C1.06199 12.7194 1.44389 12.8813 1.15131 12.6329C1.11377 12.7747 1.06625 12.6291 1.03368 12.6326C0.939736 12.6429 1.04155 12.873 1.00375 12.9227C1.17389 12.9524 1.01234 12.7739 1.05041 12.7318C1.05041 12.7316 1.0504 12.7316 1.0504 12.7315ZM5.74362 19.4501C5.64263 19.5192 5.43282 19.4053 5.2807 19.3316C5.39253 19.2736 5.60044 19.3932 5.74362 19.4501ZM16.3966 2.87096C16.8124 3.02129 16.6451 3.39127 16.3953 3.04851C16.3904 3.04156 16.3531 2.89195 16.3966 2.87096ZM20.3579 8.38685C20.2131 8.52671 20.1047 8.2124 20.1125 8.00603C20.115 7.9595 20.231 7.74543 20.3234 7.91606C20.1205 7.97586 20.1291 8.27569 20.3579 8.38685ZM1.30477 13.506C1.3092 13.5054 1.31333 13.5047 1.3172 13.504C1.404 13.7759 1.39869 14.4817 1.47785 14.8337C1.32424 14.6476 1.25041 13.8734 1.30175 13.504C1.30276 13.5047 1.30377 13.5054 1.30477 13.506ZM18.7942 5.302C18.803 5.3415 18.9471 5.28487 18.9542 5.27221C18.987 5.21477 18.8451 5.21945 18.7942 5.302ZM1.31666 13.379C1.38638 13.374 1.45875 13.4789 1.28611 13.4842C1.29828 13.4728 1.27326 13.386 1.31666 13.379ZM5.48565 19.2949C5.43663 19.2378 5.78556 19.3076 5.86548 19.3701C5.83578 19.4402 5.51966 19.3358 5.48565 19.2949ZM19.233 5.92298C19.2466 5.9718 19.3077 6.08556 19.3687 6.06835C19.4442 6.04496 19.3258 5.8926 19.233 5.92298ZM9.94535 0.36659C9.93763 0.337626 10.208 0.164611 10.3261 0.23193C10.5369 0.355959 9.94053 0.381916 9.94535 0.36659ZM17.0741 3.63919C17.0464 3.44897 17.0882 3.64285 17.1664 3.51179C17.0983 3.46108 16.9211 3.33879 16.9641 3.54446C16.9725 3.58432 17.0464 3.60952 17.0741 3.63919ZM17.1446 3.74567C17.1829 3.71158 17.3454 3.63146 17.2723 3.59722C17.2383 3.58158 17.0946 3.69472 17.1446 3.74567ZM12.3523 0.91843C12.3742 1.00458 12.2735 0.973165 12.1709 0.91926C12.0572 0.808679 11.5699 0.735273 11.4389 0.645875C11.1734 0.566571 10.9155 0.491387 10.903 0.476928C10.8896 0.461475 10.8817 0.447917 10.8777 0.436966C10.8299 0.470535 10.6411 0.444402 10.6382 0.334698C10.6915 0.352207 10.8506 0.371868 10.8677 0.38779C10.8748 0.39437 10.8798 0.400252 10.883 0.405847C10.9326 0.359952 11.2106 0.424605 11.4734 0.521667C11.6082 0.613608 12.1093 0.689104 12.2262 0.802832C12.2927 0.852318 12.3491 0.904963 12.3523 0.91843ZM13.0727 1.42632C12.8649 1.54495 12.996 1.23201 13.0108 1.22718C13.2016 1.1675 13.0058 1.34894 13.0046 1.36142C13.0046 1.38312 13.1486 1.32572 13.0723 1.42613C13.0724 1.4262 13.0726 1.42626 13.0727 1.42632ZM12.487 1.04508C12.4798 1.04643 12.3873 0.990283 12.3851 0.98334C12.3537 0.841872 12.6196 1.00228 12.487 1.04508ZM3.77413 17.9501C3.90446 18.0993 3.67751 18.0777 3.60183 17.9534C3.59594 17.9421 3.65937 17.8156 3.77413 17.9501ZM17.2156 3.75181C17.2157 3.75273 17.2161 3.75394 17.2168 3.75541C17.4884 4.10114 18.5154 4.76307 18.6111 5.19215C18.5957 5.21869 18.7305 5.58383 18.8772 5.47446C18.8426 5.45178 18.7361 5.17186 18.6689 5.15695C18.5717 4.72145 17.5294 4.04963 17.2538 3.69873C17.2279 3.69764 17.2129 3.71253 17.2156 3.75181ZM20.1456 11.5188C20.22 11.2116 20.3169 11.5893 20.2021 11.7417C20.1608 11.7961 20.1269 11.5952 20.1456 11.5188ZM1.46694 13.1815C1.3652 13.1113 1.69272 13.1081 1.58458 13.1805C1.58035 13.1834 1.47092 13.1844 1.46694 13.1815ZM20.3769 9.25712C20.553 10.149 20.0189 9.8825 20.0479 8.87821C20.0782 8.90297 20.1085 8.92869 20.1387 8.95522C19.9864 7.87443 20.175 8.84184 20.2424 9.15007C20.2701 9.26074 20.3501 9.15255 20.3775 9.25622C20.3773 9.25652 20.3771 9.25682 20.3769 9.25712ZM19.673 12.7463C19.353 12.8274 19.4415 12.6723 19.5546 12.502C19.73 12.1793 19.8814 11.8008 19.9166 11.594C19.9304 12.1621 19.6014 12.8528 20.1254 11.9678C20.0218 12.2998 19.9224 12.5077 19.8492 12.6423C19.7539 12.7733 19.7156 12.6309 19.7002 12.6395C19.6774 12.6528 19.6949 12.7407 19.673 12.7463ZM20.299 10.4626C20.2945 10.4051 20.3873 9.99723 20.3656 9.85853C20.5222 10.0442 20.3518 10.8449 20.299 10.4626ZM13.9367 1.76877C13.8775 1.85839 13.819 1.91638 13.7536 1.83663C13.8053 1.80314 13.8797 1.79025 13.9367 1.76877ZM3.91741 4.33565C4.00668 4.23937 4.21705 4.06864 4.07879 4.05365C4.06371 4.05379 3.86766 4.29464 3.91741 4.33565ZM19.2762 6.47438C19.2723 6.48838 19.5109 6.97541 19.5311 6.7549C19.5352 6.6781 19.3008 6.27441 19.2762 6.47438ZM16.7683 3.55077C16.7925 3.56746 16.9045 3.61517 16.9204 3.59539C16.9744 3.52609 16.824 3.48699 16.7683 3.55077ZM4.45552 3.91102C4.47308 3.90496 4.76916 3.60041 4.70205 3.5941C4.56571 3.58122 4.3821 3.92849 4.45552 3.91102ZM4.45471 18.1477C4.48626 18.1645 4.46116 18.2873 4.47091 18.2952C4.47778 18.3004 4.53363 18.3331 4.6001 18.3735C4.80806 18.5035 5.10135 18.6682 4.85693 18.6547C4.83764 18.6533 4.70775 18.5814 4.53986 18.4687C4.29247 18.3046 3.92763 17.9916 3.86126 17.9208C3.92134 17.7673 4.17307 18.1567 4.26621 18.1976C4.28256 18.2052 4.36903 18.1036 4.45409 18.1481C4.4543 18.148 4.45451 18.1479 4.45471 18.1477ZM13.4438 1.63792C13.3855 1.72142 13.035 1.61813 13.0943 1.51086C13.2108 1.55259 13.328 1.5953 13.4438 1.63792ZM13.5988 1.73721C13.6339 1.83642 13.4634 1.7742 13.4308 1.72186C13.4622 1.66126 13.5933 1.72243 13.5988 1.73721ZM18.3015 5.54695C18.3378 5.55862 18.417 5.40523 18.452 5.4072C18.4734 5.40785 18.4609 5.49309 18.5119 5.48771C18.5276 5.48511 18.6095 5.35314 18.5948 5.34086C18.5741 5.32247 18.4944 5.40162 18.4787 5.37765C18.4609 5.3503 18.4528 5.32056 18.4485 5.29126C18.3567 4.88025 17.373 4.2462 17.1129 3.91502C17.0621 3.85536 17.0202 3.78834 16.9576 3.74939C16.9489 3.74424 16.9728 3.8516 16.901 3.80402C16.8899 3.79682 16.8835 3.65577 16.787 3.61443C16.4016 3.7914 16.4475 3.40652 16.1299 3.3612C16.1213 3.3952 16.2601 3.58737 16.2684 3.59661C16.4332 3.76393 16.761 3.98362 16.9757 4.1257C17.2207 4.43765 18.1474 5.03492 18.2338 5.42208C18.2402 5.4328 18.2466 5.4434 18.2528 5.45376C18.2787 5.49655 18.3304 5.43645 18.3443 5.45379C18.3554 5.46798 18.2248 5.52232 18.3015 5.54695ZM3.93236 4.43825C4.07816 4.47995 4.15057 4.25906 4.25394 4.15868C4.12634 4.11035 4.04035 4.35452 3.93236 4.43825ZM14.9623 2.60718C14.9957 2.62007 15.0678 2.71015 15.0965 2.67827C15.134 2.63655 15.0162 2.52871 14.9623 2.60718ZM7.82644 19.3699C7.8326 19.3669 7.96191 19.3874 7.96591 19.392C8.07257 19.5153 7.68055 19.4524 7.82644 19.3699ZM10.3524 19.4153C10.4172 19.394 10.4793 19.3461 10.5085 19.4575C10.4667 19.4431 10.3498 19.4945 10.3524 19.4153ZM14.5634 18.2494C14.4731 18.1313 14.7869 18.0604 14.8427 18.0402C14.8608 18.1079 14.6308 18.3355 14.5634 18.2494ZM13.7305 2.18608C13.6309 2.12325 13.549 2.334 13.5302 2.20916C13.5274 2.18832 13.7105 1.75626 13.7432 1.97162C13.7489 2.0103 13.6169 2.06601 13.7305 2.18608ZM20.0214 8.72554C19.91 8.67103 19.8862 8.44851 19.8541 8.31125C19.9334 8.31847 19.9918 8.61313 20.0214 8.72554ZM5.10124 3.47999C5.27449 3.5097 5.66376 3.10584 5.50129 3.1101C5.47496 3.10988 5.15988 3.43425 5.10124 3.47999ZM1.96537 14.9889C2.21478 15.4302 1.94023 14.4531 1.82089 14.0929C1.83228 14.2578 1.93964 14.9656 1.96537 14.9889ZM13.5299 18.6629C13.5364 18.6559 13.7132 18.5919 13.7228 18.593C13.9115 18.6362 13.4057 18.8198 13.5299 18.6629ZM9.62413 19.2711C9.66899 19.1805 9.96228 19.2405 10.0295 19.3264C9.97809 19.4615 9.57225 19.3856 9.62413 19.2711ZM14.1842 2.35862C14.1096 2.32305 14.0519 2.26023 14.0036 2.19002C14.0532 2.13083 14.2042 2.30509 14.1842 2.35862ZM14.1457 18.3703C14.1548 18.3664 14.1671 18.3698 14.1759 18.3663C14.1657 18.3679 14.1555 18.369 14.1457 18.3703ZM15.7661 3.33373C15.81 3.39532 15.8698 3.26971 15.8683 3.26382C15.8465 3.1981 15.7165 3.26423 15.7661 3.33373ZM4.19123 4.45007C4.3156 4.49598 4.39615 4.25939 4.51443 4.18072C4.41465 4.14051 4.24868 4.36106 4.19123 4.45007ZM19.2817 12.9549C19.1137 12.9862 19.169 12.5328 19.2852 12.4891C19.365 12.519 19.3072 12.9488 19.2817 12.9549ZM1.93927 13.5104C2.03733 13.5199 1.91853 13.4899 1.87244 13.4974C1.84336 13.509 1.87851 13.515 1.93927 13.5104ZM19.5153 12.116C19.5339 11.996 19.7161 11.759 19.7396 11.8723C19.7694 12.0227 19.511 12.1503 19.5153 12.116ZM18.4807 6.00397C18.4751 6.02303 18.6738 6.15835 18.7127 6.02938C18.7396 5.9394 18.6136 6.00471 18.6058 5.99257C18.5964 5.97554 18.5742 5.60813 18.4807 6.00397ZM17.8957 15.0137C17.9226 14.9151 18.0255 14.8485 18.0806 14.7667C18.1072 14.8343 17.9847 15.0297 17.8957 15.0137ZM2.58586 15.9338C2.58617 15.8975 2.3642 15.4405 2.23758 15.041C2.11445 14.6446 2.02721 14.3971 2.14694 15.0521C2.15393 15.0898 2.24478 15.4088 2.35688 15.6464C2.4674 15.8871 2.58516 16.055 2.58586 15.9338ZM13.7305 2.18608C13.743 2.19401 13.756 2.20623 13.769 2.22411C13.7534 2.21147 13.7413 2.1975 13.7305 2.18608ZM14.8826 2.84088C14.8242 2.88946 14.9305 2.97269 14.984 2.95997C15.038 2.8906 14.8913 2.83433 14.8826 2.84088ZM18.0041 14.7028C18.0036 14.6335 18.0981 14.5749 18.1335 14.515C18.1818 14.5621 18.0732 14.7225 18.0041 14.7028ZM14.8679 17.6638C15.0046 17.623 15.1324 17.5132 15.088 17.4453C15.0974 17.4541 15.1104 17.4615 15.127 17.4665C15.1439 17.4713 15.2392 17.3584 15.305 17.3444C15.7223 17.2708 14.1381 18.2314 14.9115 17.457C14.898 17.5257 14.8835 17.5947 14.8679 17.6638ZM9.20207 19.0891C9.1407 18.9913 8.96498 19.1141 9.01011 19.1531C9.04299 19.1804 9.26513 19.1881 9.20207 19.0891ZM11.5096 18.875C11.4819 18.8624 11.255 18.9632 11.2548 19.0147C11.3994 19.0533 11.6406 18.937 11.5096 18.875ZM8.7146 18.9689C8.67442 18.9529 8.61464 19.1099 8.61931 19.117C8.6615 19.1767 8.7816 19.0593 8.7146 18.9689ZM13.7406 2.67752C13.7593 2.73932 13.946 2.70991 14.0246 2.63327C14.0201 2.65398 14.0217 2.68502 14.0327 2.72731C14.0326 2.72727 14.0325 2.72722 14.0324 2.72718C14.05 2.78118 15.0719 3.41533 14.4704 2.84105C14.4517 2.82308 14.4353 2.92196 14.3533 2.85689C14.348 2.85251 14.3826 2.78371 14.3661 2.77017C14.3289 2.73976 14.1251 2.57152 14.0494 2.60095C14.0559 2.58823 14.0595 2.57472 14.0592 2.56037C14.0572 2.43259 13.7246 2.62891 13.7406 2.67752ZM11.9684 18.7757C11.9162 18.7581 11.7743 18.8139 11.7709 18.8833C11.8522 18.903 12.0909 18.8173 11.9684 18.7757ZM2.80421 15.7512C2.75085 15.5538 2.43901 15.0354 2.45231 15.2219C2.45264 15.3636 2.86191 16.0067 2.80421 15.7512ZM10.6518 18.9871C10.9717 19.044 10.7265 18.9751 10.7671 18.8722C10.7292 18.9105 10.6907 18.9488 10.6518 18.9871ZM12.5324 1.76494C12.5684 1.80821 12.4271 1.95761 12.4245 1.83756C12.4238 1.79948 12.5121 1.74104 12.5324 1.76494ZM8.84466 0.985281C8.88888 1.16019 8.65816 1.05426 8.75019 0.936073C8.75432 0.932061 8.84102 0.978539 8.84466 0.985281ZM11.8571 1.58529C11.9378 1.49232 11.9643 1.48926 12.0376 1.55684C11.896 1.52622 11.9679 1.6768 11.8571 1.58529ZM15.0795 17.4356C15.083 17.4391 15.0856 17.4416 15.088 17.4453C15.0847 17.4422 15.082 17.4391 15.0795 17.4356ZM8.30116 18.9807C8.25093 18.8772 8.08944 18.8717 8.12927 18.9763C8.13325 18.9863 8.27315 19.0536 8.30116 18.9807ZM14.0246 2.63327C14.0285 2.6149 14.0365 2.606 14.0494 2.60095C14.0433 2.61293 14.0352 2.62294 14.0246 2.63327ZM9.10145 18.923C9.09707 18.9984 9.30715 19.0259 9.31458 19.0167C9.4301 18.8848 9.19045 18.919 9.10145 18.923ZM2.33337 13.1735C2.32512 13.1663 2.13475 13.2274 2.21202 13.2507C2.272 13.2692 2.36485 13.2018 2.33337 13.1735ZM10.6086 1.25989C10.5136 1.24208 10.387 1.22235 10.3777 1.12811C10.4346 1.15029 10.6223 1.19332 10.6086 1.25989ZM8.93591 1.11342C9.01022 1.00686 9.18389 1.01235 9.30101 1.03578C9.29409 1.17724 9.00226 1.08073 8.93591 1.11342ZM13.6354 2.56077C13.6364 2.56779 13.7371 2.67013 13.7659 2.5775C13.8075 2.44122 13.6258 2.49687 13.6354 2.56077ZM2.24207 13.3856C2.30957 13.4233 2.50644 13.3209 2.34781 13.274C2.26692 13.2543 2.23103 13.382 2.24207 13.3856ZM7.79603 18.803C7.66611 18.8433 7.96195 18.9764 8.01044 18.8796C7.95718 18.8668 7.8415 18.7889 7.79603 18.803ZM11.0929 18.6689C10.9487 18.5921 10.881 18.5875 10.8546 18.6181C10.8424 18.6438 10.8497 18.6966 10.8645 18.748C10.8983 18.8222 10.9624 18.8919 10.9922 18.8704C11.0032 18.8631 11.1047 18.6746 11.0929 18.6689ZM6.55062 3.20964C6.60021 3.13785 6.27895 3.14542 6.29414 3.24828C6.30434 3.31033 6.51955 3.25343 6.55062 3.20964ZM16.3955 16.2425C16.3857 16.2534 16.3759 16.2642 16.3661 16.2749C16.3706 16.264 16.3798 16.2529 16.3955 16.2425ZM6.66729 18.1906C6.87866 18.6691 6.92318 18.3525 6.94823 18.3614C7.00477 18.3795 7.11309 18.5158 7.22178 18.5182C7.0932 18.5398 6.95977 18.5577 6.81938 18.57C6.92623 18.6393 7.72407 18.9257 7.73781 18.8521C7.77264 18.7627 7.52631 18.7593 7.51826 18.7488C7.50921 18.7356 7.51031 18.4724 7.48966 18.459C7.46383 18.4463 6.77791 18.2997 6.66729 18.1906ZM10.4812 18.7629C10.5241 18.7909 10.5429 18.893 10.56 18.8671C10.5659 18.8582 10.56 18.76 10.58 18.7331C10.5473 18.743 10.5143 18.753 10.4812 18.7629ZM5.94397 18.33C5.88895 18.1816 6.31912 18.3914 6.3271 18.4037C6.37929 18.508 5.99499 18.4593 5.94397 18.33ZM8.99558 18.8354C8.9859 18.8288 8.76655 18.7878 8.7657 18.854C8.82609 18.9073 9.1176 18.9241 8.99558 18.8354ZM10.6064 18.7245C10.6676 18.7316 10.7867 18.8221 10.7627 18.6753C10.7626 18.6753 10.7625 18.6753 10.7624 18.6753C10.7111 18.6917 10.659 18.7081 10.6064 18.7245ZM2.55919 13.4838C2.79338 13.4258 2.49668 13.4701 2.42121 13.4991C2.52725 13.5042 2.52102 13.4921 2.55919 13.4838ZM2.7241 13.2447C2.76561 13.2245 2.70182 12.9281 2.57973 12.9788C2.53641 13.0012 2.65822 13.1635 2.64995 13.1704C2.6378 13.1821 2.49708 13.1401 2.52917 13.2223C2.57563 13.2149 2.71042 13.2541 2.7241 13.2447ZM2.70868 13.4349C2.88525 13.3622 2.5534 13.355 2.55512 13.4109C2.55543 13.4308 2.68314 13.4446 2.70868 13.4349ZM2.79607 14.4915C2.78364 14.3203 2.75536 13.8667 2.64967 13.5365C2.64195 13.9798 2.70759 14.4208 2.81925 14.8087C2.89253 14.8346 2.80194 14.6435 2.79581 14.4904C2.79589 14.4908 2.79598 14.4911 2.79607 14.4915ZM8.23767 1.95492C8.32082 2.04881 8.12934 2.08469 8.12233 2.06165C8.09871 1.9851 8.20001 1.91297 8.23767 1.95492ZM8.67463 5.58965C8.71145 5.61863 8.75804 5.73341 8.79994 5.65707C8.72123 5.58234 8.63812 5.51015 8.55115 5.44077C8.5626 5.65431 8.63455 5.5573 8.67463 5.58965ZM9.05193 6.28219C9.04627 6.28864 9.14587 6.59444 9.01928 6.40304C8.92371 6.2736 9.23336 6.07049 9.31219 6.20908C9.25565 6.2812 9.10276 6.22917 9.05193 6.28219ZM9.66114 7.60372C9.66346 7.62892 9.58963 7.66966 9.58039 7.6526C9.52628 7.56097 9.64288 7.46663 9.66114 7.60372ZM9.4149 7.56328C9.45673 7.62009 9.39019 7.67005 9.36373 7.63889C9.3505 7.5805 9.40804 7.55486 9.4149 7.56328ZM8.98869 6.60225C9.03291 6.82178 9.10264 6.35615 9.01444 6.44672C9.01017 6.45098 8.98675 6.5915 8.98869 6.60225ZM9.6058 7.9295C9.57047 7.86945 9.63816 7.82494 9.66181 7.8603C9.66508 7.91958 9.61073 7.93809 9.6058 7.9295ZM9.00411 7.12166C9.06297 7.28107 9.06542 6.75522 9.0576 6.73361C9.02595 6.64811 8.89116 6.84963 8.86372 6.90036C9.05592 6.82764 8.97454 7.04681 9.00411 7.12166ZM9.31698 6.826C9.37896 6.77536 9.24248 6.65527 9.20093 6.7998C9.23158 6.79476 9.30047 6.8406 9.31698 6.826ZM9.57084 7.03021C9.58785 7.05247 9.62004 7.10609 9.64529 7.02742C9.63007 7.03866 9.59635 6.94828 9.57084 7.03021ZM9.5555 7.28004C9.5479 7.39353 9.62937 7.07645 9.58292 7.16577C9.58108 7.16923 9.55611 7.27378 9.5555 7.28004ZM9.34357 7.34106C9.32415 7.47616 9.5044 7.21112 9.44762 7.1743C9.43064 7.16396 9.34599 7.32567 9.34357 7.34106ZM9.0555 7.69017C9.0944 7.74831 9.16416 7.52521 9.07299 7.49478C9.10812 7.462 9.1426 7.42944 9.17632 7.39711C9.06478 7.26194 9.05218 7.57744 9.01799 7.56253C8.96769 7.54167 8.98153 7.28235 8.99624 7.20129C8.94633 7.35799 8.74981 7.35463 8.62184 7.38386C8.73235 7.45178 8.89533 7.57157 8.98194 7.61801C9.00722 7.63137 9.03495 7.5614 9.05578 7.5705C9.08857 7.58548 9.05317 7.68627 9.05533 7.69016C9.05539 7.69016 9.05544 7.69017 9.0555 7.69017ZM9.75876 7.54868C9.80053 7.73403 9.8743 7.41514 9.78802 7.43581C9.78349 7.43845 9.75782 7.54419 9.75876 7.54868ZM9.71235 8.89331C9.66525 8.76188 9.66563 8.58353 9.61064 8.85858C9.62082 8.6664 9.5956 8.723 9.5929 8.64631C9.59181 8.58541 9.62406 8.63259 9.59615 8.51289C9.62805 8.64177 9.72386 8.60155 9.73253 8.6239C9.73248 8.6239 9.73244 8.6239 9.73239 8.6239C9.7352 8.63667 9.728 8.93538 9.71235 8.89331ZM9.41221 7.84751C9.3428 8.22754 9.47409 7.62861 9.41179 7.9428C9.53734 7.49441 9.36908 7.93286 9.38931 7.54035C9.56972 7.61447 9.31181 7.13591 9.36824 7.7381C9.28033 7.51132 9.32234 7.8055 9.29603 7.87757C9.26983 7.95449 9.20157 7.8608 9.19186 8.00456C9.1919 8.00456 9.19195 8.00456 9.19199 8.00457C9.24112 7.99878 9.28385 7.99348 9.3183 7.98804C9.32296 7.67539 9.39348 7.77901 9.36073 8.03055C9.37753 7.96941 9.39466 7.90839 9.41221 7.84751ZM9.23113 7.53082C9.23803 7.53812 9.3513 7.50632 9.35069 7.44391C9.34604 7.40229 9.16964 7.43416 9.23113 7.53082ZM8.5634 7.57326C8.62753 7.57454 8.72007 7.63658 8.75451 7.52029C8.69551 7.51821 8.59941 7.45644 8.5634 7.57326ZM10.7239 8.34181C10.8437 8.29734 10.6291 8.1492 10.6413 8.28499C10.6422 8.29152 10.7183 8.34381 10.7239 8.34181ZM9.4511 7.79621C9.4425 7.83298 9.44482 7.82042 9.45335 7.78999L8.9871 7.61585C8.99721 7.60111 9.00714 7.57978 9.01504 7.55707L9.47078 7.72728C9.48902 7.66266 9.50536 7.59444 9.48931 7.64105C9.48769 7.64659 9.4526 7.79104 9.4511 7.79621ZM9.67668 8.94024C9.67812 9.03197 9.62602 8.97174 9.62057 8.97378C9.60756 8.88842 9.67109 8.83425 9.67668 8.94024ZM8.44791 7.91689C8.5762 8.24837 8.73759 7.86869 8.75496 7.87756C8.77167 7.88644 8.74212 8.03055 8.74592 8.03452C8.75666 8.04254 8.92678 8.03534 8.93268 8.02588C8.93875 8.01826 8.91689 7.81388 8.95341 7.75121C8.89076 7.86286 8.5523 7.78487 8.52719 7.80795C8.51217 7.82587 8.6219 8.04012 8.44813 7.91689C8.44805 7.91689 8.44798 7.91689 8.44791 7.91689ZM8.79616 7.92283C8.75406 7.83649 8.87848 7.82896 8.90462 7.86157C8.96498 7.93407 8.80343 7.9328 8.79616 7.92283ZM9.06301 8.01205C9.07512 8.03167 9.16772 8.05569 9.18166 7.9619C9.1508 7.83543 9.03916 7.96595 9.06301 8.01205ZM9.55332 8.17232C9.59289 8.1784 9.65523 8.29131 9.69746 8.21977C9.65766 8.2132 9.59594 8.10086 9.55332 8.17232ZM9.79253 9.64393C9.79867 9.71496 9.84441 9.7298 9.84491 9.69366C9.82487 9.64227 9.79145 9.6382 9.79253 9.64393ZM9.2484 8.5628C9.24669 8.56592 9.24329 8.56689 9.23773 8.5658L8.64136 8.34306C8.7431 8.39404 9.08371 8.50154 9.14825 8.49633C9.12317 8.42195 8.79842 8.25359 8.69653 8.227L9.27214 8.44199C9.27499 8.44547 9.27613 8.44901 9.27578 8.45267C9.27475 8.46188 9.25016 8.55916 9.2484 8.5628ZM8.94342 8.57871C8.90865 8.69941 8.89381 8.55234 8.8898 8.55035C8.85214 8.53015 8.76285 8.55543 8.78504 8.43836C8.86271 8.48734 9.0143 8.33912 8.94342 8.57871ZM9.33584 8.68135C9.49482 8.71016 9.2851 8.46159 9.26335 8.59352C9.2619 8.60139 9.31997 8.6787 9.33584 8.68135ZM9.25151 8.60032C9.24369 8.64948 9.26759 8.65748 9.24817 8.64494C9.23247 8.63301 9.17828 8.60537 9.16143 8.60386C9.20867 8.42559 9.21769 8.56573 9.24192 8.55971C9.24843 8.55787 9.25746 8.48269 9.25816 8.48267C9.26901 8.4807 9.24873 8.56611 9.25404 8.56825C9.2721 8.57172 9.28985 8.46662 9.25151 8.60032ZM8.92276 8.6625C8.90698 8.73114 8.67711 8.75506 8.66237 8.73676C8.59322 8.59674 8.91821 8.63654 8.92276 8.6625ZM9.20086 8.75441C9.17523 8.96639 9.23129 8.83296 9.23589 8.72628C9.23718 8.71675 9.20462 8.80347 9.20086 8.75441ZM9.23124 8.85425C9.23487 8.86291 9.35962 8.97289 9.39221 8.91405C9.38413 8.88043 9.18423 8.75428 9.23124 8.85425ZM9.05515 9.02087C9.05939 9.02118 9.08318 8.88825 9.14331 8.93647C9.14821 8.94066 9.09408 9.0765 9.20167 9.07069C9.22365 9.06941 9.2939 8.99676 9.29451 8.99036C9.3089 8.741 8.84754 9.0021 9.05515 9.02087ZM8.91418 8.78041C8.92225 8.84236 8.88958 9.02384 8.86888 8.93053C8.85972 8.89025 8.88361 8.78131 8.91418 8.78041ZM9.65657 9.13693C9.52387 9.19278 9.77069 9.34489 9.79721 9.32718C9.82109 9.26158 9.66968 9.13137 9.65657 9.13693ZM10.1405 10.4273C10.1405 10.4273 10.1404 10.4274 10.1404 10.4274C10.1751 10.3864 10.1124 10.3122 10.1138 10.3086C10.1452 10.148 10.2083 10.3468 10.234 10.3624C10.2896 10.3944 10.1693 10.1713 10.2659 10.2388C10.1147 10.1432 10.217 10.1628 10.1745 10.0829C10.0101 9.75368 10.1603 10.2849 10.08 10.2331C10.0715 10.2252 10.063 10.1011 10.037 10.0758C9.97059 9.98803 10.0085 10.5771 10.1405 10.4273ZM8.84942 8.94599C8.82487 9.05283 8.59323 8.94355 8.65614 8.85552C8.67162 8.8409 8.89862 8.78929 8.84942 8.94599ZM10.4663 10.7304C10.4279 10.643 10.3306 10.5765 10.3661 10.6402C10.3825 10.6731 10.4818 10.7698 10.4663 10.7304ZM10.1403 10.4596C10.1507 10.476 10.2786 10.8453 10.2635 10.7862C10.2628 10.7794 10.161 10.5097 10.1403 10.4596ZM11.6829 8.77319C11.6818 8.7658 11.6809 8.75873 11.6803 8.75197C11.5564 8.74909 11.778 8.8516 11.7925 8.81302C11.7935 8.81035 11.7907 8.80649 11.7854 8.80199C11.7484 8.81359 11.6839 8.77963 11.6829 8.77319ZM10.6377 10.3692C10.6287 10.3655 10.6098 10.4064 10.6518 10.4487C10.6878 10.4641 10.6987 10.3966 10.6377 10.3692ZM11.6216 8.8187C11.7146 8.72812 11.7994 8.98493 11.579 9.0641C11.6178 8.99579 11.611 8.82912 11.6216 8.8187ZM8.43292 9.09132C8.5166 9.01322 8.60919 9.09348 8.67624 9.10573C8.62261 9.23303 8.48837 9.08998 8.43292 9.09132ZM10.2163 10.5975C10.2509 10.6888 10.3037 10.7517 10.2445 10.6375C10.2409 10.6315 10.2145 10.5938 10.2163 10.5975ZM11.1408 10.278C11.2409 10.2833 11.2394 10.0703 11.1427 10.1891C11.1392 10.1947 11.1355 10.2781 11.1408 10.278ZM12.0044 11.0799C12.0236 11.1249 12.1772 11.2136 12.1627 11.1087C12.1602 11.0923 12.0473 11.0177 12.0044 11.0799ZM10.2797 10.4507C10.327 10.5857 10.3943 10.5143 10.3929 10.4862C10.3899 10.4763 10.2147 10.2777 10.2797 10.4507ZM11.506 9.07174C11.5076 9.10632 11.4417 9.15573 11.4999 9.2039C11.5041 9.16537 11.6409 9.13383 11.506 9.07174ZM10.255 10.5759C10.1682 10.4482 10.1674 10.4658 10.2651 10.6418C10.2755 10.6207 10.1745 10.4854 10.255 10.5759ZM11.2479 9.45765C11.2537 9.36624 11.4587 9.34445 11.465 9.35695C11.5274 9.46444 11.3062 9.55552 11.2479 9.45765ZM10.8824 9.9835C10.8174 9.9327 10.8083 10.0029 10.8543 10.0306C10.8696 10.0402 10.935 10.0249 10.8824 9.9835ZM9.67618 9.76984C9.68375 9.85924 9.51823 9.8548 9.51969 9.75623C9.55967 9.63385 9.67493 9.75924 9.67618 9.76984ZM11.3552 10.838C11.2416 10.8863 11.2771 10.7703 11.386 10.7775C11.4134 10.7804 11.3938 10.8245 11.3552 10.838ZM10.7918 10.1899C10.9007 10.2124 10.8849 10.0584 10.8263 9.93572L12.2419 11.3944C12.181 11.3413 12.1133 11.3265 12.1165 11.4257C12.1167 11.4321 12.1414 11.4651 12.1719 11.5019L10.7168 10.0025C10.747 10.0919 10.782 10.1879 10.7918 10.1899ZM11.67 11.113C11.6782 11.1372 11.4505 11.4806 11.4667 11.3033C11.4686 11.2802 11.5684 11.2142 11.5743 11.1885C11.5777 11.1737 11.4584 11.0313 11.4463 11.0352C11.4332 11.0399 11.3724 11.1576 11.3571 11.1656C11.3401 11.1745 11.309 11.019 11.2611 10.9882C11.1717 10.931 11.1042 11.0188 11.0966 11.0146C11.0745 11.002 11.0783 10.9131 11.0345 10.8868C10.8106 10.7523 10.4254 10.6356 10.3622 10.3323C10.474 10.5034 10.6736 10.5043 10.8469 10.5709C10.6838 10.7408 11.1686 10.5562 10.8709 10.6873C10.9745 10.6795 11.6429 11.0342 11.6699 11.1129C11.6699 11.1129 11.67 11.113 11.67 11.113ZM10.1171 10.3456C10.0692 10.2129 10.1119 10.2337 10.152 10.3917C10.1541 10.4143 10.1225 10.3605 10.1171 10.3456ZM9.9535 10.0396C9.94314 10.0174 9.79345 9.78686 9.87768 9.89828C9.87769 9.89827 9.8777 9.89827 9.87771 9.89826C9.90325 9.93015 9.93764 9.98777 9.95146 10.0073C9.95626 10.0158 10.0473 10.1192 10.0483 10.1452C10.0507 10.1842 9.93249 9.9766 9.92429 9.97856C9.92384 9.97864 9.99366 10.1106 10.0109 10.1383C10.0129 10.1415 9.99964 10.1127 10.0075 10.1238C10.037 10.1655 10.082 10.2387 10.0845 10.2419C10.0919 10.2498 10.0367 10.1108 10.1162 10.2108C10.141 10.2444 10.1404 10.3588 10.1294 10.3397C10.1214 10.3288 9.99852 10.1246 9.98587 10.1048C9.97959 10.095 10.0169 10.1766 10.0057 10.1578C10.0024 10.1523 9.99897 10.1464 9.99617 10.1415C10.0325 10.2057 10.025 10.2037 9.98749 10.1294C9.97222 10.1005 9.9818 10.1168 9.98494 10.1216C9.98614 10.1237 9.98777 10.1266 9.9889 10.1287C9.94407 10.0509 9.95714 10.0478 9.88506 9.93509C9.84989 9.8707 9.98727 10.1026 9.9535 10.0396ZM9.91144 9.88979C9.92534 9.91071 9.93915 9.93167 9.95289 9.9527C9.93536 9.88933 10.0414 9.95938 10.0816 9.92228C10.0916 9.91326 9.97777 9.80949 10.0184 9.82918C10.0509 9.84512 10.1607 9.93701 10.1761 9.96609C10.1795 9.97371 10.0939 9.92669 10.09 9.94268C10.0778 9.99079 10.1709 10.0838 10.1713 10.0881C10.1713 10.0931 10.0925 10.0385 10.0862 10.0489C10.0704 10.0752 10.1059 10.1497 10.0206 10.0811C9.98362 10.001 9.86497 9.85455 9.91144 9.88979ZM10.9932 10.9593C10.9199 10.9977 10.9605 10.9194 10.9385 10.9055C11.0128 10.8682 10.9756 10.9523 10.9932 10.9593ZM11.1033 11.2465C10.969 11.2174 10.9265 11.3496 11.0417 11.3211C11.0671 11.3144 11.1011 11.2618 11.1033 11.2465ZM11.0078 11.9268C11.0458 11.9495 11.1414 11.8521 11.0364 11.8544C11.0027 11.855 11.0027 11.9238 11.0078 11.9268ZM10.5157 9.42858C10.5142 9.42363 10.5664 9.40305 10.573 9.40569C10.7088 9.46426 10.5481 9.54294 10.5157 9.42858ZM11.241 13.494C11.2093 13.3912 11.1847 13.4318 11.1704 13.5196C11.156 13.1897 11.0579 12.5888 11.1854 12.9186C11.1974 12.9378 11.2482 13.3647 11.2419 13.5197C11.2419 13.5055 11.2417 13.4963 11.241 13.494ZM10.7371 11.4559C10.7791 11.5243 11.0189 11.946 10.9803 11.9791C10.9233 11.9947 10.6616 11.5371 10.7371 11.4559ZM10.7318 9.42757C10.5823 9.36617 10.6351 9.83949 10.6212 9.96414C10.7697 10.006 10.6761 9.59426 10.7318 9.42757ZM10.7604 8.75445C10.8409 8.34603 11.0928 8.57347 10.8139 8.81156C10.728 8.764 10.7548 8.78009 10.7604 8.75445ZM10.7411 8.976C10.8553 8.93067 10.9035 8.69782 10.9617 8.5496C10.8853 8.54625 10.7868 8.8686 10.7411 8.976ZM11.3255 11.1266C11.4464 11.1575 11.2865 11.2284 11.237 11.2096C11.2262 11.2038 11.2585 11.1112 11.3255 11.1266ZM10.4271 9.3279C10.302 9.24733 10.4106 9.19931 10.4427 9.21045C10.5709 9.25919 10.405 9.30321 10.4271 9.3279ZM10.7037 11.072C10.6017 11.1335 10.6765 11.1608 10.6839 11.1737C10.7735 11.1299 10.718 11.1065 10.7037 11.072ZM10.4907 10.573C10.4869 10.5836 10.5225 10.7279 10.5291 10.7294C10.6606 10.8229 10.564 10.426 10.4907 10.573ZM10.4457 11.5075C10.4497 11.5103 10.5117 11.48 10.5124 11.4748C10.5286 11.35 10.35 11.4385 10.4457 11.5075Z" fill="#F4AD26"/>
</svg>
